<svg xmlns="http://www.w3.org/2000/svg" width="22" height="22" viewBox="0 0 22 22">
  <g id="Group_150" data-name="Group 150" transform="translate(-5289.038 -517.977)">
    <g id="Group_147" data-name="Group 147">
      <path id="Path_350" data-name="Path 350" d="M5300.038,539.977a11,11,0,1,1,11-11A11.012,11.012,0,0,1,5300.038,539.977Zm0-20a9,9,0,1,0,9,9A9.01,9.01,0,0,0,5300.038,519.977Z" fill="#e5e5e5"/>
    </g>
    <g id="Group_148" data-name="Group 148">
      <path id="Path_351" data-name="Path 351" d="M5300.038,533.977a1,1,0,0,1-1-1v-8a1,1,0,0,1,2,0v8A1,1,0,0,1,5300.038,533.977Z" fill="#c9c9c9"/>
    </g>
    <g id="Group_149" data-name="Group 149">
      <path id="Path_352" data-name="Path 352" d="M5304.038,529.977h-8a1,1,0,0,1,0-2h8a1,1,0,0,1,0,2Z" fill="#c9c9c9"/>
    </g>
  </g>
</svg>
