<?xml version="1.0" encoding="utf-8"?>
<!-- Generator: Adobe Illustrator 21.0.2, SVG Export Plug-In . SVG Version: 6.00 Build 0)  -->
<svg version="1.1" id="Layer_1" xmlns="http://www.w3.org/2000/svg" xmlns:xlink="http://www.w3.org/1999/xlink" x="0px" y="0px"
	 viewBox="0 0 50.5999985 120" style="enable-background:new 0 0 50.5999985 120;" xml:space="preserve">
<style type="text/css">
	.st0{fill:#FFFFFF;}
</style>
<g>
	<path class="st0" d="M14.0528545,38.3880615c-0.5917902,0-1.1178265-0.5260353-1.1178265-1.1178246v-8.4165726
		c0-0.5917892,0.5260353-1.1178246,1.1178265-1.1178246h8.4165707c0.5917912,0,1.1178265,0.5260353,1.1178265,1.1178246v8.4165726
		c0,0.5917892-0.5260353,1.1178246-1.1178265,1.1178246H14.0528545z M15.170681,36.1524086h6.1151638v-6.1809177h-6.1809187
		v6.1809177H15.170681z"/>
	<path class="st0" d="M5.6362829,99.9342422c-0.1315088,0-0.2630181,0-0.3287725-0.0657578
		c-0.2630177-0.0657501-0.5260358-0.2630157-0.6575446-0.5917892c-0.1315088-0.2630157-0.1315088-0.5917892-0.0657544-0.854805
		l2.6959329-8.1535568v-28.14291L1.954033,64.8871078c-0.1315089,0.0657578-0.3287723,0.1315079-0.5260357,0.1315079
		c-0.1315089,0-0.3287723-0.0657501-0.4602813-0.1315079c-0.2630178-0.1315002-0.4602813-0.3287659-0.5917901-0.6575394
		c-0.1315089-0.2630196-0.0657545-0.5917931,0-0.8548088l6.9042182-15.1235275V23.2645359
		c0-0.2630177,0.1315088-0.5917892,0.3287725-0.789053c0.2630181-0.1972637,0.5260358-0.3287735,0.8548083-0.3287735h22.5537796
		c0.5260353,0,0.9863167,0.3945274,1.1178246,0.9205627c0.3287735,1.6438618,1.3808441,3.0904598,2.8274422,3.8795147
		c0.5917931,0.3945255,0.7232971,1.1178246,0.3945274,1.5781059c-0.1315117,0.1972637-0.2630196,0.4602814-0.3287735,0.7233009
		c-0.1315079,0.3287716-0.1972618,0.6575432-0.1972618,0.9863167c0,0.3287716,0.0657539,0.6575432,0.1972618,1.0520706
		c0.0657539,0.1315098,0.1315079,0.2630177,0.1972618,0.3287735c0.1315117,0.1972637,0.2630196,0.3945255,0.3945274,0.5260334
		c0.1315079,0.1315117,0.1972618,0.2630196,0.3287735,0.3287735c0.1315079,0.1315079,0.3287697,0.2630196,0.4602814,0.3287735
		c0.1972618,0.1315079,0.3287697,0.1972618,0.3945236,0.1972618c0.3945274,0.1315079,0.7232971,0.1972618,1.1178284,0.1972618
		c0.4602814,0,0.9863167-0.1315079,1.3808403-0.3287697c0.1972656-0.0657578,0.3287735-0.1315117,0.5260353-0.1315117
		c0.4602814,0,0.8548088,0.2630196,1.0520706,0.657547c0.3945274,0.854805,1.0520706,1.512352,1.8411255,2.0383873
		c0.3287735,0.1972618,0.5917892,0.5917892,0.5917892,0.9863167v14.4002266L50.15205,63.243248
		c0.1972656,0.3287735,0.1972656,0.7233009,0,1.0520706c-0.1972656,0.3945236-0.5917892,0.5917892-0.9863167,0.5917892l0,0
		c-0.1972656,0-0.3287735-0.0657501-0.5260391-0.1315002l-5.391861-2.6959343v28.0771599l2.7616844,8.2850571
		c0.0657539,0.2630234,0.0657539,0.5917892-0.0657539,0.9205627c-0.1972656,0.3287735-0.5917931,0.5917969-0.9863167,0.5917969
		c-0.1972656,0-0.3945274-0.0657578-0.5260391-0.1315079l-4.2082863-2.3671646l-4.471302,2.3671646
		c-0.1972618,0.0657501-0.3287735,0.1315079-0.5260353,0.1315079s-0.3945274-0.0657578-0.5260353-0.1315079l-4.2082863-2.3014069
		l-4.4713039,2.367157C25.822897,99.9342499,25.6913872,100,25.4941235,100c-0.1972618,0-0.3945255-0.0657501-0.5260353-0.1315079
		l-4.2082844-2.367157l-4.4713039,2.367157C16.0912361,99.9342499,15.9597273,100,15.7624645,100
		s-0.3945274-0.0657501-0.5260353-0.1315079l-4.2082853-2.367157l-4.8658252,2.3013916
		C6.0308099,99.9342422,5.8335462,99.9342422,5.6362829,99.9342422z M10.5678673,95.002655
		c0.1972637,0,0.3945265,0.0657578,0.5260363,0.1315079l4.2082853,2.367157l4.4713039-2.367157
		c0.1972637-0.0657501,0.3287716-0.1315079,0.5260353-0.1315079s0.3945274,0.0657578,0.5260353,0.1315079l4.2082863,2.3014069
		l4.4713039-2.3014069c0.1972618-0.0657501,0.3287716-0.1315079,0.5260353-0.1315079
		c0.1972618,0,0.3945255,0.0657578,0.5260353,0.1315079l4.2082863,2.3014069l4.471302-2.3014069
		c0.1972618-0.0657501,0.3287735-0.1315079,0.5260353-0.1315079s0.3945274,0.0657578,0.5260353,0.1315079l2.3671608,1.3150864
		l-1.6438599-4.9315796H9.0555162l-1.6438618,4.9315796l2.3671608-1.3150864
		C10.1733408,95.0684128,10.3706045,95.002655,10.5678673,95.002655z M9.5815506,61.0733528v28.2744179h31.3648796V63.1117363
		l-5.5891304,1.7753716c-0.1315079,0.0657578-0.2630157,0.0657578-0.3287697,0.0657578
		c-0.3287735,0-0.5917931-0.1315079-0.7890549-0.3287735l-4.9315853-4.9315834L21.6803703,64.7556
		c-0.1972618,0.1315079-0.3945255,0.1972656-0.5917892,0.1972656s-0.4602814-0.0657578-0.6575432-0.197258l-7.8905354-5.2603607
		L9.5815506,61.0733528z M29.4393997,57.1280861c0.3287716,0,0.5917912,0.1315079,0.789053,0.3287697l5.1288471,5.128849
		l7.7590294-2.5644264c0.1315079-0.0657539,0.2630196-0.0657539,0.3287735-0.0657539
		c0.1972656,0,0.3287735,0.0657539,0.5260353,0.1315117l2.3671608,1.1835785l-4.8658295-8.8111L9.1870279,49.6320763
		l-5.3918695,11.835804l8.3508167-4.2082901c0.1315098-0.0657501,0.3287725-0.1315079,0.5260353-0.1315079
		s0.4602814,0.0657539,0.5917902,0.1972618l7.7590265,5.194603l7.7590256-5.194603
		C28.9791183,57.19384,29.1763802,57.1280861,29.4393997,57.1280861z M36.4093704,41.741539
		c0.5917931,0,1.1178284,0.5260353,1.1178284,1.1178284v6.9042168l3.3534775,0.2630196V36.9414635
		c-0.5260353-0.5917892-0.9863205-1.0520706-1.3808441-1.5781059l-0.1315117-0.1315079l-0.5917892,0.1972618
		c-0.3287735,0.1315079-0.6575432,0.1972618-0.9863167,0.1972618H37.527195v1.6438637
		c0,0.5917892-0.5260353,1.1178246-1.1178246,1.1178246h-8.3508167c-0.5917912,0-1.1178265-0.5260353-1.1178265-1.1178246
		v-8.4165726c0-0.2630177,0.1315098-0.5917892,0.3287735-0.789053c0.1972618-0.1972637,0.5260353-0.3287716,0.789053-0.3287716
		h4.40555l-0.4602814-0.4602814c-0.723299-0.789053-1.3150902-1.7096157-1.6438618-2.6959324l-0.0657539-0.1972637H9.5815516
		v23.014061l3.3534775,0.2630196v-4.8658295c0-0.2630157,0.1315098-0.5917892,0.3287725-0.7890549
		c0.1972628-0.1972618,0.5260353-0.3287697,0.7890539-0.3287697h8.4165716c0.5917912,0,1.1178265,0.5260353,1.1178265,1.1178246
		v5.7206383l3.3534775,0.2630196v-5.9836578c0-0.2630157,0.1315079-0.5917892,0.3287716-0.7890549
		c0.1972637-0.1972618,0.5260353-0.3287697,0.7890549-0.3287697h8.3508129V41.741539z M29.1763802,49.040287l6.1809196,0.5260353
		v-5.5891304h-6.1809196V49.040287z M15.170681,47.9224586l6.1809177,0.5260353v-4.4055481h-6.1809196
		C15.1706791,44.0429459,15.1706791,47.9224586,15.170681,47.9224586z M29.1763802,36.1524086h6.1809196V35.100338
		c-1.7753716-1.1835785-2.8274384-2.95895-2.8274384-4.8000755v-0.2630177h-3.3534813V36.1524086z"/>
</g>
</svg>
