<svg xmlns="http://www.w3.org/2000/svg" width="78.455" height="22" viewBox="0 0 78.455 22">
  <g id="Group_422" data-name="Group 422" transform="translate(-652.262 -3653.17)">
    <path id="Path_897" data-name="Path 897" d="M683.056,3653.17l-.015,4.7c0,.326-.007.652,0,.978.005.165-.055.213-.217.213q-2.706-.007-5.41,0c-.188,0-.214-.078-.214-.237q.006-2.683,0-5.368c0-.1-.011-.193-.017-.29Zm-1.281,1.1c-.3,0-.546.015-.785,0a.444.444,0,0,0-.467.255c-.213.356-.456.7-.678,1.046a.267.267,0,0,1-.344.107c-.053-.018-.089-.151-.092-.233q-.015-.468,0-.936c.006-.183-.067-.247-.245-.237s-.374.007-.562,0c-.133,0-.187.055-.185.186.005.208,0,.416,0,.624,0,.887,0,1.775,0,2.662,0,.165.046.243.224.232a4.633,4.633,0,0,1,.54,0c.173.01.234-.06.23-.23-.009-.354.007-.708-.007-1.061-.008-.206.1-.245.254-.207a.346.346,0,0,1,.183.142c.258.4.5.8.76,1.192.039.061.1.147.156.149.342.014.685.007,1.07.007-.064-.118-.1-.2-.147-.27-.322-.5-.643-1-.973-1.5a.241.241,0,0,1,0-.316c.313-.449.616-.9.922-1.359C681.67,3654.465,681.7,3654.4,681.775,3654.275Z" fill="#c69c6d"/>
    <path id="Path_898" data-name="Path 898" d="M676.771,3653.17c-.007.1-.019.193-.019.289,0,1.782,0,3.565,0,5.347,0,.2-.051.261-.255.26q-2.684-.012-5.368,0c-.2,0-.257-.06-.256-.259.007-1.789,0-3.579,0-5.368,0-.089-.012-.178-.019-.268Zm-1.912,2.866a2.333,2.333,0,0,0,.34-.472.911.911,0,0,0-.857-1.24c-.642-.042-1.287-.031-1.931-.047-.155,0-.186.085-.186.211q0,1.633,0,3.266c0,.167.066.228.237.225.534-.009,1.068.01,1.6-.01a2.539,2.539,0,0,0,.709-.135.867.867,0,0,0,.6-.665A.916.916,0,0,0,674.859,3656.036Z" fill="gray"/>
    <path id="Path_899" data-name="Path 899" d="M689.424,3653.17q-.006,2.757-.011,5.515c0,.427.031.375-.383.376-1.734,0-3.468,0-5.2,0-.2,0-.258-.057-.257-.258.007-1.789,0-3.579,0-5.369,0-.089-.011-.178-.018-.268Zm-1.643,2.721c0,.66,0,1.271,0,1.881,0,.151.047.215.2.207.187-.01.375-.008.562,0,.136,0,.186-.057.186-.186q0-1.664,0-3.329c0-.148-.072-.191-.208-.188-.243.006-.486.008-.728,0a.237.237,0,0,0-.256.161c-.136.311-.281.618-.423.927-.2.431-.4.863-.612,1.328-.057-.115-.1-.193-.135-.273-.3-.649-.6-1.3-.888-1.949a.273.273,0,0,0-.3-.2,5.943,5.943,0,0,1-.666,0c-.188-.011-.237.068-.235.244.007.735,0,1.471,0,2.206,0,.354,0,.708,0,1.061,0,.144.053.207.2.193a.7.7,0,0,1,.1,0c.614,0,.614,0,.614-.6v-1.48c.266.583.539,1.115.75,1.67a.556.556,0,0,0,.68.421.309.309,0,0,0,.291-.2C687.194,3657.161,687.481,3656.547,687.781,3655.891Z" fill="gray"/>
    <path id="Path_900" data-name="Path 900" d="M696.721,3664.426a8.418,8.418,0,0,1-.854,3.74,4.813,4.813,0,0,1-3.4,2.653,4.57,4.57,0,0,1-2.458-.125c-.235-.08-.233-.077-.271.163q-.332,2.069-.664,4.137a.179.179,0,0,1-.207.176q-1.437,0-2.872,0c-.162,0-.184-.074-.16-.209q.639-3.688,1.273-7.379.547-3.189,1.088-6.38a.265.265,0,0,1,.214-.241,14.746,14.746,0,0,1,2.78-.572,15.9,15.9,0,0,1,1.655-.114,4.406,4.406,0,0,1,2.108.472,3.223,3.223,0,0,1,1.65,2.463C696.668,3663.611,696.682,3664.021,696.721,3664.426Zm-5.619,4.242a1.767,1.767,0,0,0,1.45-.758,4.452,4.452,0,0,0,.5-.927,7,7,0,0,0,.414-2.589,4.04,4.04,0,0,0-.161-1.039.924.924,0,0,0-.783-.69,2.665,2.665,0,0,0-1.25.107c-.071.022-.136.148-.153.235-.089.441-.161.884-.238,1.327-.231,1.314-.458,2.629-.7,3.942-.028.15.023.207.15.233C690.59,3668.563,690.846,3668.615,691.1,3668.668Z" fill="gray"/>
    <path id="Path_901" data-name="Path 901" d="M675.142,3667.72c.129.4.25.768.373,1.14.081.25.156.5.25.748a.2.2,0,0,1-.105.283,7.818,7.818,0,0,1-5.206.924,3.233,3.233,0,0,1-2.725-2.825,6.829,6.829,0,0,1,1.8-6,5.381,5.381,0,0,1,3.62-1.7,4.8,4.8,0,0,1,2.048.216,2.264,2.264,0,0,1,1.571,2.216,3.328,3.328,0,0,1-1.949,3.218,7.971,7.971,0,0,1-2.652.788c-.37.052-.742.089-1.114.123-.12.011-.157.064-.149.172a1.452,1.452,0,0,0,1.328,1.479,4.039,4.039,0,0,0,2.247-.45C674.693,3667.95,674.905,3667.838,675.142,3667.72Zm-4.046-2.814a4.029,4.029,0,0,0,2.412-.863,1.184,1.184,0,0,0,.386-.7.644.644,0,0,0-.62-.784,1.559,1.559,0,0,0-1.221.474A3.768,3.768,0,0,0,671.1,3664.906Z" fill="#00a99d"/>
    <path id="Path_902" data-name="Path 902" d="M711.434,3667.743c.218.669.429,1.3.622,1.934.016.052-.067.168-.132.208a7.237,7.237,0,0,1-2.3.872,7.485,7.485,0,0,1-2,.163,3.851,3.851,0,0,1-2.674-1.069,3.462,3.462,0,0,1-.935-2,6.955,6.955,0,0,1,1.546-5.553,5.4,5.4,0,0,1,3.511-1.956,5.216,5.216,0,0,1,2.281.128,2.294,2.294,0,0,1,1.7,2.27,3.427,3.427,0,0,1-2.293,3.355,9.141,9.141,0,0,1-2.71.669c-.227.025-.453.066-.68.075-.166.007-.2.084-.184.225a1.518,1.518,0,0,0,1.61,1.481,4.848,4.848,0,0,0,2.354-.662C711.231,3667.838,711.318,3667.8,711.434,3667.743Zm-4.044-2.869c.046.017.072.036.1.034a4.242,4.242,0,0,0,2.091-.659,1.375,1.375,0,0,0,.617-.829.661.661,0,0,0-.669-.866,1.609,1.609,0,0,0-1.322.617A3.815,3.815,0,0,0,707.39,3664.874Z" fill="gray"/>
    <path id="Path_903" data-name="Path 903" d="M687.61,3660.6c-.337.41-.644.783-.951,1.155-.964,1.165-1.925,2.331-2.9,3.49a.392.392,0,0,0-.062.5c.736,1.529,1.46,3.065,2.187,4.6.032.068.06.138.1.238-.087.008-.151.019-.215.019-.985,0-1.97,0-2.955,0a.291.291,0,0,1-.312-.206c-.314-.732-.639-1.46-.961-2.188-.036-.08-.081-.156-.142-.274-.1.119-.186.208-.261.3-.565.711-1.133,1.42-1.691,2.137a.533.533,0,0,1-.473.228c-.992-.011-1.984,0-2.976,0h-.257c.193-.236.355-.438.521-.636q1.83-2.186,3.665-4.365a.307.307,0,0,0,.051-.386q-1.038-2.2-2.065-4.405c-.025-.055-.045-.112-.077-.194.086-.005.152-.012.218-.012.93,0,1.859,0,2.788,0a.279.279,0,0,1,.309.2c.289.72.59,1.435.888,2.152.031.075.068.147.119.256.068-.072.117-.115.156-.166.576-.738,1.153-1.474,1.722-2.218a.5.5,0,0,1,.448-.229c.957.012,1.914,0,2.871.006Z" fill="gray"/>
    <path id="Path_904" data-name="Path 904" d="M729.093,3663.475c-.387-.226-.792-.494-1.225-.705a1.851,1.851,0,0,0-1.252-.171.791.791,0,0,0-.69.6.765.765,0,0,0,.364.843,8.9,8.9,0,0,0,.906.459,14.721,14.721,0,0,1,1.657.807,2.441,2.441,0,0,1,1.068,2.475,3.161,3.161,0,0,1-2.588,2.888,7.017,7.017,0,0,1-5.545-.75c-.244-.143-.236-.152-.1-.4.351-.636.7-1.274,1.059-1.928.066.035.12.061.171.091a5.915,5.915,0,0,0,2.463.88,2.286,2.286,0,0,0,.756-.085.678.678,0,0,0,.515-.593.627.627,0,0,0-.343-.679c-.353-.189-.729-.332-1.093-.5a12.874,12.874,0,0,1-1.421-.678,2.415,2.415,0,0,1-1.137-2.1,3.177,3.177,0,0,1,1.071-2.64,4.178,4.178,0,0,1,2.123-.935,5.557,5.557,0,0,1,4.262.949,7.039,7.039,0,0,1,.536.459c.074.064.1.129.017.208C730.138,3662.478,729.611,3662.98,729.093,3663.475Z" fill="gray"/>
    <path id="Path_905" data-name="Path 905" d="M720.313,3663.53c-.279-.189-.545-.389-.828-.559a2.515,2.515,0,0,0-1.376-.407,1.457,1.457,0,0,0-.505.1.746.746,0,0,0-.2,1.32,4.6,4.6,0,0,0,.872.474c.483.225.99.4,1.461.649a2.355,2.355,0,0,1,1.329,1.735,3.166,3.166,0,0,1-2.039,3.666,6.462,6.462,0,0,1-3.02.382,6.749,6.749,0,0,1-2.859-.863c-.515-.3-.427-.2-.186-.652.274-.513.558-1.022.838-1.532.042-.078.089-.153.143-.244l.281.158a5.57,5.57,0,0,0,2.316.807,1.97,1.97,0,0,0,.887-.132.661.661,0,0,0,.112-1.185,5.432,5.432,0,0,0-.889-.441c-.413-.181-.843-.321-1.247-.518a2.535,2.535,0,0,1-1.544-2.219,3.186,3.186,0,0,1,1.177-2.871,4.273,4.273,0,0,1,2.032-.844,5.66,5.66,0,0,1,3.4.457,4.7,4.7,0,0,1,1.343.933c.088.088.115.156.014.259-.494.5-.981,1-1.472,1.5A.164.164,0,0,1,720.313,3663.53Z" fill="gray"/>
    <path id="Path_906" data-name="Path 906" d="M700.872,3661.933a3.1,3.1,0,0,1,2.512-1.657,2.693,2.693,0,0,1,1.584.385c-.175.506-.346,1-.517,1.5-.108.314-.223.626-.321.944-.051.167-.11.222-.292.142a2.7,2.7,0,0,0-1.271-.239,1.717,1.717,0,0,0-1.592,1.519c-.343,1.954-.695,3.907-1.042,5.861-.025.141-.078.213-.243.212q-1.4-.011-2.808,0c-.175,0-.215-.065-.186-.226.4-2.247.786-4.5,1.193-6.74a14.822,14.822,0,0,0,.255-2.723c0-.3.027-.323.317-.323.686,0,1.373.007,2.059,0,.187,0,.254.05.253.246,0,.358.025.716.041,1.075Z" fill="gray"/>
    <path id="Path_907" data-name="Path 907" d="M652.262,3670.595l1.537-1.108c.629-.454,1.256-.913,1.891-1.359a.672.672,0,0,1,.358-.123q5.129-.009,10.257-.007c.13,0,.22.009.247.168a4.3,4.3,0,0,0,1.22,2.429Z" fill="#00a99d"/>
    <path id="Path_908" data-name="Path 908" d="M654.7,3666.782c.1-.08.141-.12.188-.154,1.086-.782,2.17-1.566,3.259-2.341a.625.625,0,0,1,.339-.116q4.109-.009,8.216,0c.055,0,.109.007.168.011-.092.392-.2.77-.265,1.156-.071.408-.115.822-.148,1.235-.015.176-.081.212-.243.212-1.928,0-3.855,0-5.783,0H654.7Z" fill="#00a99d"/>
    <path id="Path_909" data-name="Path 909" d="M669.56,3660.433a7.094,7.094,0,0,0-1.824,1.953,1.506,1.506,0,0,0-.168.285c-.107.3-.3.369-.617.368-3.287-.015-6.574-.01-9.862-.011h-.269c.077-.065.119-.1.166-.139q1.644-1.187,3.29-2.371a.487.487,0,0,1,.262-.093q4.443-.006,8.884,0C669.449,3660.423,669.477,3660.426,669.56,3660.433Z" fill="#00a99d"/>
    <path id="Path_910" data-name="Path 910" d="M673.713,3657.231c-.546,0-.538,0-.548-.544,0-.2.057-.272.258-.257s.43,0,.645.008c.257.011.358.134.355.409s-.1.371-.356.383C673.949,3657.236,673.831,3657.231,673.713,3657.231Z" fill="gray"/>
    <path id="Path_911" data-name="Path 911" d="M673.616,3655.791c-.515-.026-.441.051-.446-.455,0-.314,0-.319.321-.313.2,0,.4.016.6.039a.277.277,0,0,1,.243.293c.011.162-.033.318-.207.365A3.893,3.893,0,0,1,673.616,3655.791Z" fill="gray"/>
  </g>
</svg>
