<svg xmlns="http://www.w3.org/2000/svg" width="133.639" height="22" viewBox="0 0 133.639 22">
  <g id="Group_429" data-name="Group 429" transform="translate(-1232.553 -3652.707)">
    <path id="Path_930" data-name="Path 930" d="M1315.588,3671.354h3.243v-12.173h-3.243Zm4.221,0h2.982l-.106-8.318h.036l4.253,8.318H1331v-12.173h-2.962l.051,8.268h-.035l-4.117-8.268h-4.131Zm16.313-12.173h3.973l4.69,12.173h-3.556l-.905-2.6h-4.57l-.96,2.6h-3.3Zm1.987,2.515h-.035l-1.569,4.756h3.051Zm7.159,9.658h2.982l-.1-8.318h.034l4.257,8.318h4.029v-12.173H1353.5l.05,8.268h-.035l-4.113-8.268h-4.136Zm11.941-.315a12.7,12.7,0,0,0,3.627.525c2.7,0,5.356-.855,5.356-4.012,0-4.393-5.755-3.068-5.755-5.039,0-1.064,1.361-1.134,2.177-1.134a6.472,6.472,0,0,1,2.7.559l.211-2.512a10.294,10.294,0,0,0-3.141-.454c-2.441,0-5.3.8-5.3,3.733,0,4.429,5.755,3,5.755,5.269,0,.975-.972,1.183-2.006,1.183a7.123,7.123,0,0,1-3.348-.8Zm-52.958.3h4.23v-6.462h6.127v-3.037h-6.127v-3.54h10.324v-3.014h-14.554Zm-36.321-11.919a6.758,6.758,0,0,0-2.737-.52,6.065,6.065,0,0,0-6.433,6.241c0,3.87,2.564,6.344,6.417,6.344a7.58,7.58,0,0,0,2.771-.434l-.1-1.691a6.011,6.011,0,0,1-2.651.593,4.763,4.763,0,0,1,.09-9.521,4.874,4.874,0,0,1,2.509.683Zm1.128,11.858h1.829l1.242-3.069h5.961l1.237,3.069h1.9l-5.141-12.169h-1.835Zm8.473-4.5h-4.845l2.422-6.035Zm4.994,4.5h1.744v-5.4h1.047c.923,0,1.5,0,2.04,1.184l1.864,4.219h1.986l-2.3-4.849c-.385-.748-.648-1.011-1.188-1.218v-.035a2.835,2.835,0,0,0,2.511-2.775c0-2.911-2.32-3.292-4.727-3.292h-2.98Zm1.744-10.636h1.672c1.6,0,2.443.7,2.443,1.8,0,1.17-.976,1.9-2.636,1.9h-1.479Zm8.43,10.636h3.593c4.007,0,6.485-2.111,6.485-6.19,0-3.749-2.878-5.979-6.485-5.979H1292.7Zm1.742-10.636h2.043a4.243,4.243,0,0,1,4.444,4.513c0,3.143-1.654,4.587-4.655,4.587h-1.832Z" fill="#0056a2"/>
    <path id="Path_931" data-name="Path 931" d="M1241.524,3658.75l-.006-6.033h4.072v6.022l6.032-6.032,2.885,2.886-6.059,6.059h6.037v4.066h-6.021l6.054,6.054-2.908,2.907-6.042-6.043v6.07h-4.056v-6.07l-6.054,6.053-2.864-2.864,6.119-6.119h-6.161v-4.055h6.09l-6.065-6.065,2.875-2.875,6.059,6.059Z" fill="#0056a2" fill-rule="evenodd"/>
  </g>
</svg>
