<?xml version="1.0" encoding="utf-8"?>
<!-- Generator: Adobe Illustrator 21.1.0, SVG Export Plug-In . SVG Version: 6.00 Build 0)  -->
<svg version="1.1" id="Layer_1" xmlns="http://www.w3.org/2000/svg" xmlns:xlink="http://www.w3.org/1999/xlink" x="0px" y="0px"
	 viewBox="0 0 43.5885429 52.2856712" style="enable-background:new 0 0 43.5885429 52.2856712;" xml:space="preserve">
<style type="text/css">
	.st0{fill:none;}
	.st1{fill:#FFFFFF;}
</style>
<g>
	<path class="st0" d="M32.8538132,29.7170658c-0.0046921-0.0059681-0.0094528-0.0119705-0.014183-0.0179558l0.0101776,0.0442924
		C32.851387,29.7347012,32.8521042,29.7257156,32.8538132,29.7170658z"/>
	<path class="st0" d="M32.837471,29.6897221l-0.0773239-0.1596012l0.0540695,0.1368179
		c0.0085678,0.0107784,0.0169296,0.0214424,0.0254135,0.0321712L32.837471,29.6897221z"/>
	<path class="st0" d="M36.3824539,39.4700432c-0.1298218,0.2087402-0.1512146,0.446785-0.1531143,0.5580025v1.4798622
		c0,0.817585-0.5415649,2.0340424-2.0337677,2.0340424s-2.0337753-1.2164574-2.0337753-2.0340424v-2.9691162
		c-0.0037537-0.2159309-0.0828857-0.9350739-0.9353409-0.9350739c-0.8902798,0-0.9353428,0.7789612-0.9353428,0.9350739v5.9382324
		c0,0.817585-0.5415707,2.0340385-2.0337734,2.0340385c-1.4922009,0-2.0337715-1.2164536-2.0337715-2.0340385v-4.4535408
		c-0.0036564-0.2099953-0.0807571-0.8942337-0.8690376-0.9317703c-0.5704899,0.9092751-1.5796814,1.4811211-2.6641808,1.4811211
		c-1.6752911,0-3.0451431-1.3167419-3.1384563-2.9691162h-0.2018986c-0.8900108,0-0.9350739,0.7789612-0.9350739,0.9350739
		v1.4846916c0,0.8175888-0.5415707,2.0337753-2.0340424,2.0337753c-1.4922018,0-2.0337715-1.2161865-2.0337715-2.0337753v-1.4846916
		c-0.0037556-0.2159309-0.0828857-0.9350739-0.9353428-0.9350739c-0.8900099,0-0.9350739,0.7789612-0.9350739,0.9350739v2.9691162
		c0,0.817585-0.5415707,2.0340424-2.0340414,2.0340424c-1.4922018,0-2.0337725-1.2164574-2.0337725-2.0340424v-5.9382286
		c-0.0025654-0.1478004-0.0407553-0.5311623-0.3377438-0.7584915c-0.587976,1.8238258-0.8947382,3.7537918-0.8947382,5.6996841
		c0,7.5974083,4.0990801,10.5574722,14.6178751,10.5574722c10.5197868,0,14.6178627-2.9600639,14.6178627-10.5574722
		C36.4121323,40.1632538,36.4017563,39.8161697,36.3824539,39.4700432z"/>
	<path class="st0" d="M22.6903496,39.4741364c0.7837887,0,1.5088005-0.4591713,1.8476162-1.1699829l0.0008049-0.0016785
		c0.1327782-0.2784271,0.2001057-0.5737572,0.2001057-0.8771324c0-1.1295471-0.9189816-2.0485268-2.0485268-2.0485268
		c-1.0102634,0-1.880291,0.7541656-2.0246696,1.7542686h0.0000172c-0.0163631,0.1164169-0.0241413,0.2100296-0.0241413,0.2942581
		C20.6415558,38.5551567,21.5605354,39.4741364,22.6903496,39.4741364z"/>
	<path d="M32.8498077,29.7434025L32.8396301,29.69911c-0.0084839-0.0107288-0.0168457-0.0213928-0.0254135-0.0321712
		l0.0340805,0.0862885C32.8488693,29.7499752,32.8492355,29.7466373,32.8498077,29.7434025z"/>
	<circle class="st1" cx="14.2326069" cy="33.5096893" r="1.48455"/>
	<circle class="st1" cx="18.9380493" cy="32.048027" r="2.0110054"/>
	<circle class="st1" cx="15.4163322" cy="27.9769611" r="1.51071"/>
	<circle class="st1" cx="20.7365112" cy="28.3889732" r="1.373373"/>
	<circle class="st1" cx="24.032608" cy="29.7623463" r="1.6480484"/>
	<circle class="st1" cx="28.6330013" cy="28.3889732" r="1.6480484"/>
	<circle class="st1" cx="31.5861607" cy="33.4704552" r="1.5107117"/>
	<circle class="st1" cx="26.5046787" cy="33.3331184" r="1.6480484"/>
	<path class="st1" d="M21.794241,22.6454735c-8.7314453,0-15.835144,8.0137329-15.835144,17.8654175
		c0,8.3646851,4.5877686,11.7747803,15.835144,11.7747803c11.2474384,0,15.835207-3.4100952,15.835207-11.7747803
		C37.6294479,30.6592064,30.5257473,22.6454735,21.794241,22.6454735z M26.2239895,24.6623192
		c0.6673584,0.2453613,1.3249512,0.5407104,1.9682007,0.8986206l0.1804199,0.1000977
		c1.963623,1.1799316,3.4711304,2.7832031,4.4415913,4.0059204l-0.0540771-0.1368408l0.0773315,0.1596069l0.0021973,0.0093994
		c0.0046997,0.0059814,0.0094604,0.0119629,0.0141602,0.0179443c-0.001709,0.008667-0.0024414,0.0176392-0.0040283,0.0263062
		c-0.0005493,0.0032349-0.0009155,0.0065918-0.0014648,0.0098267c-0.0160522,0.0924072-0.026123,0.1868286-0.026123,0.2838135
		c0,0.8076172,0.5812988,1.4782715,1.3480835,1.6195068l0.2671509,0.5263672
		c0.9448853,1.8527832,1.5618896,3.8901978,1.826355,5.9901123c-0.8151245,0.369812-1.1331177,1.225708-1.1331177,1.8504639
		v1.484436c0,0.1561279-0.045105,0.9353638-0.9351196,0.9353638c-0.8521729,0-0.9312744-0.7194214-0.9350586-0.9353638V38.538784
		c0-0.8175659-0.5415649-2.0337524-2.0340595-2.0337524c-1.4924316,0-2.0339966,1.2161865-2.0339966,2.0337524v5.9382324
		c0,0.1561279-0.045105,0.9353638-0.9351196,0.9353638c-0.8521729,0-0.9312744-0.7194214-0.9350586-0.9353638v-4.4535522
		c0-0.7212524-0.4213867-1.7526245-1.5450439-1.9860229c0.0402222-0.2003784,0.0603638-0.4050293,0.0603638-0.6121216
		c0-1.7354736-1.4117432-3.1472168-3.1472168-3.1472168c-1.3902588,0-2.6080933,0.9291992-3.006958,2.2269287H19.349966
		c-1.4921875,0-2.0337524,1.2161865-2.0337524,2.0337524v1.4846802c0,0.1561279-0.0450439,0.9351196-0.9353638,0.9351196
		c-0.8521729,0-0.9312744-0.7191772-0.9350586-0.9351196V38.538784c0-0.8175659-0.5415649-2.0337524-2.0339966-2.0337524
		c-1.4922485,0-2.0338135,1.2161865-2.0338135,2.0337524v2.9645386c-0.0037231,0.22052-0.0828857,0.9399414-0.9353027,0.9399414
		c-0.8522339,0-0.9313354-0.7194214-0.9351196-0.9353638v-5.9382324c0-0.6056519-0.2984009-1.4289551-1.0592651-1.8156738
		c0.2183228-0.5563965,0.4622803-1.1013794,0.7344971-1.6306152l0.2712402-0.5278931
		c0.2642212,0.2265625,0.6068115,0.3642578,0.9821777,0.3642578c0.8343506,0,1.5107422-0.6763916,1.5107422-1.5106812
		c0-0.5715332-0.3175659-1.0687256-0.7856445-1.3253784c0.7084961-0.8596191,1.4802856-1.6310425,2.3079224-2.2859497
		l0.4451294-0.3529053l1.3286743-0.8425903l-0.0241089,0.0187988l0.1793823-0.1000977
		c0.9060669-0.5040894,1.8389282-0.890686,2.7908325-1.1711426c-0.1238403,0.2062988-0.1994019,0.4450073-0.1994019,0.703064
		c0,0.7584839,0.6149292,1.3734131,1.3734131,1.3734131s1.3733521-0.6149292,1.3733521-1.3734131
		c0-0.4655151-0.2329102-0.8753052-0.5872192-1.1237183c0.5435181-0.0706787,1.0921631-0.1063232,1.6449585-0.1063232
		c0.2370605,0,0.4729004,0.0098267,0.708252,0.0228271c-0.0749512,0.2055664-0.1179199,0.4264526-0.1179199,0.6578979
		c0,1.0618896,0.8608398,1.9227295,1.9227295,1.9227295 M24.7388821,37.4253197
		c0,0.3034058-0.0673218,0.5987549-0.2001343,0.8771362l-0.0007935,0.001709
		c-0.3388062,0.7108154-1.0638428,1.1699829-1.8475952,1.1699829c-1.1298218,0-2.0488281-0.9190063-2.0488281-2.0488281
		c0-0.0842285,0.0078125-0.1777954,0.0241699-0.2942505c0.1443481-1.000061,1.0144043-1.7542725,2.0246582-1.7542725
		C23.8198757,35.3767967,24.7388821,36.2958031,24.7388821,37.4253197z M21.794241,51.068325
		c-10.5187378,0-14.6178589-2.960022-14.6178589-10.5574341c0-1.9459229,0.3067627-3.8758545,0.8947754-5.699707
		c0.296936,0.227356,0.335144,0.6107178,0.3377075,0.7584839v5.9382324c0,0.8175659,0.5415649,2.0340576,2.0338135,2.0340576
		c1.4924316,0,2.0339966-1.2164917,2.0339966-2.0340576V38.538784c0-0.1561279,0.045105-0.9350586,0.9351196-0.9350586
		c0.852417,0,0.9315796,0.7191162,0.9353027,0.9350586v1.4846802c0,0.817627,0.5415649,2.0338135,2.0337524,2.0338135
		c1.4924927,0,2.0340576-1.2161865,2.0340576-2.0338135V38.538784c0-0.1561279,0.045105-0.9350586,0.9350586-0.9350586h0.2019043
		c0.0933228,1.6523438,1.4631958,2.9691162,3.1384888,2.9691162c1.0844727,0,2.093689-0.5718384,2.6641846-1.4811401
		c0.788269,0.0375366,0.8653564,0.7218018,0.8690186,0.9317627v4.4535522c0,0.8175659,0.5415649,2.0340576,2.0337524,2.0340576
		c1.4922485,0,2.0338135-1.2164917,2.0338135-2.0340576V38.538784c0-0.1561279,0.0450439-0.9350586,0.9353027-0.9350586
		c0.8524799,0,0.9316425,0.7191162,0.9353657,0.9350586v2.9691162c0,0.8175659,0.5415649,2.0340576,2.0337524,2.0340576
		c1.4922485,0,2.0338135-1.2164917,2.0338135-2.0340576v-1.4798584c0.0018921-0.1112061,0.0232544-0.3492432,0.1530762-0.5579834
		c0.0193481,0.3461304,0.0297241,0.6931763,0.0297241,1.0408325C36.4121628,48.1083031,32.3140793,51.068325,21.794241,51.068325z"
		/>
</g>
</svg>
