<svg xmlns="http://www.w3.org/2000/svg" width="69.58" height="50" viewBox="0 0 69.58 50">
  <g id="Group_449" data-name="Group 449" transform="translate(-918.695 -4461.75)">
    <path id="Path_981" data-name="Path 981" d="M933.905,4511.75a6.134,6.134,0,0,1-5.849-4.244.8.8,0,0,1-.037-.171l-1.468-12.967-.9-.379a11.353,11.353,0,0,1,4.4-21.82h10.2l20.632-10.318a.94.94,0,0,1,.421-.1.943.943,0,0,1,.938.94v12.075l1.248.324a8.7,8.7,0,0,1,0,16.867l-1.248.324v12.075a.94.94,0,0,1-.94.937.953.953,0,0,1-.427-.1l-20.626-10.314h-3.369l2.872,8.826a6.146,6.146,0,0,1-5.84,8.048Zm-4.033-4.709.094.221a4.27,4.27,0,0,0,7.995-2.981l-3.062-9.4h-6.407Zm11.53-33.355v19.674l18.958,9.479v-38.632Zm-11.353.358a9.479,9.479,0,1,0,0,18.957h9.479v-18.957Zm32.186,16.865,2.506-1.462a6.828,6.828,0,0,0,0-11.847l-2.5-1.456Z" fill="#fff"/>
    <path id="Path_982" data-name="Path 982" d="M982.13,4484.46a.938.938,0,0,1,0-1.875h5.209a.938.938,0,0,1,0,1.875Z" fill="#fff"/>
    <path id="Path_983" data-name="Path 983" d="M982.13,4470.676a.941.941,0,0,1-.938-.936.931.931,0,0,1,.276-.663l3.682-3.682a.932.932,0,0,1,1.324,0,.936.936,0,0,1,0,1.325l-3.682,3.682A.933.933,0,0,1,982.13,4470.676Z" fill="#fff"/>
    <path id="Path_984" data-name="Path 984" d="M985.812,4501.925a.925.925,0,0,1-.662-.275l-3.682-3.681a.937.937,0,1,1,1.325-1.326l3.682,3.683a.937.937,0,0,1-.663,1.6Z" fill="#fff"/>
  </g>
</svg>
