<svg xmlns="http://www.w3.org/2000/svg" viewBox="0 0 71.4 65.3"><defs><style>.cls-1{fill:#fff;}</style></defs><g id="Layer_2" data-name="Layer 2"><g id="Layer_1-2" data-name="Layer 1"><path class="cls-1" d="M0,65.3V62.9H21.4l.1-.6a33.9,33.9,0,0,1-20-30.9V29.9h37l-.4-.5A15.9,15.9,0,0,1,35.2,24v-.1L17.5,15.6,16.9,17,3.5,10.8A5.39,5.39,0,0,1,.6,7.6,5.36,5.36,0,0,1,.8,3.3,5.86,5.86,0,0,1,4,.3,6.28,6.28,0,0,1,5.9,0,6.87,6.87,0,0,1,8.3.5L21.7,6.7l-.6,1.4L38,16l.1-.1A14.54,14.54,0,0,1,45.2,14h1.3a29.59,29.59,0,0,1,11.3,2.3c3.5,1.6,5.5,3.9,6,6.7a12.21,12.21,0,0,1-1,6.5l-.2.4h7.3v1.5a34.07,34.07,0,0,1-20,30.9l.1.6H71.4v2.4H0ZM4,32.7A31.3,31.3,0,0,0,35.4,63h.7A31.3,31.3,0,0,0,67.5,32.7v-.3H3.9ZM39,19.6a3.08,3.08,0,0,0-1,.1l-.4.1.2.3c1,2,7.3,6.8,13.7,9.7l.2.1h8.4l.1-.2a2.06,2.06,0,0,0-.3-2c-.8-1.2-2.7-2.5-5.6-3.8C48.5,21.2,42,19.6,39,19.6Zm-.8,5.3a20.78,20.78,0,0,0,3.5,5l.1.1h4.7l-.9-.6a49.78,49.78,0,0,1-6.9-4.9Zm8.3-8.6H45.3a18.43,18.43,0,0,0-3.5.5v.6a62.9,62.9,0,0,1,13.4,4.2,20.06,20.06,0,0,1,5.7,3.6l.5.5.1-.6a4.77,4.77,0,0,0,0-1.7c-.4-2.1-1.9-3.7-4.6-5A27.18,27.18,0,0,0,46.5,16.3ZM18.6,13.5l16.3,7.6v-.4a8.33,8.33,0,0,1,.4-1.5c0-.2.1-.3.1-.5s.3-.5.4-.8l.2-.3L20,10.1ZM6,2.4a3.59,3.59,0,0,0-1.1.2A3,3,0,0,0,3.1,4.3,3.36,3.36,0,0,0,3,6.9,3,3,0,0,0,4.7,8.7l11.2,5.2,2.8-6L7.5,2.7A4.43,4.43,0,0,0,6,2.4Z"/></g></g></svg>