<svg xmlns="http://www.w3.org/2000/svg" width="21.334" height="16" viewBox="0 0 21.334 16">
  <g id="Group_452" data-name="Group 452" transform="translate(-1051.167 -4676.843)">
    <g id="Group_451" data-name="Group 451">
      <g id="Group_450" data-name="Group 450">
        <path id="Path_985" data-name="Path 985" d="M1068.972,4688.371l-3.918-3.917,3.863-3.09a.667.667,0,0,0-.833-1.042l-6.25,5-6.25-5a.667.667,0,1,0-.833,1.042l3.862,3.09-3.917,3.917a.667.667,0,0,0,.943.943l4-4c.007-.008.01-.018.017-.026l1.761,1.409a.669.669,0,0,0,.834,0l1.761-1.409c.007.008.009.018.017.026l4,4a.667.667,0,0,0,.943-.943Z" fill="#fff"/>
      </g>
    </g>
    <path id="Path_986" data-name="Path 986" d="M1068.5,4676.843h-13.334a4,4,0,0,0-4,4v8a4,4,0,0,0,4,4H1068.5a4,4,0,0,0,4-4v-8A4,4,0,0,0,1068.5,4676.843Zm2.666,12a2.669,2.669,0,0,1-2.666,2.666h-13.334a2.669,2.669,0,0,1-2.666-2.666v-8a2.669,2.669,0,0,1,2.666-2.667H1068.5a2.669,2.669,0,0,1,2.666,2.667Z" fill="#fff"/>
  </g>
</svg>
