<svg xmlns="http://www.w3.org/2000/svg" width="18.331" height="16" viewBox="0 0 18.331 16">
  <g id="Group_415" data-name="Group 415" transform="translate(-622.924 -2363.833)">
    <path id="Path_877" data-name="Path 877" d="M639.84,2372.072a4.824,4.824,0,0,0,0-6.825h0a4.842,4.842,0,0,0-6.84,0l-.92.92-.921-.92a4.822,4.822,0,0,0-6.824,0,4.761,4.761,0,0,0-1.411,3.42,4.851,4.851,0,0,0,1.411,3.42l7.745,7.745Zm-15.705-3.405a3.523,3.523,0,0,1,1.058-2.546,3.592,3.592,0,0,1,5.092,0l1.8,1.779,1.794-1.794a3.6,3.6,0,0,1,6.15,2.546,3.524,3.524,0,0,1-1.058,2.546l-6.886,6.9-6.887-6.886A3.642,3.642,0,0,1,624.135,2368.667Z" fill="#591f12"/>
  </g>
</svg>
