<svg xmlns="http://www.w3.org/2000/svg" width="246" height="54.54" viewBox="0 0 246 54.54">
  <g id="Group_475" data-name="Group 475" transform="translate(-396 -4308.147)">
    <g id="Group_471" data-name="Group 471">
      <path id="Union_10" data-name="Union 10" d="M419.026,4362.158l-1.57.336-1.435-.716-1.6.137-1.334-.888-1.6-.066-1.211-1.049-1.583-.266-1.07-1.191-1.533-.461-.915-1.318-1.466-.651-.741-1.421-1.372-.828-.557-1.5-1.257-1-.363-1.561-1.126-1.144-.164-1.6-.972-1.274.037-1.6-.8-1.389.235-1.586-.622-1.477.434-1.542-.434-1.542.622-1.479-.235-1.585.8-1.387-.037-1.6.972-1.278.164-1.594,1.126-1.143.363-1.56,1.257-1,.557-1.5,1.372-.828.741-1.421,1.466-.651.915-1.317,1.533-.459,1.07-1.193,1.583-.266,1.211-1.048,1.6-.066,1.28-.854v-2.961a3.225,3.225,0,0,1,3.226-3.226h5.885a3.227,3.227,0,0,1,3.228,3.226v2.962l1.279.853,1.6.066,1.212,1.048,1.581.266,1.072,1.193,1.533.459.914,1.317,1.466.651.741,1.421,1.372.828.557,1.5,1.256,1,.365,1.56,1.126,1.143.164,1.594.971,1.278-.036,1.6.8,1.387-.236,1.585.623,1.479-.435,1.542.435,1.542-.623,1.477.236,1.586-.8,1.389.036,1.6-.971,1.274-.164,1.6-1.126,1.144-.365,1.561-1.256,1-.557,1.5-1.372.828-.741,1.421-1.466.651-.914,1.318-1.533.461-1.072,1.191-1.581.266-1.212,1.049-1.6.066-1.334.888-1.6-.137-1.436.716-1.569-.336-1.513.529Zm-21.958-24.05a23.47,23.47,0,1,0,23.471-23.466A23.47,23.47,0,0,0,397.067,4338.108Zm20.089-25.846a4.374,4.374,0,0,0,.581.641.779.779,0,0,0,.431.237,1.68,1.68,0,0,0,.717-.409l.152-.117a3.489,3.489,0,0,1-1.256-.834l-.315-.307.16-.152c.27-.255.469-.434.593-.533a6.205,6.205,0,0,1,.585-.412l-.477-.317-.007,0a.451.451,0,0,0-.164-.084c-.108,0-.315.151-.623.453a6.2,6.2,0,0,0-.552.6l-.187.243.019-.607a1.652,1.652,0,0,1,.047-.392.82.82,0,0,1,.117-.249h-1.205a1.11,1.11,0,0,1,.166.641v1.786a1.089,1.089,0,0,1-.166.641h1.205a.845.845,0,0,1-.122-.261c-.023-.148-.038-.263-.043-.346l-.019-.454.109-.085Zm4.476.873.428-.507-.439-.385.482-.6-.494-.387-.465.564-.369-.315a.872.872,0,0,0,.488-.707.687.687,0,0,0-.268-.565.939.939,0,0,0-.609-.2,1.069,1.069,0,0,0-.659.2.7.7,0,0,0-.305.6.909.909,0,0,0,.343.625.807.807,0,0,0-.511.767.8.8,0,0,0,.3.646,1.027,1.027,0,0,0,.688.236,1.333,1.333,0,0,0,.937-.375Zm2.631-1.283v.593a1.089,1.089,0,0,1-.168.641H425.3a1.093,1.093,0,0,1-.165-.641v-1.786a1.129,1.129,0,0,1,.165-.641H424.1a1.11,1.11,0,0,1,.168.641v.453h-.909v-.453a1.129,1.129,0,0,1,.164-.641h-1.2a1.11,1.11,0,0,1,.165.641v1.786a1.089,1.089,0,0,1-.165.641h1.2a1.093,1.093,0,0,1-.164-.641v-.593Zm-26.785,26.256a23.061,23.061,0,1,1,23.061,23.055A23.089,23.089,0,0,1,397.478,4338.108Zm.419,0a22.639,22.639,0,1,0,22.639-22.634A22.637,22.637,0,0,0,397.9,4338.108Zm9.4,0a13.243,13.243,0,1,1,13.243,13.238A13.239,13.239,0,0,1,407.294,4338.108Zm.411,0a12.833,12.833,0,1,0,12.832-12.83A12.846,12.846,0,0,0,407.7,4338.108Zm4.313,6.174a3.3,3.3,0,0,1-1.7-2.5c-.019-.617.374-1.12,1.158-1.55a4.452,4.452,0,0,1,3.976.225,12.267,12.267,0,0,1,1.792.934,15.659,15.659,0,0,0,2.522,1.455,6.578,6.578,0,0,0,5.264.056c-.5,2.277-2.278,3.453-5.264,3.545q-.212.005-.422.005A12.467,12.467,0,0,1,412.017,4344.282Zm8.158-2.127a12.813,12.813,0,0,1-1.738-.934,14.569,14.569,0,0,0-2.426-1.455,6.229,6.229,0,0,0-5.115-.057c.5-2.276,2.2-3.452,5.115-3.526a11.909,11.909,0,0,1,7.488,2.166,3.32,3.32,0,0,1,1.661,2.5,1.732,1.732,0,0,1-1.12,1.529,3.222,3.222,0,0,1-1.544.377A5.456,5.456,0,0,1,420.175,4342.155Zm1.774-5.692a8.622,8.622,0,0,0,3.416-1.662,4.641,4.641,0,0,1,4.331-.634c.821.279,1.178.728,1.027,1.362-.411,1.848-2.146,3.08-5.133,3.732A7.13,7.13,0,0,0,421.949,4336.462Zm-3.492-.821a1.768,1.768,0,0,1-.8-1.064,2.341,2.341,0,0,1,1.176-2.333,10.682,10.682,0,0,1,5.825-1.922,8.491,8.491,0,0,1,2.24.187c2.258.522,3.417,1.641,3.51,3.34a7.152,7.152,0,0,0-1.568-.485,5.492,5.492,0,0,0-4.239.97,10.531,10.531,0,0,1-2.78,1.4,8.106,8.106,0,0,1-1.721.207A4.159,4.159,0,0,1,418.457,4335.641Zm14.626-7.347a1.033,1.033,0,0,1-.362-.252c-.09-.081-.218-.2-.391-.369s-.3-.289-.383-.368c-.138-.124-.269-.248-.4-.371l-.418-.4c-.089-.084-.188-.168-.291-.253l-.273-.216a1.9,1.9,0,0,0,.921-.615l1.654-1.836a3.309,3.309,0,0,0,.948-1.513l.143.144.242.223,1.9,1.709c.093.086.113.159.058.22l-.046.05a.419.419,0,0,0-.046.063l-.631.8a1.934,1.934,0,0,0-.353-.452l-.725-.65-.507.563.7.63c.031.025.082.061.147.106a.716.716,0,0,0,.071.04l-.814.9-.129-.146-.117-.1-.632-.569-.657.727.905.816a2.345,2.345,0,0,0,.546.365l-.769.608a.558.558,0,0,1-.279.151Zm-25.512-1.132-1.935-2.389a1.921,1.921,0,0,0-.913-.68l1.613-1.3a1.432,1.432,0,0,0,.111.457,2.891,2.891,0,0,0,.361.576l.635.834-.012-.528a10.126,10.126,0,0,1,.087-1.4,2.485,2.485,0,0,1,.342-1.283.817.817,0,0,1,.313-.065h.013l.982-.094a10.24,10.24,0,0,0-.332,1.185c-.065.269-.136.723-.22,1.357l-.05.378.755.065a5.986,5.986,0,0,0,2.587-.245l-.077.323a2.9,2.9,0,0,1-.52,1.325,1.336,1.336,0,0,1-.833.15,7.528,7.528,0,0,1-1.473-.226l-.684-.163-.056.235.517.591c.1.1.24.243.434.413a1.429,1.429,0,0,0,.443.218l-1.612,1.306A1.881,1.881,0,0,0,407.571,4327.162Zm5.262-2.988a4.808,4.808,0,0,1-.234-2.1,6.147,6.147,0,0,1,.621-2.159,4.908,4.908,0,0,0-.847.393c-.1.056-.208.122-.322.194.061-.278.111-.536.145-.771a5.564,5.564,0,0,0,.061-.6l.195-.039.3-.09,1.952-.635a6.764,6.764,0,0,1,1.925,1.788,9.206,9.206,0,0,1,1.426,2.678l-1.629.529a2.309,2.309,0,0,0-.129-.689,4.084,4.084,0,0,0-.382-.835l-1.836.6a1.593,1.593,0,0,0,.031.375,4.708,4.708,0,0,0,.151.55c.056.173.094.287.117.343l.12.287-1.544.5Zm1.523-4.512a4.925,4.925,0,0,0-.259.828,3.713,3.713,0,0,0-.067.76l1.316-.429a3.7,3.7,0,0,0-.935-1.176Zm12.867,4.7-.361-5.14a3.92,3.92,0,0,0-.206-1l1.782.794a1.215,1.215,0,0,0-.045.353c0,.035,0,.09.008.165l.069,2.588,2.031-1.739c.022-.019.056-.051.1-.094l.061-.065.127-.16,1.755.782a4.979,4.979,0,0,0-.96.543l-4.14,3.067Zm-5.114-1.388a1.867,1.867,0,0,0,.362-1.08l.072-1.023-1.559-.109-.071,1.024a1.871,1.871,0,0,0,.206,1.119l-2.07-.146a1.876,1.876,0,0,0,.36-1.08l.215-3.069a1.9,1.9,0,0,0-.206-1.119l2.07.145a1.927,1.927,0,0,0-.36,1.08l-.056.781,1.558.107.055-.777a1.893,1.893,0,0,0-.207-1.12l2.07.144a1.938,1.938,0,0,0-.356,1.082l-.217,3.068a1.874,1.874,0,0,0,.2,1.12Zm-2.059-10.6a.329.329,0,0,1-.123-.263.361.361,0,0,1,.2-.3l.572.513a.553.553,0,0,1-.377.146A.425.425,0,0,1,420.049,4312.369Zm.069-1.582a.208.208,0,0,1,.083-.177.3.3,0,0,1,.193-.062.259.259,0,0,1,.185.073.244.244,0,0,1,.079.183c0,.117-.09.237-.268.36C420.209,4311.022,420.118,4310.9,420.118,4310.787Z" fill="#f2f2f2"/>
      <g id="Group_470" data-name="Group 470">
        <g id="Group_468" data-name="Group 468">
          <path id="Path_1013" data-name="Path 1013" d="M405.246,4341.572l.717,1.79a1.79,1.79,0,0,0-1.05.135l-.674.27.54,1.348.674-.27a1.772,1.772,0,0,0,.853-.626l.717,1.79a1.8,1.8,0,0,0-1.05.136l-2.654,1.063a1.739,1.739,0,0,0-.853.626l-.717-1.79a1.739,1.739,0,0,0,1.05-.136l.884-.353-.54-1.348-.884.353a1.734,1.734,0,0,0-.853.627l-.717-1.79a1.747,1.747,0,0,0,1.049-.136l2.655-1.063A1.775,1.775,0,0,0,405.246,4341.572Z" fill="#f2f2f2"/>
          <path id="Path_1014" data-name="Path 1014" d="M408.383,4347.732l.112.143.2.215,1.34,1.357a6.253,6.253,0,0,1-.682,2.344,8.581,8.581,0,0,1-1.63,2.3l-1.118-1.132a2.2,2.2,0,0,0,.518-.4,3.737,3.737,0,0,0,.534-.665l-1.262-1.277a1.436,1.436,0,0,0-.3.182,4.213,4.213,0,0,0-.393.354c-.12.119-.2.2-.235.242l-.188.22-1.062-1.075.218-.235a4.451,4.451,0,0,1,1.644-1.068,5.732,5.732,0,0,1,2.052-.386,4.509,4.509,0,0,0-.68-.54c-.088-.059-.187-.121-.3-.186q.385-.1.7-.2Q408.137,4347.839,408.383,4347.732Zm.44,1.963a4.435,4.435,0,0,0-.8.128,3.529,3.529,0,0,0-.66.261l.906.917a3.47,3.47,0,0,0,.587-1.269Z" fill="#f2f2f2"/>
          <path id="Path_1015" data-name="Path 1015" d="M414.048,4355.1l.045.273a3.483,3.483,0,0,0,.316.952,3.25,3.25,0,0,0,.546.828c-.161.009-.389.034-.685.077a1.9,1.9,0,0,1-.85,0q-.522-.226-.621-2l-.019-.348-.058-.025-.085-.037-.183-.1-.317.73a1.721,1.721,0,0,0-.154,1.051l-1.724-.75a1.735,1.735,0,0,0,.651-.835l1.14-2.621a1.7,1.7,0,0,0,.166-1.061l.416.211.367.167q.054.024.612.247l.529.212a1.775,1.775,0,0,1,1.009.885,1.6,1.6,0,0,1-1.1,2.132Zm-1.174-1.333.067.037.186.1a.775.775,0,0,0,.535.085.458.458,0,0,0,.325-.287.491.491,0,0,0-.014-.446.755.755,0,0,0-.42-.349l-.122-.053-.14-.042Z" fill="#f2f2f2"/>
          <path id="Path_1016" data-name="Path 1016" d="M417.768,4353.507l1.51-.05,1.716,3.039,1.519-3.147,1.4-.046a1.794,1.794,0,0,0-.23,1.033l.1,2.858a1.736,1.736,0,0,0,.3,1.015l-1.893.063a1.375,1.375,0,0,0,.181-.42,2.8,2.8,0,0,0,.051-.558l0-.055.033-1.844-1.416,3-.087,0-1.6-2.853.129,1.789q.008.129.033.354a1.536,1.536,0,0,0,.265.662l-1.84.061a1.777,1.777,0,0,0,.226-1.033l-.1-2.858A1.765,1.765,0,0,0,417.768,4353.507Z" fill="#f2f2f2"/>
          <path id="Path_1017" data-name="Path 1017" d="M426.33,4352.257l.168-.069.263-.136,1.671-.918a6.27,6.27,0,0,1,2.069,1.3,8.583,8.583,0,0,1,1.766,2.2l-1.394.767a2.23,2.23,0,0,0-.239-.607,3.781,3.781,0,0,0-.493-.7l-1.574.865a1.4,1.4,0,0,0,.094.337,4.155,4.155,0,0,0,.233.475q.121.222.168.292l.161.241-1.325.728-.166-.274a4.441,4.441,0,0,1-.578-1.874,5.718,5.718,0,0,1,.189-2.079,4.54,4.54,0,0,0-.7.506c-.082.069-.168.147-.26.235.007-.266.007-.509,0-.73C426.37,4352.62,426.354,4352.434,426.33,4352.257Zm2.009.113a4.43,4.43,0,0,0-.1.8,3.491,3.491,0,0,0,.071.706l1.13-.621a3.466,3.466,0,0,0-1.06-.912Z" fill="#f2f2f2"/>
          <path id="Path_1018" data-name="Path 1018" d="M431.068,4349.386l1.025-1.4,3.624-.1-1.486-1.087a1.783,1.783,0,0,0-.983-.392l1.122-1.534a1.791,1.791,0,0,0,.671.818l2.482,1.815.179.132.145.1q.039.029.366.2l-.764,1.044-4,.114,1.726,1.262a1.727,1.727,0,0,0,.983.392l-1.126,1.54a1.743,1.743,0,0,0-.671-.818l-2.308-1.688A1.771,1.771,0,0,0,431.068,4349.386Z" fill="#f2f2f2"/>
          <path id="Path_1019" data-name="Path 1019" d="M435.105,4343.354l.854-1.782a1.793,1.793,0,0,0,.81.68l2.579,1.235a1.73,1.73,0,0,0,1.038.2l-.853,1.783a1.749,1.749,0,0,0-.811-.68l-2.579-1.235A1.779,1.779,0,0,0,435.105,4343.354Z" fill="#f2f2f2"/>
        </g>
        <g id="Group_469" data-name="Group 469">
          <path id="Path_1020" data-name="Path 1020" d="M436.536,4339.927a.648.648,0,0,0-.333.387.622.622,0,0,0-.032.248.636.636,0,0,0,.067.24.659.659,0,0,0,.385.334.622.622,0,0,0,.246.028.721.721,0,0,0,.248-.067.686.686,0,0,0,.2-.157.621.621,0,0,0,.123-.222.6.6,0,0,0,.03-.25.654.654,0,0,0-.066-.247.642.642,0,0,0-.156-.2.654.654,0,0,0-.225-.124.675.675,0,0,0-.253-.033A.637.637,0,0,0,436.536,4339.927Zm.453.081a.518.518,0,0,1,.185.1.5.5,0,0,1,.128.165.531.531,0,0,1,.055.2.542.542,0,0,1-.026.2.542.542,0,0,1-.468.366.536.536,0,0,1-.2-.026.549.549,0,0,1-.184-.1.528.528,0,0,1-.186-.364.54.54,0,0,1,.026-.205.516.516,0,0,1,.1-.185.508.508,0,0,1,.169-.129.484.484,0,0,1,.195-.054A.543.543,0,0,1,436.989,4340.008Z" fill="#f2f2f2"/>
          <path id="Path_1021" data-name="Path 1021" d="M436.382,4340.656l.678.232.064-.187-.271-.091.02-.055.314-.035.069-.205-.35.049a.218.218,0,0,0-.033-.129.2.2,0,0,0-.272-.052.41.41,0,0,0-.126.2Zm.2-.2a.177.177,0,0,1,.057-.093.087.087,0,0,1,.082-.008.092.092,0,0,1,.035.022.063.063,0,0,1,.02.032.151.151,0,0,1-.009.1l-.023.065-.181-.06Z" fill="#f2f2f2"/>
        </g>
      </g>
    </g>
    <g id="Group_474" data-name="Group 474">
      <g id="Group_472" data-name="Group 472">
        <path id="Path_1022" data-name="Path 1022" d="M469.01,4332.346h1l-7.229,6.49,7.243,8.575h-.912l-6.9-8.141-2.23,1.985v6.156h-.71v-20.9h.71v13.849H460Z" fill="#f2f2f2"/>
        <path id="Path_1023" data-name="Path 1023" d="M470.98,4343.413c0-2.564,1.825-4.013,5.3-4.3l5.432-.406v-1.362a4.188,4.188,0,0,0-4.534-4.563c-2.8,0-4.592,1.435-4.983,3.955H471.5c.333-2.854,2.491-4.606,5.678-4.606,3.245,0,5.244,1.97,5.244,5.157v10.125h-.71v-3.419H481.7a5.923,5.923,0,0,1-5.751,3.636C473.037,4347.628,470.98,4345.9,470.98,4343.413Zm10.734-1.55v-2.535l-5.331.406c-3.042.231-4.693,1.521-4.693,3.679,0,2.057,1.825,3.563,4.3,3.563C479.15,4346.976,481.714,4344.688,481.714,4341.863Z" fill="#f2f2f2"/>
        <path id="Path_1024" data-name="Path 1024" d="M485.828,4326.508h.71v9.372h.029a5.342,5.342,0,0,1,5.331-3.751,5.231,5.231,0,0,1,5.562,5.533v9.749h-.71v-9.705a4.635,4.635,0,0,0-4.939-4.926c-3.086,0-5.273,2.3-5.273,5.592v9.039h-.71Z" fill="#f2f2f2"/>
        <path id="Path_1025" data-name="Path 1025" d="M505.76,4347.411h-.985l-5.707-15.065h.768l5.417,14.384h.029l5.418-14.384h.768Z" fill="#f2f2f2"/>
        <path id="Path_1026" data-name="Path 1026" d="M525.186,4343.225c-.507,2.535-2.738,4.4-6.113,4.4-4.042,0-6.664-2.853-6.664-7.75,0-4.678,2.608-7.749,6.548-7.749,3.853,0,6.417,2.926,6.417,7.242v.551H513.133v.029c0,4.461,2.362,7.025,5.954,7.025,3,0,4.911-1.622,5.36-3.751Zm-12.038-3.955h11.5c0-3.853-2.289-6.49-5.693-6.49C515.6,4332.78,513.307,4335.373,513.148,4339.27Z" fill="#f2f2f2"/>
      </g>
      <g id="Group_473" data-name="Group 473">
        <path id="Path_1027" data-name="Path 1027" d="M528.939,4326.509h5.027v8.1h.1a4.924,4.924,0,0,1,4.94-3.274c3.52,0,5.476,2.231,5.476,5.953v10.126h-5.128v-9.01c0-1.782-.884-2.883-2.579-2.883-1.724,0-2.694,1.231-2.694,3v8.894h-5.143Z" fill="#f2f2f2"/>
        <path id="Path_1028" data-name="Path 1028" d="M546.293,4342.849c0-2.955,2.275-4.607,6.359-4.853l3.694-.217v-.9c0-1.26-.9-1.956-2.245-1.956a2.189,2.189,0,0,0-2.419,1.7h-4.621c.145-3.23,2.9-5.36,7.3-5.36,4.215,0,7.011,2.159,7.011,5.331v10.821h-5v-2.245h-.1a5.281,5.281,0,0,1-4.679,2.477C548.669,4347.644,546.293,4345.7,546.293,4342.849Zm10.053-1.1v-1.086l-2.868.188c-1.347.1-2.1.724-2.1,1.651,0,1,.825,1.608,2.042,1.608C554.985,4344.109,556.346,4343.153,556.346,4341.748Z" fill="#f2f2f2"/>
        <path id="Path_1029" data-name="Path 1029" d="M563.821,4331.637h5v2.984h.1c.579-2.129,1.854-3.216,3.708-3.216a3.744,3.744,0,0,1,1.3.2v4.375a4.6,4.6,0,0,0-1.637-.29c-2.158,0-3.332,1.217-3.332,3.419v8.3h-5.142Z" fill="#f2f2f2"/>
        <path id="Path_1030" data-name="Path 1030" d="M575.482,4331.637h5v3.042h.1a4.6,4.6,0,0,1,4.505-3.346,4.1,4.1,0,0,1,4.389,3.36h.1a4.884,4.884,0,0,1,4.868-3.36,5.016,5.016,0,0,1,5.185,5.374v10.705h-5.142v-9.4c0-1.652-.768-2.506-2.216-2.506a2.254,2.254,0,0,0-2.26,2.549v9.358H585.1v-9.459c0-1.579-.782-2.448-2.187-2.448a2.3,2.3,0,0,0-2.289,2.578v9.329h-5.142Z" fill="#f2f2f2"/>
        <path id="Path_1031" data-name="Path 1031" d="M601.44,4342.849c0-2.955,2.274-4.607,6.359-4.853l3.694-.217v-.9c0-1.261-.9-1.956-2.245-1.956a2.189,2.189,0,0,0-2.419,1.7h-4.621c.145-3.23,2.9-5.36,7.3-5.36,4.215,0,7.011,2.159,7.011,5.331v10.821h-5v-2.245h-.1a5.281,5.281,0,0,1-4.679,2.477C603.816,4347.644,601.44,4345.7,601.44,4342.849Zm10.053-1.1v-1.087l-2.868.189c-1.347.1-2.1.724-2.1,1.651,0,1,.825,1.608,2.042,1.608C610.132,4344.109,611.493,4343.153,611.493,4341.748Z" fill="#f2f2f2"/>
        <path id="Path_1032" data-name="Path 1032" d="M618.968,4331.637h5v2.969h.1a4.854,4.854,0,0,1,4.881-3.273c3.52,0,5.476,2.2,5.476,5.953v10.126H629.3v-9.025c0-1.8-.855-2.868-2.535-2.868a2.664,2.664,0,0,0-2.651,2.97v8.923h-5.142Z" fill="#f2f2f2"/>
        <path id="Path_1033" data-name="Path 1033" d="M636.872,4331.637H642v15.775h-5.128Z" fill="#f2f2f2"/>
      </g>
    </g>
  </g>
</svg>
