<svg xmlns="http://www.w3.org/2000/svg" width="50.349" height="32" viewBox="0 0 50.349 32">
  <g id="Group_463" data-name="Group 463" transform="translate(-1323.667 -4135.02)">
    <g id="Group_461" data-name="Group 461">
      <path id="Path_995" data-name="Path 995" d="M1348.332,4159.083a.812.812,0,0,1-.58-.244l-7.117-7.249a.793.793,0,0,1-.166-.244h0a.807.807,0,0,1-.067-.306h0v0h0V4151h0v0h0a.815.815,0,0,1,.066-.3h0a.782.782,0,0,1,.166-.246l7.116-7.249a.813.813,0,1,1,1.161,1.14l-5.758,5.865h13.314a.813.813,0,1,1,0,1.627h-13.314l5.759,5.865a.814.814,0,0,1-.581,1.384Z" fill="#591f12"/>
    </g>
    <g id="Group_462" data-name="Group 462">
      <path id="Path_996" data-name="Path 996" d="M1358.016,4167.02h-18.35a16,16,0,0,1,0-32h18.35a16,16,0,0,1,0,32Zm-18.35-30.373a14.373,14.373,0,0,0,0,28.746h18.35a14.373,14.373,0,0,0,0-28.746Z" fill="#591f12"/>
    </g>
  </g>
</svg>
