<svg xmlns="http://www.w3.org/2000/svg" width="50.349" height="32" viewBox="0 0 50.349 32">
  <g id="Group_466" data-name="Group 466" transform="translate(-1395.984 -4135.02)">
    <g id="Group_464" data-name="Group 464">
      <path id="Path_997" data-name="Path 997" d="M1421.668,4159.083a.812.812,0,0,0,.58-.244l7.117-7.249a.793.793,0,0,0,.166-.244h0a.807.807,0,0,0,.067-.306h0v0h0V4151h0v0h0a.815.815,0,0,0-.066-.3h0a.782.782,0,0,0-.166-.246l-7.116-7.249a.813.813,0,1,0-1.161,1.14l5.758,5.865h-13.314a.813.813,0,1,0,0,1.627h13.314l-5.759,5.865a.814.814,0,0,0,.581,1.384Z" fill="#591f12"/>
    </g>
    <g id="Group_465" data-name="Group 465">
      <path id="Path_998" data-name="Path 998" d="M1395.984,4151.02a16.019,16.019,0,0,1,16-16h18.35a16,16,0,0,1,0,32h-18.35A16.018,16.018,0,0,1,1395.984,4151.02Zm16-14.373a14.373,14.373,0,0,0,0,28.746h18.35a14.373,14.373,0,0,0,0-28.746Z" fill="#591f12"/>
    </g>
  </g>
</svg>
