<svg xmlns="http://www.w3.org/2000/svg" width="22.914" height="20.001" viewBox="0 0 22.914 20.001">
  <g id="Group_486" data-name="Group 486" transform="translate(-1585.268 -121.814)">
    <path id="Path_1074" data-name="Path 1074" d="M1606.413,132.114a6.028,6.028,0,0,0,0-8.531h0a6.051,6.051,0,0,0-8.55,0l-1.15,1.151-1.15-1.151a6.028,6.028,0,0,0-8.531,0,5.953,5.953,0,0,0-1.764,4.276,6.07,6.07,0,0,0,1.764,4.275l9.681,9.681Zm-19.631-4.255a4.408,4.408,0,0,1,1.323-3.183,4.489,4.489,0,0,1,6.365,0l2.243,2.224,2.243-2.243a4.5,4.5,0,0,1,7.687,3.182,4.408,4.408,0,0,1-1.322,3.183l-8.608,8.627-8.608-8.608A4.552,4.552,0,0,1,1586.782,127.859Z" fill="#591f12"/>
  </g>
</svg>
