<svg xmlns="http://www.w3.org/2000/svg" width="28.271" height="39.5" viewBox="0 0 28.271 39.5">
  <g id="Group_430" data-name="Group 430" transform="translate(-508.563 -3462.177)">
    <path id="Path_932" data-name="Path 932" d="M535.357,3501.676H510.04a1.477,1.477,0,0,1-1.477-1.477v-21.8a1.478,1.478,0,0,1,1.477-1.478h25.317a1.478,1.478,0,0,1,1.477,1.478v21.8A1.477,1.477,0,0,1,535.357,3501.676Zm-23.839-2.955h22.361v-18.848H511.518Z" fill="#591f12"/>
    <path id="Path_933" data-name="Path 933" d="M522.7,3492.089a4.581,4.581,0,1,1,4.581-4.581A4.581,4.581,0,0,1,522.7,3492.089Zm0-6.206a1.625,1.625,0,1,0,1.626,1.625A1.625,1.625,0,0,0,522.7,3485.883Z" fill="#591f12"/>
    <path id="Path_934" data-name="Path 934" d="M522.7,3495.667a1.477,1.477,0,0,1-1.477-1.477v-3.579a1.478,1.478,0,1,1,2.955,0v3.579A1.477,1.477,0,0,1,522.7,3495.667Z" fill="#591f12"/>
    <path id="Path_935" data-name="Path 935" d="M531.58,3479.873H513.824a1.478,1.478,0,0,1-1.478-1.478v-5.964a10.356,10.356,0,0,1,20.712,0v5.964A1.478,1.478,0,0,1,531.58,3479.873Zm-16.278-2.956h14.8v-4.486a7.4,7.4,0,0,0-14.8,0Z" fill="#591f12"/>
  </g>
</svg>
