<svg xmlns="http://www.w3.org/2000/svg" width="41.422" height="49.188" viewBox="0 0 41.422 49.188">
  <g id="Group_435" data-name="Group 435" transform="translate(-944.567 -3458)">
    <g id="Group_434" data-name="Group 434">
      <path id="Path_943" data-name="Path 943" d="M967.167,3503.549l5.525-1.778v-1.416l-5.525,1.778Z" fill="#591f12"/>
      <path id="Path_944" data-name="Path 944" d="M967.167,3500.956l5.525-1.778v-1.416l-5.525,1.778Z" fill="#591f12"/>
      <path id="Path_945" data-name="Path 945" d="M985.322,3483.451h0a2.641,2.641,0,0,0-1.2-.767l-17.534-5.3a4.467,4.467,0,0,0-2.606,0l-17.536,5.3a2.646,2.646,0,0,0-1.2.767h0a2.638,2.638,0,0,0-.668,1.753v13.943a2.62,2.62,0,0,0,1.87,2.521l17.531,5.324a4.472,4.472,0,0,0,1.31.2.736.736,0,0,0,.18-.025l0,.018a4.425,4.425,0,0,0,1.132-.188l17.547-5.33a2.62,2.62,0,0,0,1.856-2.516V3485.2A2.637,2.637,0,0,0,985.322,3483.451Zm-20.741,22.264c-.069-.016-.138-.034-.206-.055l-17.533-5.325a1.234,1.234,0,0,1-.882-1.188V3485.2a1.235,1.235,0,0,1,.094-.472l18.148,5.513.066.02.313.1Zm.7-16.6-17.611-5.349,16.713-5.051a3.077,3.077,0,0,1,1.8,0l16.711,5.051-5.486,1.667h0l-8.2-2.473a.479.479,0,0,0-.276,0l-4.135,1.174a.255.255,0,0,0,0,.489l7.685,2.31Zm19.318,10.032a1.232,1.232,0,0,1-.871,1.184l-17.546,5.329c-.067.021-.136.04-.205.056V3490.36l7.674-2.331v5.7a.491.491,0,0,0,.623.475l3.973-1.094a.493.493,0,0,0,.361-.475v-5.959a1.273,1.273,0,0,0-.009-.151h0l6-1.822Z" fill="#591f12"/>
    </g>
    <path id="Path_946" data-name="Path 946" d="M972.25,3459.5v6H952.495l5.377-5.378L955.75,3458l-9,9,9,9,2.122-2.123-5.377-5.377H975.25v-9Z" fill="#591f12"/>
  </g>
</svg>
