<svg xmlns="http://www.w3.org/2000/svg" width="40.991" height="41" viewBox="0 0 40.991 41">
  <g id="g10" transform="translate(-1166.039 -3461.905)">
    <g id="path957">
      <path id="Path_941" data-name="Path 941" d="M1186.546,3502.905a20.461,20.461,0,0,1-10.083-2.657l-7.134,2.557a1.176,1.176,0,0,1-1.476-1.578l2.633-6.051a20.5,20.5,0,0,1,16.007-33.271h.032a20.61,20.61,0,0,1,14.688,6.2,20.5,20.5,0,0,1-14.667,34.8Zm-10.213-5.28a1.177,1.177,0,0,1,.622.176,18.138,18.138,0,1,0,9.572-33.543h-.029a18.146,18.146,0,0,0-13.75,29.958,1.178,1.178,0,0,1,.185,1.236l-1.835,4.216,4.26-1.525c.015-.023.03-.044.047-.066A1.176,1.176,0,0,1,1176.333,3497.625Zm10.162-34.544h0Z" fill="#591f12"/>
    </g>
    <g id="path959">
      <path id="Path_942" data-name="Path 942" d="M1186.134,3487.906a1.279,1.279,0,0,1-.193-.014,1.2,1.2,0,0,1-.975-1.372,5.372,5.372,0,0,1,1.9-2.708c2.748-2.319,3.077-3.383,3.171-4.2a3.331,3.331,0,0,0-1.652-3.292,4.183,4.183,0,0,0-4.231.514,2.805,2.805,0,0,0-1.058,2.988,1.177,1.177,0,0,1-2.3.514,5.139,5.139,0,0,1,1.91-5.358,6.538,6.538,0,0,1,6.736-.76c1.137.573,3.029,2.055,2.94,5.558-.191,1.718-.924,3.241-4,5.832a4.1,4.1,0,0,0-1.107,1.329A1.145,1.145,0,0,1,1186.134,3487.906Z" fill="#591f12"/>
    </g>
    <g id="path961">
      <circle id="Ellipse_47" data-name="Ellipse 47" cx="1.101" cy="1.101" r="1.101" transform="translate(1184.81 3489.161)" fill="#591f12"/>
    </g>
  </g>
</svg>
