<svg xmlns="http://www.w3.org/2000/svg" width="25.589" height="25.59" viewBox="0 0 25.589 25.59">
  <g id="Group_454" data-name="Group 454" transform="translate(-1285.951 -4339.122)">
    <path id="Path_988" data-name="Path 988" d="M1298.745,4345.261a6.6,6.6,0,1,0,6.6,6.6A6.616,6.616,0,0,0,1298.745,4345.261Zm0,10.835a4.231,4.231,0,1,1,4.231-4.231A4.25,4.25,0,0,1,1298.745,4356.1Z" fill="#fff"/>
    <circle id="Ellipse_50" data-name="Ellipse 50" cx="1.496" cy="1.496" r="1.496" transform="translate(1304.111 4343.61)" fill="#fff"/>
    <path id="Path_989" data-name="Path 989" d="M1309.477,4341.237a7.352,7.352,0,0,0-5.418-2.115h-10.627a7.067,7.067,0,0,0-7.481,7.481v10.576a7.423,7.423,0,0,0,2.167,5.521,7.53,7.53,0,0,0,5.365,2.012h10.525a7.623,7.623,0,0,0,5.417-2.012,7.389,7.389,0,0,0,2.115-5.469V4346.6A7.4,7.4,0,0,0,1309.477,4341.237Zm-.207,15.994a5.04,5.04,0,0,1-1.5,3.766,5.333,5.333,0,0,1-3.766,1.341h-10.525a5.333,5.333,0,0,1-3.766-1.341,5.185,5.185,0,0,1-1.393-3.818V4346.6a5.141,5.141,0,0,1,1.393-3.766,5.246,5.246,0,0,1,3.766-1.342h10.628a5.143,5.143,0,0,1,3.766,1.393,5.325,5.325,0,0,1,1.393,3.715v10.628Z" fill="#fff"/>
  </g>
</svg>
