<svg xmlns="http://www.w3.org/2000/svg" width="15.392" height="15.392" viewBox="0 0 15.392 15.392">
  <g id="Group_93" data-name="Group 93" transform="translate(-6660.891 -991.302)">
    <path id="Path_234" data-name="Path 234" d="M6668.587,994.995a3.972,3.972,0,1,0,3.972,3.972A3.98,3.98,0,0,0,6668.587,994.995Zm0,6.517a2.545,2.545,0,1,1,2.544-2.545A2.557,2.557,0,0,1,6668.587,1001.512Z" fill="#591f12"/>
    <circle id="Ellipse_6" data-name="Ellipse 6" cx="0.9" cy="0.9" r="0.9" transform="translate(6671.814 994.002)" fill="#591f12"/>
    <path id="Path_235" data-name="Path 235" d="M6675.041,992.574a4.421,4.421,0,0,0-3.258-1.272h-6.393a4.251,4.251,0,0,0-4.5,4.5v6.361a4.466,4.466,0,0,0,1.3,3.321,4.529,4.529,0,0,0,3.228,1.21h6.33a4.578,4.578,0,0,0,3.258-1.21,4.442,4.442,0,0,0,1.273-3.29V995.8A4.449,4.449,0,0,0,6675.041,992.574Zm-.124,9.62a3.033,3.033,0,0,1-.9,2.266,3.209,3.209,0,0,1-2.265.807h-6.33a3.214,3.214,0,0,1-2.266-.807,3.125,3.125,0,0,1-.838-2.3V995.8a3.1,3.1,0,0,1,.838-2.266,3.161,3.161,0,0,1,2.266-.806h6.392a3.094,3.094,0,0,1,2.265.837,3.2,3.2,0,0,1,.838,2.235v6.392Z" fill="#591f12"/>
  </g>
</svg>
