<svg xmlns="http://www.w3.org/2000/svg" width="230" height="26.604" viewBox="0 0 230 26.604">
  <g id="Group_484" data-name="Group 484" transform="translate(-845 -156.962)">
    <g id="Group_482" data-name="Group 482">
      <path id="Path_1058" data-name="Path 1058" d="M857.253,164.31h1.258l-9.1,8.169,9.116,10.794h-1.148l-8.68-10.247-2.808,2.5v7.749H845V156.962h.893v17.431h.019Z" fill="#591f12"/>
      <path id="Path_1059" data-name="Path 1059" d="M859.733,178.24c0-3.227,2.3-5.05,6.673-5.415l6.838-.511V170.6c0-3.573-2.134-5.743-5.707-5.743-3.519,0-5.78,1.805-6.273,4.978h-.875c.419-3.592,3.136-5.8,7.148-5.8,4.084,0,6.6,2.48,6.6,6.492v12.745h-.893v-4.3h-.019c-.911,2.7-3.865,4.576-7.238,4.576C862.322,183.546,859.733,181.376,859.733,178.24Zm13.511-1.951V173.1l-6.71.511c-3.829.292-5.908,1.915-5.908,4.631,0,2.589,2.3,4.486,5.415,4.486C870.016,182.726,873.244,179.845,873.244,176.289Z" fill="#591f12"/>
      <path id="Path_1060" data-name="Path 1060" d="M878.422,156.962h.893v11.8h.037a6.724,6.724,0,0,1,6.71-4.723,6.585,6.585,0,0,1,7,6.966v12.271h-.894V171.056a5.833,5.833,0,0,0-6.218-6.2c-3.883,0-6.637,2.9-6.637,7.038v11.378h-.893Z" fill="#591f12"/>
      <path id="Path_1061" data-name="Path 1061" d="M903.511,183.273h-1.24l-7.184-18.963h.967l6.819,18.106h.037l6.819-18.106h.966Z" fill="#591f12"/>
      <path id="Path_1062" data-name="Path 1062" d="M927.962,178c-.638,3.191-3.446,5.543-7.694,5.543-5.087,0-8.388-3.592-8.388-9.755,0-5.889,3.282-9.755,8.242-9.755,4.85,0,8.077,3.683,8.077,9.117v.693H912.792v.036c0,5.616,2.972,8.844,7.494,8.844,3.774,0,6.181-2.042,6.747-4.723Zm-15.152-4.978h14.478c0-4.85-2.881-8.168-7.166-8.168C915.892,164.857,913.011,168.121,912.81,173.025Z" fill="#591f12"/>
    </g>
    <g id="Group_483" data-name="Group 483">
      <path id="Path_1063" data-name="Path 1063" d="M932.688,156.963h6.327v10.192h.127a6.2,6.2,0,0,1,6.218-4.12c4.431,0,6.892,2.808,6.892,7.494v12.745H945.8V171.933c0-2.243-1.112-3.629-3.245-3.629-2.17,0-3.392,1.55-3.392,3.774v11.2h-6.472Z" fill="#591f12"/>
      <path id="Path_1064" data-name="Path 1064" d="M954.531,177.53c0-3.719,2.863-5.8,8.005-6.108l4.649-.274v-1.13c0-1.586-1.13-2.462-2.826-2.462-1.75,0-2.863.912-3.045,2.134H955.5c.182-4.066,3.646-6.747,9.189-6.747,5.306,0,8.825,2.717,8.825,6.71v13.621h-6.29v-2.826h-.128a6.647,6.647,0,0,1-5.889,3.118C957.522,183.566,954.531,181.122,954.531,177.53Zm12.654-1.386v-1.367l-3.61.237c-1.7.128-2.644.912-2.644,2.079,0,1.258,1.04,2.024,2.571,2.024C965.471,179.117,967.185,177.913,967.185,176.144Z" fill="#591f12"/>
      <path id="Path_1065" data-name="Path 1065" d="M976.594,163.417h6.29v3.757h.128c.729-2.681,2.334-4.048,4.668-4.048a4.7,4.7,0,0,1,1.641.255v5.507a5.778,5.778,0,0,0-2.061-.365c-2.716,0-4.193,1.531-4.193,4.3v10.448h-6.473Z" fill="#591f12"/>
      <path id="Path_1066" data-name="Path 1066" d="M991.272,163.417h6.29v3.829h.128a5.8,5.8,0,0,1,5.671-4.211c2.953,0,4.959,1.531,5.524,4.23h.128a6.149,6.149,0,0,1,6.126-4.231c3.884,0,6.528,2.736,6.528,6.765v13.475h-6.473V171.44c0-2.078-.966-3.154-2.79-3.154-1.75,0-2.844,1.258-2.844,3.209v11.779h-6.181V171.367c0-1.987-.985-3.081-2.753-3.081-1.751,0-2.881,1.294-2.881,3.245v11.743h-6.473Z" fill="#591f12"/>
      <path id="Path_1067" data-name="Path 1067" d="M1023.946,177.53c0-3.719,2.863-5.8,8.005-6.108l4.649-.274v-1.13c0-1.586-1.13-2.462-2.826-2.462-1.75,0-2.863.912-3.045,2.134h-5.816c.182-4.066,3.646-6.747,9.189-6.747,5.306,0,8.825,2.717,8.825,6.71v13.621h-6.29v-2.826h-.128a6.647,6.647,0,0,1-5.889,3.117C1026.937,183.565,1023.946,181.122,1023.946,177.53Zm12.654-1.386v-1.367l-3.61.237c-1.7.128-2.644.912-2.644,2.079,0,1.258,1.039,2.023,2.571,2.023C1034.886,179.116,1036.6,177.913,1036.6,176.144Z" fill="#591f12"/>
      <path id="Path_1068" data-name="Path 1068" d="M1046.009,163.417h6.29v3.738h.128a6.112,6.112,0,0,1,6.145-4.121c4.43,0,6.892,2.772,6.892,7.494v12.746h-6.455v-11.36c0-2.261-1.076-3.61-3.191-3.61-2.06,0-3.336,1.55-3.336,3.738v11.232h-6.473Z" fill="#591f12"/>
      <path id="Path_1069" data-name="Path 1069" d="M1068.545,163.417H1075v19.857h-6.455Z" fill="#591f12"/>
    </g>
  </g>
</svg>
