<svg xmlns="http://www.w3.org/2000/svg" viewBox="0 0 68.64 63.82"><defs><style>.cls-1{fill:#fff;}</style></defs><g id="Layer_2" data-name="Layer 2"><g id="Layer_1-2" data-name="Layer 1"><path class="cls-1" d="M50.83,23.32l-1.1-.9a3.09,3.09,0,0,0-2-.7,2.91,2.91,0,0,0-1.11-1.8l-1.1-.9a4.11,4.11,0,0,0-5.4.2l-.7.6a3.69,3.69,0,0,0-1.19,2.3,4.18,4.18,0,0,0-4,.9l-.7.6a3.85,3.85,0,0,0-1.2,3,3.77,3.77,0,0,0-3,1.1l-.7.6a3.93,3.93,0,0,0-1.2,3.1v.3h-.3a4.23,4.23,0,0,0-2.8,1.9l-.5.8a3.84,3.84,0,0,0-.3,3.6,3.79,3.79,0,0,0-2.3,1.8,5.12,5.12,0,0,0,1.1,6.7l1.6,1.3a3,3,0,0,0,1.9.7h0a2.89,2.89,0,0,0,1.1,1.8l1.6,1.3a4.8,4.8,0,0,0,3.2,1.1,5,5,0,0,0,3.5-1.4,3.73,3.73,0,0,0,1.2-2.6c.2,0,.4.1.6.1a4.3,4.3,0,0,0,2.8-1.1l.7-.6a3.93,3.93,0,0,0,1.2-3.1v-.3H42a4.23,4.23,0,0,0,2.8-1.9l.5-.8a4.49,4.49,0,0,0,.5-3.2,3.81,3.81,0,0,0,2.6-1.8l.5-.8a4,4,0,0,0,.1-4.1,3.71,3.71,0,0,0,2-1.7l.5-.8A3.79,3.79,0,0,0,50.83,23.32Zm-9.6-1.7.69-.6a1.82,1.82,0,0,1,2.4-.1l1.1.9a.56.56,0,0,1,.31.5.73.73,0,0,1-.2.6l-1.8,2.2a.72.72,0,0,1-1.11.1l-1.2-.9a2.08,2.08,0,0,1-.69-1.3A1.39,1.39,0,0,1,41.23,21.62Zm-5.9,3.9.7-.6a1.81,1.81,0,0,1,2.39-.1l2.7,2.2a.72.72,0,0,1,.11,1.1l-1.81,2.2a.55.55,0,0,1-.5.3.76.76,0,0,1-.6-.2l-2.8-2.3a2.09,2.09,0,0,1-.7-1.3A1.41,1.41,0,0,1,35.33,25.52Zm-4.9,4.7.7-.6a1.85,1.85,0,0,1,1.2-.5,1.5,1.5,0,0,1,1.1.4l3.4,2.7a.71.71,0,0,1,.1,1.1l-1.8,2.2a.71.71,0,0,1-1.1.1l-3.5-2.8a2,2,0,0,1-.7-1.3A1.94,1.94,0,0,1,30.43,30.22Zm-4.5,5.7.5-.8a2,2,0,0,1,1.2-.8h.3a1.5,1.5,0,0,1,1.1.4l3.5,2.8a.71.71,0,0,1,.1,1.1l-1.8,2.2a.71.71,0,0,1-1.1.1l-3.4-2.7A1.86,1.86,0,0,1,25.93,35.92Zm-2,9a2.8,2.8,0,0,1-.6-3.7,2,2,0,0,1,1.2-.8,1.46,1.46,0,0,1,1.39.4l2.4,1.9a.71.71,0,0,1,.1,1.1L26.62,46a.71.71,0,0,1-1.1.1Zm9.9,4.9a2.76,2.76,0,0,1-3.7.2h0l-1.6-1.3a.83.83,0,0,1-.11-1.2l1.81-2.2a.83.83,0,0,1,.6-.3.76.76,0,0,1,.5.2l2.4,1.9a2.08,2.08,0,0,1,.69,1.3A1.92,1.92,0,0,1,33.83,49.82Zm5.3-4.4-.7.6a1.82,1.82,0,0,1-2.4.1l-1-.8h0l-2.4-1.9a.82.82,0,0,1-.1-1.2l1.8-2.2a.79.79,0,0,1,1.1-.1l3.5,2.8a2.09,2.09,0,0,1,.7,1.3A1.47,1.47,0,0,1,39.13,45.42Zm4.5-5.7-.5.8a2,2,0,0,1-1.2.8,1.49,1.49,0,0,1-1.4-.4L37,38.12a.55.55,0,0,1-.3-.5.73.73,0,0,1,.2-.6l1.8-2.2a.86.86,0,0,1,.6-.3.76.76,0,0,1,.5.2l2.8,2.3h0l.6.5A1.7,1.7,0,0,1,43.63,39.72Zm3.6-5.7-.5.8a2,2,0,0,1-1.2.8,1.49,1.49,0,0,1-1.4-.4l-2.8-2.3a.55.55,0,0,1-.3-.5.73.73,0,0,1,.2-.6l1.8-2.2a.79.79,0,0,1,1.1-.1l1.2.9h0l1.5,1.3A1.81,1.81,0,0,1,47.23,34Zm2.6-6.6-.5.8a2,2,0,0,1-1.2.8,1.49,1.49,0,0,1-1.4-.4l-1.2-.9a.55.55,0,0,1-.3-.5.73.73,0,0,1,.2-.6l1.8-2.2a.86.86,0,0,1,.6-.3.76.76,0,0,1,.5.2l1.1.9A1.56,1.56,0,0,1,49.83,27.42Z"/><path class="cls-1" d="M68.63,14a4.83,4.83,0,0,0-1.8-3.5l-5-3.9-4.2-3.4a4.73,4.73,0,0,0-3.8-1,4.79,4.79,0,0,0-3.3,2.1c-.11.1-.11.2-.2.2L48.83,2a3.82,3.82,0,0,0-2.7-1.9,4.36,4.36,0,0,0-3.5.7A16.52,16.52,0,0,1,33,4.42c-12.61.3-23.5,4.8-29,12-2.9,3.7-3.9,7.8-3.11,11.3a11,11,0,0,1-.69,4.5,3,3,0,0,0,0,2.3,3.09,3.09,0,0,0,2.1,1.2l.5.1a5.6,5.6,0,0,1,3,.9,12.19,12.19,0,0,0,8.1,2.7h.9c-1.1,4.3-.9,8.2.8,11.1a5.75,5.75,0,0,1,.2,5.8l-.2.4a2.9,2.9,0,0,0-.3,3.5c0,.1,0,.2.1.2a5.78,5.78,0,0,0,4.4,3.4h.5a3.63,3.63,0,0,0,2.8-1.2l.5-.4c.8-.7,1-.6,2.2-.1a11.64,11.64,0,0,0,1.5.6A20.59,20.59,0,0,0,44.73,60c6.5-4.2,14.69-13.9,17.1-35.7.2-.8,2.8-4,5.3-6.6A4.44,4.44,0,0,0,68.63,14ZM7.43,35a8.1,8.1,0,0,0-4.2-1.4l-.5-.1c-.2,0-.3-.1-.4-.1s0-.1.1-.3c.5-1.2,1.3-4.1.8-5.9-.7-2.8.3-6.3,2.7-9.4,5.1-6.7,15.3-10.9,27.3-11.2a18.61,18.61,0,0,0,10.8-4,2.09,2.09,0,0,1,1.7-.4,1.59,1.59,0,0,1,1.2.9l2,3.3a24.39,24.39,0,0,1-3.7,4.3c-16.8,6.1-26.3,17.5-29.5,26.2C12.33,37.42,9.43,36.72,7.43,35Zm58.3-18.9c-.2.2-5.7,5.9-5.9,7.9-1.7,16.3-7.4,28.4-16.1,34a18.16,18.16,0,0,1-15.5,2.5c-.5-.2-.9-.3-1.31-.5-1.3-.6-2.69-1.2-4.6.4l-.6.5a.1.1,0,0,0-.1.1,1.62,1.62,0,0,1-1.4.5,2.93,2.93,0,0,1-1-.3,3.13,3.13,0,0,0,1.1-.9l.5-.4a5.67,5.67,0,0,1,5.4-1.2c3.6,1.2,7.7.6,11.7-1.6,8.1-4.4,15.1-14.7,18.4-27a1.14,1.14,0,1,0-2.2-.6c-3.1,11.7-9.7,21.5-17.3,25.6-3.5,1.9-6.9,2.4-9.9,1.4a8,8,0,0,0-7.5,1.6l-.6.5a.1.1,0,0,0-.1.1c-.4.5-.8.6-1.1.3s-.3-.7.1-1.1c0-.1.1-.1.1-.2l.3-.5a8.42,8.42,0,0,0-.2-8c-1.6-2.8-1.6-6.9.1-11.4,3-8.2,12-19.1,28.2-25,1.8-.7,6.2-7.1,6.4-7.4a2.45,2.45,0,0,1,1.8-1.1,2.62,2.62,0,0,1,1.5.2c.1.1.1.2.2.3l4.5,3.5,2,1.6a2.75,2.75,0,0,1,1,1.9,3.06,3.06,0,0,1-.7,2c-.4.4-.9.9-1.5,1.4-2.2,2.1-5,4.7-5.6,7.4a1.14,1.14,0,0,0,2.2.6c.5-2.1,3.1-4.5,5-6.3a20.59,20.59,0,0,1,1.6-1.5,4.56,4.56,0,0,0,1.3-2.9,2.49,2.49,0,0,1,.8,1.7A5.54,5.54,0,0,1,65.73,16.12Z"/><path class="cls-1" d="M35.73,9.82a1.13,1.13,0,0,0-1.2-1.1c-17,.5-27,8.7-29.2,16.1a1.14,1.14,0,0,0,.8,1.4h.3a1.17,1.17,0,0,0,1.1-.8c1.9-6.7,11.3-14.1,27.1-14.5A1,1,0,0,0,35.73,9.82Z"/></g></g></svg>