<svg id="Layer_1" xmlns="http://www.w3.org/2000/svg" viewBox="0 0 50 40"><style>.st0{fill:#010101}</style><path class="st0" d="M-3.5 30.4h-30.7c-.4 0-.8.4-.8.8s.4.8.8.8h30.7c.4 0 .8-.4.8-.8s-.4-.8-.8-.8zM19.7 30.4H-.4c-.4 0-.8.4-.8.8s.3.8.8.8h20.1c.4 0 .8-.4.8-.8s-.4-.8-.8-.8zM70.6 30.4H23.8c-.4 0-.8.4-.8.8s.4.8.8.8h46.8c.4 0 .8-.4.8-.8s-.3-.8-.8-.8zM84.2 30.4H72.9c-.4 0-.8.4-.8.8s.4.8.8.8h11.3c.4 0 .8-.4.8-.8s-.3-.8-.8-.8z"/><g><path class="st0" d="M34 15.3c-.5 0-.8.4-.8.8v4c0 .5.4.8.8.8h5.7c.5 0 .8-.4.8-.8 0-.2-.1-.3-.2-.5l-2.9-4c-.2-.2-.4-.3-.7-.3H34zm4 4h-3.2V17h1.6l1.6 2.3z"/><path class="st0" d="M43.1 19.8c-.1-.2-.1-.3-.2-.3l-4.4-6.1c-.2-.2-.4-.3-.7-.3h-5.3v-2.4c0-1.4-1.2-2.6-2.6-2.6H9.5c-1.4 0-2.6 1.2-2.6 2.6V25c0 1.4 1.2 2.6 2.6 2.6H12c.4 1.5 1.9 2.7 3.5 2.7 1.7 0 3.1-1.1 3.5-2.7h14.4c.4 1.5 1.9 2.7 3.5 2.7s3.1-1.1 3.5-2.7h.6c1.2 0 2.2-1 2.2-2.2v-5.2c-.1-.1-.1-.3-.1-.4zm-25.5 6.8c0 1.1-.9 2-2 2s-2-.9-2-2 .9-2 2-2c1.1-.1 2 .8 2 2zm13.3-.7H19.2c-.3-1.7-1.8-3-3.6-3s-3.3 1.3-3.6 3H9.5c-.5 0-1-.4-1-1V10.6c0-.5.4-1 1-1h20.4c.5 0 1 .4 1 1v15.3zm6.2 2.7c-1.1 0-2-.9-2-2s.9-2 2-2 2 .9 2 2-.9 2-2 2zm4.4-3.2c0 .3-.2.5-.5.5h-.3c-.3-1.7-1.8-3-3.6-3s-3.3 1.3-3.6 3h-1V14.7h4.9l4.1 5.6v5.1z"/><path class="st0" d="M28.4 13.8s-.1 0 0 0h-8.1c-.5 0-.8.4-.8.8 0 .5.4.8.8.8h8.1c.5 0 .8-.4.8-.8s-.4-.8-.8-.8zM28.4 17.5s-.1 0 0 0H16.6c-.5 0-.8.4-.8.8 0 .5.4.8.8.8h11.8c.5 0 .8-.4.8-.8 0-.5-.4-.8-.8-.8zM15.4 25.3h.5v.5h-.5zM15.4 27.4h.5v.5h-.5zM16.5 26.3h.5v.5h-.5zM14.4 26.3h.5v.5h-.5z"/><path transform="rotate(-45.001 16.392 25.807)" class="st0" d="M16.2 25.6h.5v.5h-.5z"/><path transform="rotate(-45.001 14.907 27.292)" class="st0" d="M14.7 27h.5v.5h-.5z"/><path transform="rotate(-45.001 16.392 27.292)" class="st0" d="M16.2 27h.5v.5h-.5z"/><path transform="rotate(-45.001 14.907 25.807)" class="st0" d="M14.7 25.6h.5v.5h-.5z"/><path class="st0" d="M36.9 25.3h.5v.5h-.5zM36.9 27.4h.5v.5h-.5zM38 26.3h.5v.5H38zM35.9 26.3h.5v.5h-.5z"/><path transform="rotate(-45.001 37.892 25.807)" class="st0" d="M37.7 25.6h.5v.5h-.5z"/><path transform="rotate(-45.001 36.407 27.292)" class="st0" d="M36.2 27h.5v.5h-.5z"/><path transform="rotate(-45.001 37.892 27.292)" class="st0" d="M37.7 27h.5v.5h-.5z"/><path transform="rotate(-45.001 36.407 25.807)" class="st0" d="M36.2 25.6h.5v.5h-.5z"/></g></svg>