<svg xmlns="http://www.w3.org/2000/svg" width="18.403" height="14" viewBox="0 0 18.403 14">
  <g id="Group_179" data-name="Group 179" transform="translate(-4998.841 -556.679)">
    <ellipse id="Ellipse_11" data-name="Ellipse 11" cx="1.846" cy="1.813" rx="1.846" ry="1.813" transform="translate(5001.245 567.053)" fill="#999"/>
    <path id="Path_374" data-name="Path 374" d="M4998.841,558.535v9.04c0,1.059.565,1.857,1.315,1.857h.119a2.773,2.773,0,0,1-.058-.566,2.874,2.874,0,0,1,5.748,0,2.808,2.808,0,0,1-.058.566h3.837a2.87,2.87,0,1,1,5.69-.566,2.783,2.783,0,0,1-.058.567h.882a.909.909,0,0,0,.779-.565,2.019,2.019,0,0,0,.207-.906l0-3.24a.53.53,0,0,0-.1-.3l-1.9-2.724c-.731-.857-3.178-1.055-4.709-1.095v-2.066c0-1.058-.566-1.856-1.316-1.856h-9.068C4999.406,556.679,4998.841,557.477,4998.841,558.535Zm13.259,3.515a4.823,4.823,0,0,1,2.436.682l.894,1.284.432.821c.113.214-.513.4-.613.4H5012.2c-.1,0-.18-.2-.18-.437v-2.042C5012.016,562.513,5012,562.05,5012.1,562.05Z" fill="#999"/>
    <ellipse id="Ellipse_12" data-name="Ellipse 12" cx="1.846" cy="1.813" rx="1.846" ry="1.813" transform="translate(5010.714 567.053)" fill="#999"/>
  </g>
</svg>
