<?xml version="1.0" encoding="utf-8"?>
<!-- Generator: Adobe Illustrator 21.0.2, SVG Export Plug-In . SVG Version: 6.00 Build 0)  -->
<svg version="1.1" id="Layer_1" xmlns="http://www.w3.org/2000/svg" xmlns:xlink="http://www.w3.org/1999/xlink" x="0px" y="0px"
	 viewBox="0 0 74 120" style="enable-background:new 0 0 74 120;" xml:space="preserve">
<style type="text/css">
	.st0{fill:#FFFFFF;}
</style>
<path class="st0" d="M53.3206406,34.6816292c-7.4875717,0-13.1488991,3.1654739-16.314373,8.8876801
	c-2.8002281-5.0525856-7.5484409-8.1571846-13.8185196-8.7659302H23.126873
	c-0.7913685-0.0608749-1.6436119-0.1217499-2.4958553-0.1217499c-0.4869957,0-1.0348682,0-1.5218639,0.0608749
	c-0.1826229,0-0.3043728,0-0.4869957,0.0608749c-0.3652458,0.0608749-0.6696186,0.0608749-1.0348663,0.1217499
	c-0.1826229,0-0.3652477,0.0608749-0.4869957,0.0608749c-0.3652477,0.0608749-0.7304955,0.1217461-1.0957413,0.182621
	c-0.1217499,0-0.2434978,0.0608749-0.3652477,0.0608749c0,0,0,0-0.0608749,0l0,0
	C1.2120402,38.8819695-2.9883022,58.1791992,9.0039797,71.5107193c1.9479847,2.1914825,7.304944,7.7310638,14.8533869,15.4621353
	c0.060873,0.1217422,0.1826229,0.1826248,0.3043728,0.3043671c0.1217499,0.1217499,0.2434978,0.2434998,0.4261208,0.4261246l0,0
	c2.4958553,2.5567245,5.0525856,5.1743317,7.5484428,7.7310638c1.8262329,1.8871078,3.5915947,3.6524734,4.1394653,4.2003403
	c0.4869957,0.4869995,1.2174911,0.4869995,1.6436119,0c0.5478745-0.5478668,2.3132324-2.3132324,4.139473-4.2003403
	c2.7393532-2.8002319,5.5395813-5.6613388,8.2180595-8.4615631c7.426693-7.6701889,12.7836533-13.2706451,14.7316322-15.4621277
	C78.2791977,56.7790833,71.7047424,34.6816292,53.3206406,34.6816292z M25.3183537,61.527298
	c-0.6696186,0-1.1566162,0.5478706-1.1566162,1.1566162v21.3669586c-2.6784782-2.739357-4.9917107-5.1743317-7.0005703-7.244072
	V62.6839142c0-0.6696205-0.5478706-1.1566162-1.1566162-1.1566162h-10.34867
	c-0.791369-2.3132324-1.2783651-4.6873398-1.2783651-7.0005722h11.6879101c0.6696205,0,1.1566162-0.5478706,1.1566162-1.1566162
	V37.3601074c0.1217499,0,0.2434978-0.0608749,0.3652477-0.0608749c0.3043709-0.0608749,0.6087437-0.0608749,0.8522415-0.1217461
	c0.2434978,0,0.4261227-0.0608749,0.6696205-0.0608749c0.5478706-0.0608749,1.0957413-0.0608749,1.6436138-0.0608749
	c0.5478706,0,1.0957413,0,1.64361,0.0608749c0.1217499,0,0.1826248,0,0.3043728,0
	c0.4869957,0.0608749,0.9739914,0.1217461,1.4609909,0.182621h0.060873v16.0100021
	c0,0.6696205,0.5478725,1.1566162,1.1566162,1.1566162h44.3166656c-0.0608749,2.3132324-0.4869995,4.6873398-1.2783661,7.0005722
	H25.3183537V61.527298z M35.9105225,46.7956581c0.3652458,0.9739952,1.7653618,0.9739952,2.1914825,0
	c2.4958534-6.2700729,7.7310638-9.7399216,15.2186356-9.7399216c9.5572968,0,15.4621277,6.8179474,16.2534943,15.1577568H26.5358448
	V37.8471031C30.9188099,39.2472191,34.1451607,42.2909431,35.9105225,46.7956581z M14.8479347,37.968853v14.1837654H4.4383903
	C5.0471354,45.6999207,8.7604818,40.1603355,14.8479347,37.968853z M6.6298738,63.8405266h8.2180614v10.531292
	c-1.8871107-2.0088577-3.2872238-3.469841-4.0785933-4.3829651C9.0039797,68.0408707,7.6647406,65.971138,6.6298738,63.8405266z
	 M63.243187,69.9888535c-1.8871117,2.1306152-7.244072,7.6701965-14.731636,15.4012604
	c-2.6784821,2.7393494-5.4787064,5.6613312-8.2180634,8.4615555c-1.2174873,1.2783661-2.4349785,2.4958572-3.2872238,3.3480988
	c-0.7913666-0.8522415-2.0088577-2.0697327-3.2872238-3.3480988c-2.3741093-2.4349823-4.8090897-4.9308319-7.244072-7.4266891
	V63.8405266h40.9076843C66.3477859,65.971138,65.0085449,68.0408707,63.243187,69.9888535z"/>
</svg>
