<svg xmlns="http://www.w3.org/2000/svg" viewBox="0 0 83.84 73.58"><defs><style>.cls-1{fill:#fff;}</style></defs><g id="Layer_2" data-name="Layer 2"><g id="Layer_1-2" data-name="Layer 1"><path class="cls-1" d="M23.1,9.28H15.4a1.32,1.32,0,0,0-1.3,1.3v7.7a1.32,1.32,0,0,0,1.3,1.3h7.7a1.32,1.32,0,0,0,1.3-1.3v-7.7A1.32,1.32,0,0,0,23.1,9.28Zm-1.3,2.6V17H16.7v-5.1Z"/><path class="cls-1" d="M29.9,19.58h7.7a1.32,1.32,0,0,0,1.3-1.3v-7.7a1.32,1.32,0,0,0-1.3-1.3H29.9a1.32,1.32,0,0,0-1.3,1.3v7.7A1.26,1.26,0,0,0,29.9,19.58Zm6.4-7.7V17H31.2v-5.1Z"/><path class="cls-1" d="M23.1,22.88H15.4a1.32,1.32,0,0,0-1.3,1.3v7.7a1.32,1.32,0,0,0,1.3,1.3h7.7a1.32,1.32,0,0,0,1.3-1.3v-7.7A1.32,1.32,0,0,0,23.1,22.88Zm-1.3,2.6v5.1H16.7v-5.1Z"/><path class="cls-1" d="M29.9,33.18h7.7a1.32,1.32,0,0,0,1.3-1.3v-7.7a1.32,1.32,0,0,0-1.3-1.3H29.9a1.32,1.32,0,0,0-1.3,1.3v7.7a1.37,1.37,0,0,0,1.3,1.3Zm6.4-7.7v5.1H31.2v-5.1Z"/><path class="cls-1" d="M23.1,36.48H15.4a1.32,1.32,0,0,0-1.3,1.3v7.7a1.32,1.32,0,0,0,1.3,1.3h7.7a1.32,1.32,0,0,0,1.3-1.3v-7.7A1.26,1.26,0,0,0,23.1,36.48Zm-1.3,2.6v5.1H16.7v-5.1Z"/><path class="cls-1" d="M29.9,46.78h7.7a1.32,1.32,0,0,0,1.3-1.3v-7.7a1.32,1.32,0,0,0-1.3-1.3H29.9a1.32,1.32,0,0,0-1.3,1.3v7.7A1.32,1.32,0,0,0,29.9,46.78Zm6.4-7.7v5.1H31.2v-5.1Z"/><path class="cls-1" d="M65.9,36.28a2.09,2.09,0,0,0-1.6-.8H61.1l-1.4-2.1a1.94,1.94,0,0,0-1.4-.9l-3.9-.6-1-2.2a2,2,0,0,0-1.6-1.2l-4.5-.6-2.5-3.1V7.68a2.88,2.88,0,0,0-.9-2.1,3.12,3.12,0,0,0-2.1-.9H11.2a2.88,2.88,0,0,0-2.1.9,3.12,3.12,0,0,0-.9,2.1v39.1l-.6-.3a2.06,2.06,0,0,0-1.5-.3,2.39,2.39,0,0,0-1.4.5,15.15,15.15,0,0,0-4.6,6.8,1.75,1.75,0,0,0,.3,1.7,1.66,1.66,0,0,0,1.6.6,33.2,33.2,0,0,1,6.3-.2v15a2.88,2.88,0,0,0,.9,2.1,3.12,3.12,0,0,0,2.1.9H41.9a2.88,2.88,0,0,0,2.1-.9,3.12,3.12,0,0,0,.9-2.1V70l22.8-29.3a1.83,1.83,0,0,0,0-2.4ZM44.7,54.58a43.28,43.28,0,0,1,8.1-1.8,1.77,1.77,0,0,0,1.4-1.1,1.74,1.74,0,0,0-.4-1.8,17.91,17.91,0,0,0-5.6-3.8,2.66,2.66,0,0,0-2.3.1c-.4.2-.7.4-1.1.6v-13l.6.3a8.8,8.8,0,0,0,2.9,1.8,7,7,0,0,1,2.3,1.5,5.55,5.55,0,0,1,.6.8,1.38,1.38,0,0,0,.3.4,6.59,6.59,0,0,0,3.8,2.1,1.85,1.85,0,0,1,.7.2c1.9.6,2.8,1.3,2.9,1.6a3.91,3.91,0,0,0,1,1.6,3.75,3.75,0,0,0,1.2.7L44.7,65.88Zm12-16.3a3.55,3.55,0,0,0-1-.2A3.86,3.86,0,0,1,53.5,37c-.1-.1-.1-.2-.2-.3a10.59,10.59,0,0,0-1-1.2,11,11,0,0,0-3.1-2,5.64,5.64,0,0,1-2-1.1,4.2,4.2,0,0,0-2.5-1.2v-2.4l.7.8a1.71,1.71,0,0,0,1.3.7l4.4.6,1,2.2a2.2,2.2,0,0,0,1.6,1.2l3.9.6,1.4,2.2a2,2,0,0,0,1.7.9h3.2l1.1,1.4-2.3,3c-.5-.1-1.3-.2-1.5-.7C60.9,39.78,58.6,38.78,56.7,38.28ZM10.9,55.88a17.64,17.64,0,0,1,7.5,3.4,2.72,2.72,0,0,0,1.7.6h0a2.82,2.82,0,0,0,1.5-.4,12.61,12.61,0,0,1,5-1.5,35,35,0,0,1,8.3,1.2,2.83,2.83,0,0,0,2.5-.6,19.47,19.47,0,0,1,4.8-3v14.9c0,.1,0,.2-.1.2a.31.31,0,0,1-.2.1H11.3a.27.27,0,0,1-.3-.3V55.88Zm24.6.8a30.9,30.9,0,0,0-9.1-1.3,14.41,14.41,0,0,0-6.3,1.9H20c-1.6-1.3-6.3-4.4-14.1-4.4a27.15,27.15,0,0,0-2.8.1,12.11,12.11,0,0,1,3.2-4.3h.1c2.4,1.3,9.3,4.5,20,4.5a47,47,0,0,0,17.4-3.1h.1c1.1-.4,2.1-.9,3.2-1.4a14.48,14.48,0,0,1,3.4,2,47.27,47.27,0,0,0-7.4,1.9c-.1,0-.2.1-.3.1A18.78,18.78,0,0,0,35.5,56.68ZM10.9,7.58a.27.27,0,0,1,.3-.3H41.8a.27.27,0,0,1,.3.3v40.3a43.71,43.71,0,0,1-15.6,2.6,41.7,41.7,0,0,1-15.6-2.7Z"/><path class="cls-1" d="M83.4,23.38,69.7,1.28A3,3,0,0,0,68,.08a2.77,2.77,0,0,0-2,.3L49.7,10.58a1.33,1.33,0,0,0-.6,1,1.27,1.27,0,0,0,.5,1.1l2.8,2.4-.5,1.3a1.5,1.5,0,0,0,.1,1.3,1.37,1.37,0,0,0,1,.8l3.7,1.2.1,2a1.69,1.69,0,0,0,.9,1.4l3.3,1.5.9,4.5a1.72,1.72,0,0,0,1,1.2l3,1.2.4,2a1.53,1.53,0,0,0,1.6,1.3h1.6a1.85,1.85,0,0,0,.7-.2l12.4-7.8a3,3,0,0,0,1.2-1.7A2.35,2.35,0,0,0,83.4,23.38Zm-16.1-21,.2.3,13.7,22.2h0l-12.1,7.5h-.4l-.3-1.8a1.55,1.55,0,0,0-1-1.2l-3.1-1.2-.9-4.5a1.44,1.44,0,0,0-.9-1.1l-3.2-1.5L59.2,19a1.63,1.63,0,0,0-1.1-1.5l-3.4-1.1.4-1a1.73,1.73,0,0,0-.5-1.8l-2-1.7,14.8-9.3-.1-.2Z"/><path class="cls-1" d="M65.3,5.88l-5.6,3.5a1.3,1.3,0,0,0-.4,1.8l3.5,5.6a1.56,1.56,0,0,0,.8.6h.3a1.85,1.85,0,0,0,.7-.2l5.6-3.5a1.56,1.56,0,0,0,.6-.8,1.23,1.23,0,0,0-.2-1l-3.5-5.6A1.53,1.53,0,0,0,65.3,5.88Zm2.4,6.3-3.4,2.1-2.1-3.4,3.4-2.1Z"/><path class="cls-1" d="M66.4,22.68l3.5,5.6a1.25,1.25,0,0,0,1.1.6,1.85,1.85,0,0,0,.7-.2l5.6-3.5a1.56,1.56,0,0,0,.6-.8,1.23,1.23,0,0,0-.2-1l-3.5-5.6a1.3,1.3,0,0,0-1.8-.4l-5.6,3.5A1.53,1.53,0,0,0,66.4,22.68Zm2.9-.3,3.4-2.1,2.1,3.4-3.4,2.1Z"/><path class="cls-1" d="M15,69.48H38.3a2.43,2.43,0,0,0,2.4-2.4v-3a2.43,2.43,0,0,0-2.4-2.4H15a2.43,2.43,0,0,0-2.4,2.4v3A2.43,2.43,0,0,0,15,69.48Zm.2-2.6v-2.7H38.1v2.7Z"/><path class="cls-1" d="M81.8,38l-8.5-1.7a1.64,1.64,0,0,0-1.6.7,1.53,1.53,0,0,0,.2,1.7l5.1,5.8a1.61,1.61,0,0,0,1.1.5,1.38,1.38,0,0,0,1.1-.6l3.2-4.1a1.4,1.4,0,0,0,.2-1.4A1.08,1.08,0,0,0,81.8,38Zm-2.5,2.1L78,41.68l-2-2.2Z"/><path class="cls-1" d="M71.2,41.08a1.32,1.32,0,1,0-2.6.4L69,44a1.3,1.3,0,0,0,1.3,1.1h.2a1.34,1.34,0,0,0,1.1-1.5l-.4-2.5Z"/><path class="cls-1" d="M46.2,22.78l4.7,1.7a.6.6,0,0,0,.4.1,1.09,1.09,0,0,0,.9-.4,1.24,1.24,0,0,0,.3-1.4L50.1,16a1.3,1.3,0,0,0-2.4,0l-2.2,5.1a1.7,1.7,0,0,0,0,1A1.21,1.21,0,0,0,46.2,22.78ZM47.8,21l.9-2.2.8,3.1Z"/></g></g></svg>