<svg xmlns="http://www.w3.org/2000/svg" width="79.141" height="87.955" viewBox="0 0 79.141 87.955">
  <g id="Group_481" data-name="Group 481" transform="translate(-920.429 -61.262)">
    <path id="Union_11" data-name="Union 11" d="M957.56,148.364l-2.532.541-2.314-1.153-2.575.22-2.152-1.432-2.586-.1-1.954-1.692-2.552-.43-1.726-1.921-2.473-.743-1.474-2.125-2.364-1.05-1.2-2.293-2.212-1.334-.9-2.424-2.028-1.607-.585-2.516-1.816-1.845-.264-2.572-1.567-2.057.059-2.583-1.3-2.237.38-2.559-1-2.381.7-2.488-.7-2.488,1-2.384-.38-2.557,1.3-2.236-.059-2.583,1.567-2.059.264-2.57,1.816-1.845.585-2.516,2.028-1.606.9-2.423,2.212-1.336,1.2-2.292,2.364-1.049,1.474-2.125,2.473-.742,1.726-1.924,2.552-.429,1.954-1.691,2.586-.1,2.065-1.378V66.464a5.2,5.2,0,0,1,5.2-5.2h9.49a5.2,5.2,0,0,1,5.206,5.2v4.778l2.062,1.377,2.588.1,1.954,1.691,2.549.429,1.729,1.924,2.473.742,1.473,2.125,2.364,1.049,1.2,2.292,2.212,1.336.9,2.423,2.025,1.606.589,2.516,1.814,1.845.266,2.57,1.564,2.059-.058,2.583,1.3,2.236-.382,2.557,1,2.384-.7,2.488.7,2.488-1,2.381.382,2.559-1.3,2.237.058,2.583-1.564,2.057-.266,2.572-1.814,1.845-.589,2.516-2.025,1.607-.9,2.424-2.212,1.334-1.2,2.293-2.364,1.05-1.473,2.125-2.473.743-1.729,1.921-2.549.43-1.954,1.692-2.588.1-2.15,1.432-2.577-.22-2.316,1.153-2.53-.541-2.44.853ZM922.15,109.578A37.85,37.85,0,1,0,960,71.737,37.848,37.848,0,0,0,922.15,109.578Zm32.4-41.68a7.066,7.066,0,0,0,.939,1.033,1.262,1.262,0,0,0,.695.382,2.713,2.713,0,0,0,1.159-.66l.245-.187a5.618,5.618,0,0,1-2.026-1.347l-.508-.494.257-.244q.655-.62.958-.862a10.405,10.405,0,0,1,.941-.664l-.769-.51-.013-.009a.757.757,0,0,0-.264-.135c-.174,0-.508.243-1.005.733a9.371,9.371,0,0,0-.888.968l-.3.392.031-.981a2.68,2.68,0,0,1,.076-.632,1.258,1.258,0,0,1,.189-.4h-1.943a1.793,1.793,0,0,1,.267,1.032v2.88a1.755,1.755,0,0,1-.267,1.033h1.943a1.33,1.33,0,0,1-.2-.421,5.321,5.321,0,0,1-.07-.556l-.031-.735.179-.136Zm7.22,1.408.69-.817-.707-.623.775-.965-.794-.622-.751.908-.6-.507a1.406,1.406,0,0,0,.787-1.141,1.105,1.105,0,0,0-.431-.912,1.523,1.523,0,0,0-.984-.319,1.731,1.731,0,0,0-1.062.329,1.136,1.136,0,0,0-.491.96,1.473,1.473,0,0,0,.553,1.01,1.35,1.35,0,0,0-.343,2.277,1.668,1.668,0,0,0,1.109.382,2.146,2.146,0,0,0,1.511-.607Zm4.241-2.072v.958a1.742,1.742,0,0,1-.268,1.033h1.944a1.758,1.758,0,0,1-.266-1.033v-2.88a1.82,1.82,0,0,1,.266-1.032h-1.944a1.779,1.779,0,0,1,.268,1.032v.733h-1.464v-.733a1.806,1.806,0,0,1,.266-1.032h-1.943a1.786,1.786,0,0,1,.266,1.032v2.88a1.749,1.749,0,0,1-.266,1.033h1.943a1.745,1.745,0,0,1-.266-1.033v-.958Zm-43.194,42.344A37.188,37.188,0,1,1,960,146.758,37.232,37.232,0,0,1,922.813,109.578Zm.676,0A36.51,36.51,0,1,0,960,73.078,36.506,36.506,0,0,0,923.489,109.578Zm15.154,0A21.357,21.357,0,1,1,960,130.928,21.352,21.352,0,0,1,938.643,109.578Zm.661,0A20.7,20.7,0,1,0,960,88.888,20.717,20.717,0,0,0,939.3,109.578Zm6.955,9.958c-1.807-1.294-2.739-2.65-2.739-4.033-.031-.994.6-1.805,1.866-2.5q2.57-1.354,6.412.362a19.972,19.972,0,0,1,2.892,1.5,25.212,25.212,0,0,0,4.065,2.347c2.467,1.205,5.27,1.234,8.491.092-.815,3.67-3.676,5.568-8.491,5.718q-.337.008-.669.008A20.123,20.123,0,0,1,946.259,119.536Zm13.156-3.431a21.12,21.12,0,0,1-2.8-1.507,23.5,23.5,0,0,0-3.911-2.347c-2.408-1.2-5.117-1.234-8.249-.091.815-3.672,3.554-5.567,8.249-5.688a19.217,19.217,0,0,1,12.074,3.491c1.774,1.3,2.647,2.619,2.679,4.033a2.8,2.8,0,0,1-1.807,2.469,5.185,5.185,0,0,1-2.488.608A8.808,8.808,0,0,1,959.415,116.105Zm2.861-9.18a13.893,13.893,0,0,0,5.509-2.68,7.484,7.484,0,0,1,6.985-1.023c1.326.451,1.9,1.173,1.656,2.2-.662,2.984-3.462,4.968-8.278,6.021A11.492,11.492,0,0,0,962.276,106.925Zm-5.632-1.326a2.857,2.857,0,0,1-1.292-1.715,3.777,3.777,0,0,1,1.9-3.764,17.233,17.233,0,0,1,9.392-3.1,13.794,13.794,0,0,1,3.615.3c3.641.842,5.509,2.649,5.66,5.388a11.391,11.391,0,0,0-2.53-.783,8.859,8.859,0,0,0-6.836,1.565,17,17,0,0,1-4.483,2.257,13.037,13.037,0,0,1-2.775.334A6.726,6.726,0,0,1,956.644,105.6Zm23.587-11.848a1.675,1.675,0,0,1-.585-.405c-.144-.131-.353-.328-.628-.595s-.479-.466-.62-.595c-.223-.2-.434-.4-.638-.6l-.674-.649c-.144-.135-.305-.27-.471-.4l-.439-.35a3.064,3.064,0,0,0,1.484-.991l2.668-2.961a5.344,5.344,0,0,0,1.53-2.441l.231.232.391.361,3.065,2.756c.151.138.182.255.094.355l-.073.08a.628.628,0,0,0-.075.1l-1.016,1.291a3.016,3.016,0,0,0-.57-.728l-1.17-1.05-.816.909,1.131,1.017c.049.04.13.1.236.171.021.012.058.034.115.061l-1.311,1.455-.21-.234-.189-.169-1.019-.918-1.058,1.174,1.46,1.315a3.712,3.712,0,0,0,.879.59l-1.237.982a.885.885,0,0,1-.45.242A.152.152,0,0,1,980.231,93.752ZM939.09,91.926l-3.12-3.853a3.1,3.1,0,0,0-1.473-1.1l2.6-2.1a2.318,2.318,0,0,0,.179.737,4.671,4.671,0,0,0,.581.931l1.025,1.343-.019-.851a16.105,16.105,0,0,1,.139-2.26,3.96,3.96,0,0,1,.551-2.067,1.324,1.324,0,0,1,.5-.105h.022l1.583-.152a16.863,16.863,0,0,0-.536,1.91c-.1.435-.217,1.166-.355,2.19l-.08.61,1.219.107a9.667,9.667,0,0,0,4.172-.4l-.123.519a4.674,4.674,0,0,1-.838,2.135,2.139,2.139,0,0,1-1.345.243A12.276,12.276,0,0,1,941.4,89.4l-1.1-.262-.091.378.833.953c.158.167.387.391.7.666a2.39,2.39,0,0,0,.715.353l-2.6,2.105A3.038,3.038,0,0,0,939.09,91.926Zm8.485-4.819a7.741,7.741,0,0,1-.377-3.38,9.906,9.906,0,0,1,1-3.482,8.059,8.059,0,0,0-1.367.635c-.16.089-.334.193-.518.312.1-.45.178-.864.234-1.244a9.511,9.511,0,0,0,.1-.963l.313-.064.489-.144,3.147-1.024a10.877,10.877,0,0,1,3.1,2.884,14.778,14.778,0,0,1,2.3,4.318l-2.628.851a3.72,3.72,0,0,0-.207-1.11,6.524,6.524,0,0,0-.617-1.347l-2.96.962a2.517,2.517,0,0,0,.049.6,8.073,8.073,0,0,0,.243.887c.091.278.153.462.19.552l.2.464-2.491.809Zm2.457-7.276a7.916,7.916,0,0,0-.42,1.336,6,6,0,0,0-.108,1.225l2.124-.691a5.933,5.933,0,0,0-1.508-1.9Zm20.75,7.574-.581-8.288a6.381,6.381,0,0,0-.333-1.607l2.874,1.281a2.012,2.012,0,0,0-.072.57c0,.057,0,.145.013.266l.112,4.175,3.275-2.8c.035-.031.09-.083.168-.152.036-.038.069-.074.1-.106l.2-.258,2.831,1.262a8.2,8.2,0,0,0-1.55.875l-6.676,4.946Zm-8.247-2.238a3.015,3.015,0,0,0,.584-1.741l.115-1.65L960.72,81.6l-.114,1.649a3.023,3.023,0,0,0,.331,1.806l-3.34-.235a3.023,3.023,0,0,0,.582-1.742l.346-4.949a3.075,3.075,0,0,0-.331-1.8l3.338.234a3.094,3.094,0,0,0-.581,1.74l-.09,1.258,2.514.174.087-1.254a3.044,3.044,0,0,0-.333-1.806l3.337.232a3.136,3.136,0,0,0-.574,1.742l-.349,4.951a3.031,3.031,0,0,0,.329,1.8Zm-3.323-17.1a.53.53,0,0,1-.2-.423.578.578,0,0,1,.328-.487l.922.827a.9.9,0,0,1-.608.237A.681.681,0,0,1,959.212,68.07Zm.112-2.551a.341.341,0,0,1,.132-.285.485.485,0,0,1,.312-.1.406.406,0,0,1,.3.118.382.382,0,0,1,.127.294c0,.19-.145.383-.432.582C959.471,65.9,959.324,65.7,959.324,65.518Z" fill="#a64b29"/>
    <g id="Group_480" data-name="Group 480">
      <g id="Group_478" data-name="Group 478">
        <path id="Path_1049" data-name="Path 1049" d="M935.34,115.164l1.156,2.887a2.9,2.9,0,0,0-1.693.219l-1.087.435.871,2.174,1.087-.435a2.866,2.866,0,0,0,1.376-1.01l1.156,2.887a2.9,2.9,0,0,0-1.693.219l-4.28,1.714a2.789,2.789,0,0,0-1.376,1.01l-1.156-2.886a2.818,2.818,0,0,0,1.692-.22l1.426-.57-.871-2.174-1.425.57a2.8,2.8,0,0,0-1.376,1.01l-1.156-2.887a2.81,2.81,0,0,0,1.692-.219l4.281-1.714A2.859,2.859,0,0,0,935.34,115.164Z" fill="#591f12"/>
        <path id="Path_1050" data-name="Path 1050" d="M940.4,125.1l.181.231.327.347,2.162,2.187a10.114,10.114,0,0,1-1.1,3.781,13.825,13.825,0,0,1-2.629,3.709l-1.8-1.826a3.554,3.554,0,0,0,.836-.636,6.038,6.038,0,0,0,.861-1.073l-2.035-2.06a2.418,2.418,0,0,0-.482.294,6.843,6.843,0,0,0-.632.571c-.2.192-.321.321-.379.39l-.3.354-1.712-1.733.35-.378a7.205,7.205,0,0,1,2.653-1.724,9.254,9.254,0,0,1,3.308-.622,7.331,7.331,0,0,0-1.1-.87q-.215-.144-.478-.3.622-.159,1.131-.322C939.853,125.32,940.134,125.214,940.4,125.1Zm.71,3.166a7.189,7.189,0,0,0-1.285.206,5.715,5.715,0,0,0-1.064.421l1.461,1.479a5.564,5.564,0,0,0,.947-2.047Z" fill="#591f12"/>
        <path id="Path_1051" data-name="Path 1051" d="M949.535,136.984l.071.44a5.652,5.652,0,0,0,.511,1.536,5.247,5.247,0,0,0,.88,1.335q-.389.021-1.1.125a3.091,3.091,0,0,1-1.369,0q-.844-.366-1-3.217l-.032-.562-.092-.04-.138-.06-.295-.153-.512,1.177a2.772,2.772,0,0,0-.248,1.694l-2.779-1.208a2.814,2.814,0,0,0,1.05-1.346l1.838-4.228a2.747,2.747,0,0,0,.268-1.711l.67.341.592.269q.087.038.987.4l.854.341a2.86,2.86,0,0,1,1.627,1.428,2.574,2.574,0,0,1-1.776,3.437Zm-1.894-2.149.109.059.3.155a1.257,1.257,0,0,0,.863.137.738.738,0,0,0,.525-.462.792.792,0,0,0-.024-.719,1.21,1.21,0,0,0-.677-.564l-.2-.085-.227-.068Z" fill="#591f12"/>
        <path id="Path_1052" data-name="Path 1052" d="M955.534,134.412l2.434-.081,2.767,4.9,2.451-5.075,2.265-.075a2.888,2.888,0,0,0-.371,1.666l.153,4.608a2.791,2.791,0,0,0,.48,1.638l-3.052.1a2.223,2.223,0,0,0,.29-.677,4.491,4.491,0,0,0,.084-.9l0-.09.053-2.973L960.8,142.3l-.14,0-2.585-4.6.207,2.885c.009.139.026.329.053.571a2.483,2.483,0,0,0,.428,1.067l-2.968.1a2.857,2.857,0,0,0,.365-1.666l-.153-4.608A2.848,2.848,0,0,0,955.534,134.412Z" fill="#591f12"/>
        <path id="Path_1053" data-name="Path 1053" d="M969.342,132.4l.271-.111.423-.22,2.7-1.481a10.111,10.111,0,0,1,3.337,2.091,13.871,13.871,0,0,1,2.848,3.543l-2.249,1.236a3.571,3.571,0,0,0-.384-.978,6,6,0,0,0-.8-1.123l-2.538,1.395a2.35,2.35,0,0,0,.151.544,6.994,6.994,0,0,0,.376.765q.2.358.272.471l.258.388-2.136,1.174-.268-.441a7.182,7.182,0,0,1-.932-3.023,9.224,9.224,0,0,1,.306-3.351,7.194,7.194,0,0,0-1.137.816c-.131.111-.271.236-.419.377q.018-.642,0-1.176Q969.4,132.825,969.342,132.4Zm3.239.182a7.136,7.136,0,0,0-.153,1.292,5.717,5.717,0,0,0,.114,1.139l1.822-1a5.583,5.583,0,0,0-1.709-1.47Z" fill="#591f12"/>
        <path id="Path_1054" data-name="Path 1054" d="M976.982,127.766l1.654-2.261,5.844-.161-2.4-1.753a2.861,2.861,0,0,0-1.585-.632l1.809-2.474a2.9,2.9,0,0,0,1.083,1.32l4,2.927.289.212.234.155q.063.046.59.322l-1.232,1.685-6.455.182,2.784,2.037a2.8,2.8,0,0,0,1.585.632l-1.816,2.482a2.81,2.81,0,0,0-1.082-1.319l-3.722-2.722A2.857,2.857,0,0,0,976.982,127.766Z" fill="#591f12"/>
        <path id="Path_1055" data-name="Path 1055" d="M983.492,118.039l1.377-2.875a2.89,2.89,0,0,0,1.307,1.1l4.159,1.991a2.794,2.794,0,0,0,1.674.33l-1.376,2.875a2.818,2.818,0,0,0-1.307-1.1l-4.159-1.991A2.868,2.868,0,0,0,983.492,118.039Z" fill="#591f12"/>
      </g>
      <g id="Group_479" data-name="Group 479">
        <path id="Path_1056" data-name="Path 1056" d="M985.8,112.512a1.037,1.037,0,0,0-.332.256,1.079,1.079,0,0,0-.205.368,1.024,1.024,0,0,0-.051.4,1.012,1.012,0,0,0,.108.387,1.054,1.054,0,0,0,.258.333,1.024,1.024,0,0,0,.759.25,1.132,1.132,0,0,0,.4-.109,1.1,1.1,0,0,0,.33-.253,1.009,1.009,0,0,0,.2-.357.98.98,0,0,0,.049-.4,1.073,1.073,0,0,0-.108-.4,1,1,0,0,0-.251-.324,1.063,1.063,0,0,0-.364-.2,1.1,1.1,0,0,0-.407-.052A1.023,1.023,0,0,0,985.8,112.512Zm.73.13a.844.844,0,0,1,.3.167.782.782,0,0,1,.207.267.865.865,0,0,1,.089.323.9.9,0,0,1-.042.33.828.828,0,0,1-.167.293.851.851,0,0,1-.269.206.823.823,0,0,1-.319.09.887.887,0,0,1-.329-.041.9.9,0,0,1-.3-.167.849.849,0,0,1-.211-.271.847.847,0,0,1-.046-.646.85.85,0,0,1,.167-.3.875.875,0,0,1,.272-.209.828.828,0,0,1,.316-.087A.872.872,0,0,1,986.53,112.642Z" fill="#591f12"/>
        <path id="Path_1057" data-name="Path 1057" d="M985.552,113.687l1.094.374.1-.3-.437-.147.031-.089.506-.056.112-.33-.565.078a.351.351,0,0,0-.052-.209.28.28,0,0,0-.162-.122.276.276,0,0,0-.277.039.668.668,0,0,0-.2.325Zm.323-.323a.284.284,0,0,1,.092-.151.138.138,0,0,1,.131-.013.177.177,0,0,1,.058.035.113.113,0,0,1,.031.052.247.247,0,0,1-.014.159l-.037.105-.293-.1Z" fill="#591f12"/>
      </g>
    </g>
  </g>
</svg>
