<svg xmlns="http://www.w3.org/2000/svg" width="52.432" height="22" viewBox="0 0 52.432 22">
  <g id="Group_424" data-name="Group 424" transform="translate(-571.412 -3653.17)">
    <g id="Group_423" data-name="Group 423">
      <rect id="Rectangle_217" data-name="Rectangle 217" width="6.112" height="10.983" transform="translate(594.572 3654.664)" fill="#ff5f00"/>
      <path id="Path_912" data-name="Path 912" d="M594.96,3660.155a6.971,6.971,0,0,1,2.668-5.491,6.984,6.984,0,1,0,0,10.983A6.973,6.973,0,0,1,594.96,3660.155Z" fill="#eb001b"/>
      <path id="Path_913" data-name="Path 913" d="M608.929,3660.155a6.985,6.985,0,0,1-11.3,5.492,6.985,6.985,0,0,0,0-10.983,6.984,6.984,0,0,1,11.3,5.491Zm-.514,4.622v-.468h.188v-.1h-.481v.1h.189v.468Zm.934,0v-.565H609.2l-.17.389-.169-.389h-.148v.565h.1v-.426l.159.367h.108l.16-.368v.427Z" fill="#f79e1b"/>
    </g>
    <path id="Path_914" data-name="Path 914" d="M578.778,3675.009v-2.915a1.729,1.729,0,0,0-1.827-1.846,1.8,1.8,0,0,0-1.633.826,1.705,1.705,0,0,0-1.535-.826,1.535,1.535,0,0,0-1.361.69v-.574h-1.01v4.645h1.02v-2.575a1.086,1.086,0,0,1,1.137-1.234c.67,0,1.011.437,1.011,1.224v2.585h1.02v-2.575a1.1,1.1,0,0,1,1.137-1.234c.69,0,1.02.437,1.02,1.224v2.585Zm15.1-4.645h-1.652v-1.409h-1.021v1.409h-.942v.923h.942v2.119c0,1.079.418,1.72,1.613,1.72a2.372,2.372,0,0,0,1.264-.36l-.292-.864a1.877,1.877,0,0,1-.894.262c-.505,0-.67-.311-.67-.778v-2.1h1.652Zm8.62-.116a1.371,1.371,0,0,0-1.225.68v-.564h-1v4.645h1.011v-2.6c0-.768.33-1.2.991-1.2a1.659,1.659,0,0,1,.632.116l.311-.952a2.144,2.144,0,0,0-.719-.126Zm-13.032.485a3.482,3.482,0,0,0-1.9-.485c-1.176,0-1.934.563-1.934,1.486,0,.758.563,1.225,1.6,1.371l.476.068c.554.077.817.223.817.486,0,.359-.37.563-1.06.563a2.472,2.472,0,0,1-1.545-.486l-.476.787a3.348,3.348,0,0,0,2.012.6c1.341,0,2.118-.632,2.118-1.516,0-.816-.612-1.244-1.623-1.39l-.476-.068c-.437-.058-.787-.145-.787-.456,0-.341.33-.545.884-.545a2.989,2.989,0,0,1,1.448.4Zm27.074-.485a1.369,1.369,0,0,0-1.224.68v-.564h-1v4.645h1.01v-2.6c0-.768.331-1.2.992-1.2a1.651,1.651,0,0,1,.631.116l.311-.952a2.139,2.139,0,0,0-.719-.126Zm-13.022,2.439a2.347,2.347,0,0,0,2.478,2.439,2.438,2.438,0,0,0,1.672-.554l-.486-.816a2.045,2.045,0,0,1-1.215.418,1.49,1.49,0,0,1,0-2.974,2.045,2.045,0,0,1,1.215.418l.486-.817a2.437,2.437,0,0,0-1.672-.553,2.347,2.347,0,0,0-2.478,2.439Zm9.465,0v-2.323h-1.01v.564a1.763,1.763,0,0,0-1.468-.68,2.442,2.442,0,0,0,0,4.878,1.763,1.763,0,0,0,1.468-.68v.563h1.01Zm-3.761,0a1.407,1.407,0,1,1,1.41,1.487,1.394,1.394,0,0,1-1.41-1.487Zm-12.2-2.439a2.441,2.441,0,0,0,.068,4.878,2.826,2.826,0,0,0,1.9-.651l-.5-.748a2.209,2.209,0,0,1-1.35.485,1.29,1.29,0,0,1-1.39-1.137h3.45c.01-.126.019-.252.019-.388a2.226,2.226,0,0,0-2.206-2.439Zm-.019.9a1.154,1.154,0,0,1,1.176,1.128h-2.41a1.2,1.2,0,0,1,1.234-1.128Zm25.354,1.536V3668.5h-1.01v2.43a1.763,1.763,0,0,0-1.468-.68,2.442,2.442,0,0,0,0,4.878,1.763,1.763,0,0,0,1.468-.68v.563h1.01Zm1.182,1.894a.281.281,0,0,1,.116.023.293.293,0,0,1,.1.063.31.31,0,0,1,.064.094.3.3,0,0,1,0,.229.318.318,0,0,1-.064.093.312.312,0,0,1-.1.064.281.281,0,0,1-.116.023.292.292,0,0,1-.119-.023.3.3,0,0,1-.1-.064.317.317,0,0,1-.064-.093.3.3,0,0,1,0-.229.309.309,0,0,1,.064-.094.282.282,0,0,1,.1-.063A.292.292,0,0,1,623.545,3674.581Zm0,.524a.213.213,0,0,0,.088-.018.229.229,0,0,0,0-.423.217.217,0,0,0-.088-.018.228.228,0,0,0-.091.018.232.232,0,0,0-.074.049.246.246,0,0,0-.048.073.233.233,0,0,0,0,.179.246.246,0,0,0,.048.073.232.232,0,0,0,.074.049A.224.224,0,0,0,623.545,3675.1Zm.017-.368a.123.123,0,0,1,.081.024.08.08,0,0,1,.029.064.076.076,0,0,1-.023.056.105.105,0,0,1-.065.027l.09.1h-.07l-.083-.1h-.027v.1h-.059v-.274Zm-.068.052v.073h.067a.067.067,0,0,0,.037-.009.033.033,0,0,0,.014-.028.03.03,0,0,0-.014-.027.065.065,0,0,0-.037-.009Zm-4.892-2.1a1.407,1.407,0,1,1,1.41,1.487,1.394,1.394,0,0,1-1.41-1.487Zm-34.129,0v-2.323h-1.011v.564a1.763,1.763,0,0,0-1.468-.68,2.442,2.442,0,0,0,0,4.878,1.763,1.763,0,0,0,1.468-.68v.563h1.011Zm-3.761,0a1.406,1.406,0,1,1,1.409,1.487A1.393,1.393,0,0,1,580.712,3672.687Z"/>
  </g>
</svg>
