<svg xmlns="http://www.w3.org/2000/svg" width="85.369" height="22" viewBox="0 0 85.369 22">
  <g id="Group_427" data-name="Group 427" transform="translate(-863.272 -3653.17)">
    <path id="Path_916" data-name="Path 916" d="M917.1,3670.483h3.132s.138-.941.321-2.2h-3.132Z" fill="#eb008b"/>
    <path id="Path_917" data-name="Path 917" d="M891.071,3671.518s1.449-1.791,2.616-3.231h-3.158l-.5.685Z" fill="#eb008b"/>
    <path id="Path_918" data-name="Path 918" d="M875.5,3670.483h3.132l.32-2.2h-3.132C875.638,3669.532,875.5,3670.483,875.5,3670.483Z" fill="#eb008b"/>
    <path id="Path_919" data-name="Path 919" d="M944.212,3670.483h3.132s.137-.941.321-2.2h-3.133C944.351,3669.532,944.212,3670.483,944.212,3670.483Z" fill="#eb008b"/>
    <path id="Path_920" data-name="Path 920" d="M895.731,3657.985c.9,0,1.849-1.025,2.114-2.289s-.251-2.288-1.153-2.288-1.849,1.024-2.115,2.288S894.828,3657.985,895.731,3657.985Z" fill="#eb008b"/>
    <path id="Path_921" data-name="Path 921" d="M879.892,3660.559a2.563,2.563,0,0,0-.829-1.591,4.3,4.3,0,0,0-2.779-.859,5.329,5.329,0,0,0-2.428.484,3.689,3.689,0,0,0-1.108.668,3.276,3.276,0,0,0-.748-.565,5.194,5.194,0,0,0-2.6-.579,5.262,5.262,0,0,0-3.337,1.181,4.787,4.787,0,0,0-1.533,2.648c-.067.451-.586,3.966-.938,6.341h0l-.323,2.194H866.4s.137-.947.318-2.193h0c.314-2.162.759-5.218.848-5.758a3.109,3.109,0,0,1,.63-1.679,1.568,1.568,0,0,1,1.944-.286c.55.352.477,1.32.426,1.731-.034.267-.53,3.656-.873,5.988h0l-.323,2.2h3.117s.139-.936.327-2.2h0c.334-2.25.826-5.536.972-6.405.227-1.357,1.078-1.482,1.489-1.511a1.448,1.448,0,0,1,1.254.469c.3.4.176,1.3.117,1.731-.037.278-.5,3.475-.831,5.718l3.132,0c.338-2.314.831-5.7.912-6.259A5.375,5.375,0,0,0,879.892,3660.559Z" fill="#eb008b"/>
    <path id="Path_922" data-name="Path 922" d="M900.511,3668.286c-.823-1.223-2.4-3.566-2.479-3.685a3.1,3.1,0,0,1-.441-.741.669.669,0,0,1,.1-.543c.125-.139,4.885-5.934,5.413-6.6a3.6,3.6,0,0,0,.924-1.79,1.681,1.681,0,0,0-.63-1.46,1.631,1.631,0,0,0-1.313-.264,2.515,2.515,0,0,0-1.313.983c-.22.3-4.739,6.528-4.863,6.7s-.279.132-.374-.014-2.318-3.477-2.59-3.9-.5-.506-.733-.47a1.328,1.328,0,0,0-.954,1.123,2.04,2.04,0,0,0,.052,1.467c.11.212,2.325,4,2.428,4.188a.653.653,0,0,1,.007.572c-.056.084-2.218,3.052-3.219,4.427l3.158,0c.724-.9,1.34-1.658,1.433-1.776.242-.308.352-.132.425-.007.021.035.44.765,1.026,1.786Z" fill="#eb008b"/>
    <path id="Path_923" data-name="Path 923" d="M886.058,3668.287l3.45,0c.233-1.585.823-5.6.917-6.265a2.992,2.992,0,0,0-.909-2.919c-1.027-.763-1.849-1.2-4.167-.851a8.124,8.124,0,0,0-3.242,1.012l-.352,2.487a14.654,14.654,0,0,1,2.89-.873c1.365-.22,1.992-.393,2.6.146.543.484.293,1.482.293,1.482a14.043,14.043,0,0,0-5.516,1.056,3.868,3.868,0,0,0-2.047,4.728h0a4.386,4.386,0,0,0,.17.45c.792,1.789,2.89,2.215,4.518,2.068a7.877,7.877,0,0,0,3.961-1.261l.792-.617s.036-.245.095-.641l-3.45,0a4.038,4.038,0,0,1-1.868.39,2.048,2.048,0,0,1-1.16-.392h0a1.551,1.551,0,0,1-.567-1.251,1.957,1.957,0,0,1,1.364-1.922,8.059,8.059,0,0,1,2.244-.484c.5-.044,1.189-.088,1.189-.088l-.514,3.374A4.715,4.715,0,0,1,886.058,3668.287Z" fill="#eb008b"/>
    <path id="Path_924" data-name="Path 924" d="M948.606,3660.559a2.568,2.568,0,0,0-.829-1.591,4.3,4.3,0,0,0-2.78-.859,5.329,5.329,0,0,0-2.428.484,3.706,3.706,0,0,0-1.108.668,3.276,3.276,0,0,0-.748-.565,5.192,5.192,0,0,0-2.6-.579,5.263,5.263,0,0,0-3.338,1.181,4.787,4.787,0,0,0-1.533,2.648c-.067.451-.586,3.966-.937,6.341h0c-.186,1.256-.324,2.194-.324,2.194h3.132l.317-2.193h0c.314-2.162.76-5.218.848-5.758a3.1,3.1,0,0,1,.631-1.679,1.567,1.567,0,0,1,1.943-.286c.551.352.477,1.32.426,1.731-.033.267-.53,3.656-.873,5.988h0c-.183,1.251-.323,2.2-.323,2.2h3.118s.138-.936.326-2.2h0c.335-2.25.826-5.536.972-6.405.227-1.357,1.078-1.482,1.489-1.511a1.447,1.447,0,0,1,1.254.469c.3.4.176,1.3.118,1.731-.038.278-.5,3.475-.832,5.718l3.133,0c.337-2.314.83-5.7.911-6.259A5.4,5.4,0,0,0,948.606,3660.559Z" fill="#eb008b"/>
    <path id="Path_925" data-name="Path 925" d="M905.491,3658.484h-2.963l-1.42,9.8h0l-.106.729-.491-.729-3.94,0c1.457,2.538,3.947,6.881,3.947,6.881l3.022-2.4-1.533-2.281h1.731l.322-2.2h0Z" fill="#eb008b"/>
    <path id="Path_926" data-name="Path 926" d="M929.505,3658.484s-1.085,7.437-1.276,8.464a2.674,2.674,0,0,1-.557,1.339h3.185l-3.185,0a3.1,3.1,0,0,1-.338.331,1.9,1.9,0,0,1-1.789.1.845.845,0,0,1-.39-.436l-3.2,0c.006.047.013.094.02.141.147.953,1.1,2.42,3.55,2.42s3.462-.381,4.4-1.13a3.673,3.673,0,0,0,1.018-1.433h0a6.619,6.619,0,0,0,.464-1.676c.117-.881,1.158-8.127,1.158-8.127Z" fill="#eb008b"/>
    <path id="Path_927" data-name="Path 927" d="M925.155,3668.286a2.616,2.616,0,0,1-.124-1.338c.088-.587,1.24-8.45,1.24-8.45h-3.11s-.814,5.487-1.02,6.778a10.406,10.406,0,0,0-.181,3.011Z" fill="#eb008b"/>
    <path id="Path_928" data-name="Path 928" d="M920.667,3658.968a4.3,4.3,0,0,0-2.78-.859,5.335,5.335,0,0,0-2.428.484,3.691,3.691,0,0,0-1.107.668,3.3,3.3,0,0,0-.749-.565,5.186,5.186,0,0,0-2.6-.579,5.258,5.258,0,0,0-3.337,1.181,4.781,4.781,0,0,0-1.533,2.648c-.068.451-.587,3.966-.938,6.341h0c-.186,1.256-.324,2.194-.324,2.194h3.132s.137-.947.318-2.193h0c.314-2.162.76-5.218.848-5.758a3.118,3.118,0,0,1,.631-1.679,1.568,1.568,0,0,1,1.944-.286c.55.352.476,1.32.425,1.731-.033.267-.53,3.656-.872,5.988h0l-.323,2.2h3.117s.138-.936.326-2.2h0c.335-2.25.826-5.536.972-6.405.228-1.357,1.078-1.482,1.489-1.511a1.449,1.449,0,0,1,1.255.469c.3.4.175,1.3.117,1.731-.038.278-.5,3.475-.831,5.718l3.132,0c.337-2.314.831-5.7.911-6.259a5.4,5.4,0,0,0,.03-1.467A2.568,2.568,0,0,0,920.667,3658.968Z" fill="#eb008b"/>
  </g>
</svg>
