<svg xmlns="http://www.w3.org/2000/svg" width="16" height="16" viewBox="0 0 16 16">
  <g id="Group_413" data-name="Group 413" transform="translate(-409.385 -2615.053)">
    <path id="Path_872" data-name="Path 872" d="M425.041,2631.053H409.729a.344.344,0,0,1-.344-.344V2615.4a.344.344,0,0,1,.344-.344h15.312a.344.344,0,0,1,.344.344v15.312A.344.344,0,0,1,425.041,2631.053Zm-14.968-.688H424.7v-14.624H410.073Z" fill="#999"/>
    <path id="Path_873" data-name="Path 873" d="M411.216,2629.69a.345.345,0,0,1-.245-.588l4.845-4.845h-2.56a.344.344,0,1,1,0-.688h3.4a.344.344,0,0,1,.244.588l-5.44,5.433A.34.34,0,0,1,411.216,2629.69Z" fill="#999"/>
    <path id="Path_874" data-name="Path 874" d="M416.876,2627.736a.345.345,0,0,1-.344-.324l-.227-3.475a.345.345,0,0,1,.688-.045l.23,3.476a.343.343,0,0,1-.322.364h0Z" fill="#999"/>
    <path id="Path_875" data-name="Path 875" d="M421.17,2622.454h-3.145a.344.344,0,0,1-.241-.588l5.024-5.007a.344.344,0,0,1,.487.487l0,0-4.435,4.418h2.312a.344.344,0,0,1,0,.688Z" fill="#999"/>
    <path id="Path_876" data-name="Path 876" d="M418.025,2622.454a.344.344,0,0,1-.344-.32l-.21-3.21a.345.345,0,1,1,.688-.045l.21,3.217a.344.344,0,0,1-.32.365Z" fill="#999"/>
  </g>
</svg>
