<svg xmlns="http://www.w3.org/2000/svg" width="53.279" height="33.833" viewBox="0 0 53.279 33.833">
  <g id="Group_428" data-name="Group 428" transform="translate(-1398.808 -3646.94)">
    <path id="Path_929" data-name="Path 929" d="M1419.559,3651.142a5.559,5.559,0,0,0-3.19-3.722,5.657,5.657,0,0,0-5.043.24c-3.858,2.135-5.99,7.732-7.164,13a8.494,8.494,0,0,1-3.5-5.223l-1.85,1.157a10.34,10.34,0,0,0,4.92,6.226,67.772,67.772,0,0,0-.967,8.448l-.006.133c-.045.906-.144,2.964-.053,5.207l2.057-1.288c-.021-1.664.048-3.107.083-3.819l.007-.134a63.287,63.287,0,0,1,.872-7.76,11.709,11.709,0,0,0,10.1-2.381A10.4,10.4,0,0,0,1419.559,3651.142Zm-5.018,8.433a9.587,9.587,0,0,1-8.419,1.981c1.13-5.253,3.083-10.337,6.217-12.072a3.588,3.588,0,0,1,3.193-.154,3.467,3.467,0,0,1,2,2.307A8.434,8.434,0,0,1,1414.541,3659.575Zm36.278,2.2c1-2.021,1.579-5.226.886-7.226a2.933,2.933,0,0,0-2.986-2.117c-2.669.082-3.7,3.418-4.2,5.02a53.653,53.653,0,0,0-2.218,13.1l-.243.179a6.789,6.789,0,0,1-1.941,1.164,2.172,2.172,0,0,1-.191-.855c-.052-.628.009-2.257.058-3.565.031-.8.057-1.5.056-1.9h0v-.011a2.491,2.491,0,0,0-2.526-2.733,5.818,5.818,0,0,0-3.816,1.864,12.234,12.234,0,0,0-2.752,4.19,7.365,7.365,0,0,0-.505,2.328c-.2.154-.395.3-.517.382-1.466.981-1.884.643-2.021.531-.666-.537-.026-2.174.537-3.618a6.963,6.963,0,0,0,.787-3.686,1.011,1.011,0,0,0-1.495-.654,8.461,8.461,0,0,1-2.7.607c.024-.118.044-.231.061-.34a3.313,3.313,0,0,0-.767-3.064,2.285,2.285,0,0,0-2.854-.152,2.606,2.606,0,0,0-1.017,3.158,3.415,3.415,0,0,0,2.03,2.031c-.813,2.342-2.225,5.025-3.558,6.032-.177-.633-.352-2.216-.121-6.165.018-.305.03-.525.032-.644a2.7,2.7,0,0,0-.589-2.1,2.112,2.112,0,0,0-1.613-.659,4.382,4.382,0,0,0-1.576.342,8.219,8.219,0,0,0-1.407.693,11.652,11.652,0,0,0-4.308,5.2,4.543,4.543,0,0,0,.216,4.189,2.778,2.778,0,0,0,2.315,1.225h0a4.57,4.57,0,0,0,2.919-1.287,12.016,12.016,0,0,0,1.93-2.065c.129,1.849.506,2.832,1.179,3.266a1.476,1.476,0,0,0,.807.24,1.7,1.7,0,0,0,.791-.2c2.174-1.135,4.031-4.794,4.983-7.67q.239.009.495.005a11.13,11.13,0,0,0,2.047-.283c-.137.413-.311.859-.468,1.262-.775,1.984-1.739,4.454.073,5.919,1.117.9,2.568.782,4.315-.355a2.38,2.38,0,0,0,2.093,1.159c1.787,0,3.525-1.651,3.716-1.838a11.3,11.3,0,0,0,1.166-1.342,2.814,2.814,0,0,0,1.352,2.432,1.922,1.922,0,0,0,.8.169,4.119,4.119,0,0,0,2.138-.812q-.06,3.66.236,7.673l1.95-1.22c-.171-2.774-.218-5.416-.123-7.921a12.9,12.9,0,0,1,3.958-1.949l.86-2.166a10.621,10.621,0,0,0-4.673,1.63,50.456,50.456,0,0,1,2.034-11.1c.329-1.066,1.1-3.561,2.335-3.6.433-.015.776.106,1,.761.462,1.33.046,3.571-.517,5.07Zm-34,3.734a5.45,5.45,0,0,1-.253,1.194,9.256,9.256,0,0,1-3.1,5,2.688,2.688,0,0,1-1.589.789h0a.736.736,0,0,1-.646-.347,2.6,2.6,0,0,1,0-2.317,9.765,9.765,0,0,1,3.5-4.219,6.176,6.176,0,0,1,1.058-.517,2.454,2.454,0,0,1,.846-.207,1.219,1.219,0,0,1,.126.01C1416.786,3664.912,1416.857,3665.028,1416.82,3665.5Zm6.278-1.4c-.017.1-.036.21-.058.32a1.412,1.412,0,0,1-.687-.76.583.583,0,0,1,.135-.7.628.628,0,0,1,.383-.168.112.112,0,0,1,.044.007C1423.129,3663.017,1423.227,3663.3,1423.1,3664.109Zm14.924,1.477a4.161,4.161,0,0,1-.095.859,9.215,9.215,0,0,1-2.586,4.767,4.283,4.283,0,0,1-2.3,1.261c-.163,0-.3-.024-.443-.325a3.606,3.606,0,0,1,.244-2.559,10.191,10.191,0,0,1,2.3-3.481,3.9,3.9,0,0,1,2.378-1.266c.232,0,.494,0,.5.742Zm12,6.687v2.067h2.066v-2.067Z" fill="#24b4c8"/>
  </g>
</svg>
