<svg xmlns="http://www.w3.org/2000/svg" viewBox="0 0 97.81 34.62"><defs><style>.cls-1{fill:#fff;}</style></defs><g id="Layer_2" data-name="Layer 2"><g id="Layer_1-2" data-name="Layer 1"><path class="cls-1" d="M41.21,3.62H41a1.27,1.27,0,0,0-.6.1c-4.1,2-10.6,2.7-10.7,2.7a.91.91,0,0,0-.7.3.84.84,0,0,0-.2.7,1,1,0,0,0,1,.8h.1c.3,0,6.9-.7,11.4-2.9a1.21,1.21,0,0,0,.5-.5.62.62,0,0,0-.1-.7C41.61,3.82,41.41,3.62,41.21,3.62Z"/><path class="cls-1" d="M31.21,16.62a53.22,53.22,0,0,0,6.2.4,29,29,0,0,0,5.6-.5.92.92,0,0,0,.6-.4.82.82,0,0,0,.1-.7,1,1,0,0,0-1.2-.7c-4.5,1-10.4.2-11.1.1a.84.84,0,0,0-.7.2.82.82,0,0,0-.4.6,1,1,0,0,0,.2.7A4.88,4.88,0,0,0,31.21,16.62Z"/><path class="cls-1" d="M66.41,29.52a.88.88,0,0,0-.7-.1,19.2,19.2,0,0,1-5.9.3,8.2,8.2,0,0,1-4.9-2.1.91.91,0,0,0-.7-.3h0a1.85,1.85,0,0,0-.7.2.86.86,0,0,0-.3.6,1.08,1.08,0,0,0,.3.7,10.46,10.46,0,0,0,6.1,2.7,10.87,10.87,0,0,0,1.8.1,21.85,21.85,0,0,0,4.7-.5,1,1,0,0,0,.7-.4.82.82,0,0,0,.1-.7A2.25,2.25,0,0,0,66.41,29.52Z"/><path class="cls-1" d="M48.41,9.82v0a.68.68,0,0,0-.6.4.84.84,0,0,0-.2.7.82.82,0,0,0,.4.6h0a16.45,16.45,0,0,0,9.3,2.8,14.28,14.28,0,0,0,2.9-.3.68.68,0,0,0,.6-.4.82.82,0,0,0,.1-.7.92.92,0,0,0-1.1-.7A14.8,14.8,0,0,1,49.11,10,1,1,0,0,0,48.41,9.82Z"/><path class="cls-1" d="M5.91,24h0a1.21,1.21,0,0,0-.5.5.85.85,0,0,0,0,.7,1,1,0,0,0,.6.5,27.39,27.39,0,0,0,8.1,1.2,23.24,23.24,0,0,0,5.9-.7.92.92,0,0,0,.6-.4.88.88,0,0,0,.1-.7,1.33,1.33,0,0,0-.5-.6.88.88,0,0,0-.7-.1,24.56,24.56,0,0,1-12.9-.5A2,2,0,0,0,5.91,24Z"/><path class="cls-1" d="M83.81,16.12a23.52,23.52,0,0,0-5.4.6,5,5,0,0,0-1.8-3.7,16.88,16.88,0,0,0-5.5-3.1,4,4,0,0,0,.8-2.3c0-3.5-5.4-6.2-12.4-6.2-3.7,0-7.3.8-9.6,2.3a10.87,10.87,0,0,0-1.8.1,2.41,2.41,0,0,0,.3-1.6C48,.92,46.21.12,43.21,0a36.51,36.51,0,0,0-9.3,1.1C29,2.32,23.41,4.52,22,6.92a2.41,2.41,0,0,0-.3,1.6c.3,1,1.3,1.7,3,2a6.23,6.23,0,0,0-1.2.9,18.48,18.48,0,0,0-2.3-.1c-5.6,0-9.8,1.9-9.8,4.3a2,2,0,0,0,.1.7c-6.9,1-11.8,4.3-11.5,7.8.1,2.1,1.9,3.9,4.9,5.1a23.49,23.49,0,0,0,8.8,1.5h1.6A25,25,0,0,0,25.81,28a28.17,28.17,0,0,0,7.6,2.1,33.66,33.66,0,0,0,4.4.3c4.3,0,7.9-1,9.5-2.7a18.33,18.33,0,0,0,9.1,5.9,20.35,20.35,0,0,0,6.4,1c5.2,0,9.1-2,10.3-5.2a3.08,3.08,0,0,0,.3-1.3A21,21,0,0,0,84,30.72c7.8,0,13.8-3.2,13.8-7.2S91.51,16.12,83.81,16.12Zm-27,15.6c-4.1-1.3-7.4-3.6-8.9-6.3a2.19,2.19,0,0,0-.3-.5,4.71,4.71,0,0,1-.4-1.6,3.72,3.72,0,0,1,.2-1.8h0c.9-2.4,4.1-3.9,8.3-3.9a19.48,19.48,0,0,1,5.8.9c.3.1.6.2,1,.3a4.87,4.87,0,0,0,1.1.4l.1.1.4.1a14.67,14.67,0,0,1,6,4.7,7.22,7.22,0,0,1,.9,2,3.85,3.85,0,0,1-.1,2.6C69.71,32.32,63.31,33.72,56.81,31.72Zm-34.4-17.2a.31.31,0,0,0,.1.2v.1c.1.1.1.3.2.5s.1.1.1.2h0a1.38,1.38,0,0,0,.3.4l.2.2.4.4c.1.1.2.1.2.2a2.19,2.19,0,0,0,.5.3l.1.1c.1,0,.1.1.2.1a5.74,5.74,0,0,1,.7.4l.1.1h0c-.2,0-.4.1-.6.1a20.4,20.4,0,0,1-5,.3c-2.7-.2-5.1-.8-6.2-1.7-.3-.3-.5-.5-.5-.7,0-1.3,3.9-2.5,7.9-2.5h1.3v.1c0,.2-.1.4-.1.6A1.49,1.49,0,0,0,22.41,14.52Zm7.2-3.9h.8c.3,0,.7-.1,1-.1H32c.6-.1,1.2-.2,1.7-.3a.76.76,0,0,0,.4-.1l.5-.1c.3-.1.6-.1.8-.2a29.44,29.44,0,0,1,6,.3h0a.1.1,0,0,0,.1.1v.1c.1.1.1.2.2.3s.3.3.4.5l.1.1c.1.1.1.2.2.2l.5.5.1.1h0c.1,0,.1.1.2.2.3.2.6.5.9.7h0a10.54,10.54,0,0,0,1.1.7c.1,0,.2.1.3.1l.2.1c.3.1.5.3.8.4.1,0,.2.1.3.1l.3.1a6.89,6.89,0,0,0,.8.3c.1.1.3.1.4.2l.2.1c-1.9,2-7.4,3-11.9,3h-1.2c-.6,0-1.2-.1-1.8-.1s-1.2-.1-1.7-.2a32.14,32.14,0,0,1-3.6-.8c-2.6-.8-4.2-1.9-4.2-3a.6.6,0,0,1,.1-.4c.1-.2.2-.3.3-.5a8.51,8.51,0,0,1,4.3-2.3A2.2,2.2,0,0,1,29.61,10.62Zm39.3-1.3L67.51,9h-.6c-.2,0-.5-.1-.8-.1l-.1-.1-.3-.2c-.1-.1-.2-.2-.3-.2s-.3-.2-.5-.4l-.2-.2c-.1-.1-.2-.2-.3-.2s-.3-.2-.5-.3l-.3-.2c-.1-.1-.2-.1-.3-.2a2.19,2.19,0,0,1-.5-.3l-.4-.2c-.1-.1-.3-.1-.4-.2a1.42,1.42,0,0,0-.6-.2l-.4-.2c-.1-.1-.3-.1-.4-.2a1.45,1.45,0,0,0-.7-.2l-.5-.2c-.1,0-.3-.1-.4-.1a2.35,2.35,0,0,0-.8-.2l-.4-.1c-.1,0-.2-.1-.4-.1-.6-.1-1.1-.3-1.7-.4s-1.1-.2-1.7-.3a22.76,22.76,0,0,1,5.4-.7c5.6,0,10.4,2,10.4,4.4A2.6,2.6,0,0,1,68.91,9.32Zm-9.1-2a12.74,12.74,0,0,1,5.1,3.1,2.78,2.78,0,0,1,.8,1.5v.5a1.37,1.37,0,0,1-.5.8c-1,.9-3.1,1.5-5.7,1.6a24.75,24.75,0,0,1-6-.5c-1-.2-2-.4-3-.7a7.84,7.84,0,0,1-1.4-.5c-2.7-1-4.7-2.3-5.6-3.6l-.3-.6a2.77,2.77,0,0,1-.1-.9,1.86,1.86,0,0,1,.9-1.1,4.79,4.79,0,0,1,2.1-.9,13.66,13.66,0,0,1,2.3-.4,12.12,12.12,0,0,1,2-.1h1.1a26,26,0,0,1,3.9.5A22.26,22.26,0,0,1,59.81,7.32Zm-15.6-2.7H44l-.6.3h-.1a.1.1,0,0,0-.1.1l-.2.1c-.1,0-.2.1-.3.1h-.1a37.92,37.92,0,0,1-7.2,2.4c-.1,0-.3.1-.4.1a40.42,40.42,0,0,1-6.5.9c-3.7.2-5.1-.5-5.2-.8a.37.37,0,0,1,.1-.3c.8-1.3,4.8-3.4,10.7-4.8a36.31,36.31,0,0,1,8.1-1.1h.7c2.6.1,3.3.6,3.4.8C46.51,2.82,46.21,3.52,44.21,4.62ZM12.81,18h0c.2.1.2.2.3.2s.3.1.4.2l.1.1c.1,0,.2.1.3.1s.3.1.5.2l.2.1c.1,0,.2.1.3.1a.9.9,0,0,0,.5.1l.2.1c.1,0,.2.1.3.1s.3.1.5.1l.3.1a.37.37,0,0,1,.3.1c.2,0,.4.1.6.1h.6a2.49,2.49,0,0,1,.8.1h2.6l-.4.4a.35.35,0,0,0-.1.2h0c-.1.2-.3.3-.4.5V21c0,.1-.1.1-.1.2-.1.3-.2.5-.3.8v1.1c0,.2.1.3.1.5s.1.1.1.2v.1c.1.1.1.3.2.4a.22.22,0,0,0,.2.2v.1c.1.1.2.3.3.4s.1.2.2.3h0l.4.4.3.3c.1.1.3.2.5.4a1.38,1.38,0,0,0,.4.3,2.19,2.19,0,0,0,.5.3,22.24,22.24,0,0,1-8.6,1.9,23.29,23.29,0,0,1-9.5-1.3c-2.3-.9-3.7-2.2-3.8-3.5-.2-2.7,4.6-5.4,10.9-6l.3-.1Zm13.3,1.9a23.84,23.84,0,0,1,4.9-.5h.7a11,11,0,0,0,1.8.2,10.87,10.87,0,0,0,1.8.1c4.4.7,8.4,2.2,10,4,.1.4.1.7.2,1.1a6.89,6.89,0,0,0,.4,1c-.4.9-1.8,1.7-4,2.1a25.85,25.85,0,0,1-8.4.2A26.46,26.46,0,0,1,26,26c-2.5-1.2-3.9-2.6-3.7-3.7S23.91,20.52,26.11,19.92Zm19.4,1.5a17.6,17.6,0,0,0-3.9-2c4.5-.6,7.7-2,9-3.9a14.62,14.62,0,0,0,2,.5c-3.5.7-6.1,2.4-7,4.9C45.61,21.12,45.51,21.22,45.51,21.42Zm24-.9c.5,0,1,.1,1.5.1a3.51,3.51,0,0,0-.5.8A9,9,0,0,1,69.51,20.52Zm-5-3h0a4.87,4.87,0,0,0-1.1-.4c-.5-.2-1-.5-1.4-.7a.6.6,0,0,0,.4-.1c.1,0,.2-.1.4-.1h.1a6.37,6.37,0,0,0,.7-.2c.2-.1.3-.1.5-.2a1.42,1.42,0,0,1,.6-.2c.2-.1.3-.1.4-.2s.3-.2.5-.3h.1c.1-.1.2-.1.3-.2s.3-.3.4-.4l.1-.1.2-.2c.2-.2.3-.4.4-.5v-.1c0-.1.1-.1.1-.2.1-.3.2-.5.3-.8a4.33,4.33,0,0,1,.1-.5v-.6a2.54,2.54,0,0,0-.2-.7h0l1.2.3.3.1c3.3.9,6.2,2.6,7.1,4.2a1.47,1.47,0,0,1,.2,1.4c0,.2-.1.3-.3.5-.6.2-1,.4-1.5.6a8.26,8.26,0,0,0-1.3.7,16.89,16.89,0,0,1-6.6-.4,10.93,10.93,0,0,1-1.7-.5Zm19.3,11.1c-4.7,0-9-1.3-10.9-3.3a4.18,4.18,0,0,0-.4-1h0c-.2-.3-.4-.7-.6-1h0c0-1.3,1.2-2.4,2.2-3h0a14.63,14.63,0,0,1,2.8-1.3,21.09,21.09,0,0,1,6.8-1c6.4,0,11.9,2.4,11.9,5.3S90.21,28.62,83.81,28.62Z"/><path class="cls-1" d="M90.71,24a7.16,7.16,0,0,1-3.8,1.7,29.15,29.15,0,0,1-8.4-.1h-.1a1,1,0,0,0-1,.8,1,1,0,0,0,.2.7,1.61,1.61,0,0,0,.7.4,35.88,35.88,0,0,0,5.3.4,21.33,21.33,0,0,0,3.7-.3,8.6,8.6,0,0,0,4.8-2.2.91.91,0,0,0,.3-.7,1.08,1.08,0,0,0-.3-.7A1.2,1.2,0,0,0,90.71,24Z"/><path class="cls-1" d="M28,26.22h0a41.19,41.19,0,0,0,10.2,1.6,7.08,7.08,0,0,0,1.5-.1.91.91,0,0,0,.7-.3.86.86,0,0,0-.2-1.3,1,1,0,0,0-.7-.2c-4.5.4-10.7-1.3-11-1.4a.62.62,0,0,0-.7.1,1.21,1.21,0,0,0-.5.5A1.36,1.36,0,0,0,28,26.22Z"/></g></g></svg>