<svg xmlns="http://www.w3.org/2000/svg" width="16.94" height="16" viewBox="0 0 16.94 16">
  <path id="Path_380" data-name="Path 380" d="M5011.6,618.467l-8.414-8.414-1.332,1.332,2.24,2.24-4.842,4.842a1.411,1.411,0,0,0,0,1.995l5.176,5.177a1.408,1.408,0,0,0,1.995,0l5.177-5.177A1.413,1.413,0,0,0,5011.6,618.467Zm-10.687,1,4.513-4.509,4.513,4.509Zm12.983,1.411s-1.882,2.038-1.882,3.294a1.882,1.882,0,1,0,3.765,0C5015.781,622.914,5013.9,620.876,5013.9,620.876Z" transform="translate(-4998.841 -610.053)" fill="#999"/>
</svg>
