<svg xmlns="http://www.w3.org/2000/svg" width="19.487" height="20" viewBox="0 0 19.487 20">
  <g id="_1" data-name=" 1" transform="translate(-1689.956 -120.093)">
    <path id="Path_1070" data-name="Path 1070" d="M1706.975,133.427h-10.2a.747.747,0,0,1-.729-.581l-1.719-7.487a.746.746,0,0,1,.561-.894.713.713,0,0,1,.167-.019h13.645a.747.747,0,0,1,.748.745.724.724,0,0,1-.019.168l-1.722,7.487A.746.746,0,0,1,1706.975,133.427Zm-9.611-1.493h9.017l1.377-5.994h-11.771Z" fill="#591f12"/>
    <path id="Path_1071" data-name="Path 1071" d="M1698.23,140.093a2.86,2.86,0,1,1,2.86-2.859A2.859,2.859,0,0,1,1698.23,140.093Zm0-4.226a1.367,1.367,0,1,0,1.367,1.367h0A1.368,1.368,0,0,0,1698.23,135.867Z" fill="#591f12"/>
    <path id="Path_1072" data-name="Path 1072" d="M1705.514,140.093a2.86,2.86,0,1,1,2.86-2.859A2.859,2.859,0,0,1,1705.514,140.093Zm0-4.226a1.367,1.367,0,1,0,1.368,1.367h0A1.368,1.368,0,0,0,1705.514,135.867Z" fill="#591f12"/>
    <path id="Path_1073" data-name="Path 1073" d="M1695.05,125.939a.746.746,0,0,1-.708-.511l-1.279-3.842H1690.7a.746.746,0,0,1,0-1.493h2.9a.747.747,0,0,1,.708.511l1.449,4.352a.746.746,0,0,1-.472.944.73.73,0,0,1-.236.039Z" fill="#591f12"/>
  </g>
</svg>
