<svg xmlns="http://www.w3.org/2000/svg" width="40" height="25.422" viewBox="0 0 40 25.422">
  <g id="Group_402" data-name="Group 402" transform="translate(-185.5 -647.178)">
    <g id="Group_400" data-name="Group 400">
      <path id="Path_862" data-name="Path 862" d="M205.1,666.294a.649.649,0,0,1-.462-.193l-5.654-5.759a.651.651,0,0,1-.131-.194h0a.657.657,0,0,1-.053-.243h0v0h0v-.024h0v0h0a.642.642,0,0,1,.053-.241h0a.651.651,0,0,1,.132-.2l5.654-5.758a.646.646,0,1,1,.922.905l-4.575,4.66h10.578a.646.646,0,0,1,0,1.292H200.982l4.575,4.66a.647.647,0,0,1-.461,1.1Z" fill="#fff"/>
    </g>
    <g id="Group_401" data-name="Group 401">
      <path id="Path_863" data-name="Path 863" d="M212.789,672.6H198.211a12.711,12.711,0,1,1,0-25.422h14.578a12.711,12.711,0,0,1,0,25.422Zm-14.578-24.13a11.419,11.419,0,0,0,0,22.837h14.578a11.419,11.419,0,0,0,0-22.837Z" fill="#fff"/>
    </g>
  </g>
</svg>
