<svg xmlns="http://www.w3.org/2000/svg" width="40" height="25.422" viewBox="0 0 40 25.422">
  <g id="Group_405" data-name="Group 405" transform="translate(-1694.5 -647.289)">
    <g id="Group_403" data-name="Group 403">
      <path id="Path_864" data-name="Path 864" d="M1714.9,666.405a.649.649,0,0,0,.462-.193l5.654-5.759a.651.651,0,0,0,.131-.194h0a.656.656,0,0,0,.053-.243h0v0h0v-.024h0v0h0a.642.642,0,0,0-.053-.241h0a.664.664,0,0,0-.132-.2l-5.654-5.758a.646.646,0,1,0-.922.9l4.575,4.66h-10.578a.646.646,0,0,0,0,1.292h10.577l-4.575,4.66a.646.646,0,0,0,.009.914A.64.64,0,0,0,1714.9,666.405Z" fill="#fff"/>
    </g>
    <g id="Group_404" data-name="Group 404">
      <path id="Path_865" data-name="Path 865" d="M1694.5,660a12.726,12.726,0,0,1,12.711-12.711h14.578a12.711,12.711,0,1,1,0,25.422h-14.578A12.726,12.726,0,0,1,1694.5,660Zm12.711-11.419a11.419,11.419,0,0,0,0,22.838h14.578a11.419,11.419,0,0,0,0-22.838Z" fill="#fff"/>
    </g>
  </g>
</svg>
