<svg xmlns="http://www.w3.org/2000/svg" width="33.79" height="50" viewBox="0 0 33.79 50">
  <g id="Layer_2" data-name="Layer 2" transform="translate(-1390.897 -3457.698)">
    <g id="support_computer_help_communication_call_operator_phone_service_center_assistant" data-name="support computer help communication call operator phone service center assistant">
      <path id="Path_936" data-name="Path 936" d="M1416.3,3494.781a.61.61,0,0,0-.838-.206l-3.036,1.841a.622.622,0,0,0-.281.4.613.613,0,0,0,.1.477l1.9,2.673a19.046,19.046,0,0,1-6.358,4.623,19.154,19.154,0,0,1-6.359-4.623l1.907-2.672a.612.612,0,0,0-.146-.854l-.035-.023-3.035-1.842a.611.611,0,0,0-.633,1.045h0l2.472,1.5-1.8,2.518a.61.61,0,0,0,.006.716,19.331,19.331,0,0,0,7.37,5.469.609.609,0,0,0,.249.052.588.588,0,0,0,.247-.052,19.229,19.229,0,0,0,7.37-5.469.61.61,0,0,0,.006-.716l-1.8-2.518,2.472-1.5a.61.61,0,0,0,.212-.836Z" fill="#591f12"/>
      <path id="Path_937" data-name="Path 937" d="M1390.9,3507.088a.61.61,0,0,0,.611.61h32.568a.61.61,0,0,0,.611-.61v-1.14a16.6,16.6,0,0,0-8.08-14.253.611.611,0,1,0-.628,1.048,15.48,15.48,0,0,1,7.487,13.208v.525h-31.348v-.525a15.4,15.4,0,0,1,8.007-13.5.611.611,0,1,0-.588-1.071,16.619,16.619,0,0,0-8.64,14.575Z" fill="#591f12"/>
      <path id="Path_938" data-name="Path 938" d="M1407.793,3457.7a12.4,12.4,0,0,0-12.383,12.383V3482a3.4,3.4,0,0,0,3.4,3.4h1.524a.61.61,0,1,0,0-1.221h-1.524a2.179,2.179,0,0,1-2.176-2.176v-11.92a11.165,11.165,0,0,1,22.313-.472.611.611,0,0,0,1.22-.052A12.349,12.349,0,0,0,1407.793,3457.7Z" fill="#591f12"/>
      <path id="Path_939" data-name="Path 939" d="M1420.177,3474.615v-.954a2.727,2.727,0,0,0-2.723-2.724H1416.3a.622.622,0,0,0-.222-.042c-7.228,0-9.219-5.312-9.3-5.536a.614.614,0,0,0-.57-.408h0a.612.612,0,0,0-.569.4,8.406,8.406,0,0,1-5.676,5.551.613.613,0,0,0-.488.6v5.285a8.611,8.611,0,0,0,4.234,7.405v4.286a1.419,1.419,0,0,1-.3.868l-.476.613a2.648,2.648,0,0,0-.281,2.788l4.588,9.266a.61.61,0,0,0,1.094,0l4.589-9.26a2.619,2.619,0,0,0,.166-1.918.611.611,0,0,0-1.172.342,1.4,1.4,0,0,1-.088,1.025l-4.041,8.159-4.043-8.156a1.421,1.421,0,0,1,.152-1.5l.476-.613a2.642,2.642,0,0,0,.556-1.618V3484.8a8.6,8.6,0,0,0,11.735-7.459h.778a2.727,2.727,0,0,0,2.73-2.723Zm-4.706,2.11v.062a7.385,7.385,0,0,1-10.561,6.671.609.609,0,0,0-.587-.456.582.582,0,0,0-.175.029,7.389,7.389,0,0,1-3.448-6.245v-4.818a9.6,9.6,0,0,0,5.552-4.959,10.34,10.34,0,0,0,1.545,1.958,11.192,11.192,0,0,0,7.674,3.137Zm3.482-2.114a1.5,1.5,0,0,1-1.5,1.5h-.758v-3.955h.758a1.5,1.5,0,0,1,1.5,1.5Z" fill="#591f12"/>
      <path id="Path_940" data-name="Path 940" d="M1409.563,3486.1h-.653a2.189,2.189,0,0,0-2.186,2.187v.746a.611.611,0,0,0,.611.611h5.527a5.623,5.623,0,0,0,5.616-5.624v-3.743a.612.612,0,0,0-1.223,0v3.743a4.4,4.4,0,0,1-4.393,4.4h-1.116v-.131A2.189,2.189,0,0,0,1409.563,3486.1Zm.965,2.318h-2.583v-.131a.966.966,0,0,1,.965-.965h.653a.965.965,0,0,1,.965.965Z" fill="#591f12"/>
    </g>
  </g>
</svg>
