<svg xmlns="http://www.w3.org/2000/svg" width="70" height="50.556" viewBox="0 0 70 50.556">
  <g id="Group_418" data-name="Group 418" transform="translate(-709.02 -3456.632)">
    <path id="Path_878" data-name="Path 878" d="M767.568,3462.755a4.189,4.189,0,0,0-4.411,6.138.6.6,0,0,1-.127.753l-4.838,4.178a1.2,1.2,0,0,0,1.692,1.692l4.179-4.838a.6.6,0,0,1,.754-.125,4.19,4.19,0,0,0,6.136-4.413l-2.431,2.431a.6.6,0,0,1-.541.163l-2.115-.423a.6.6,0,0,1-.469-.469l-.423-2.115a.6.6,0,0,1,.163-.541Zm-2.9,9.056a5.387,5.387,0,0,0,7.122-7.035.6.6,0,0,0-.784-.317h0a.6.6,0,0,0-.189.127L767.9,3467.5l-1.41-.282-.282-1.41,2.912-2.912a.6.6,0,0,0,.126-.186h0a.6.6,0,0,0-.316-.787,5.387,5.387,0,0,0-7.035,7.122l-4.506,3.892-.032.03a2.394,2.394,0,0,0,3.385,3.385l.03-.032Z" fill="#591f12" fill-rule="evenodd"/>
    <path id="Path_879" data-name="Path 879" d="M777.881,3465.673a14.763,14.763,0,0,0-3.106-4.705,14.428,14.428,0,0,0-4.608-3.172,14.259,14.259,0,0,0-14.074,1.6,14.7,14.7,0,0,0-3.123,3.1,14.868,14.868,0,0,0-2.095,3.944.856.856,0,0,0,.5,1.09.829.829,0,0,0,1.067-.514,12.794,12.794,0,0,1,24.905,4.42,13.136,13.136,0,0,1-2.763,8.121.865.865,0,0,0,.137,1.2.822.822,0,0,0,1.172-.14,14.821,14.821,0,0,0,2.3-4.235,15.157,15.157,0,0,0-.311-10.706Z" fill="#591f12"/>
    <path id="Path_880" data-name="Path 880" d="M770.242,3491.465l-2.257-1.5-2.554-5.3a6.07,6.07,0,0,0-4.826-3.155.774.774,0,0,0-.083,0H754.1v-3.344a3.061,3.061,0,0,0-3.066-3.049H724.725a.826.826,0,1,0,0,1.652h26.306a1.4,1.4,0,0,1,1.4,1.4v13.182l-15.988-.009h0a.826.826,0,1,0,0,1.651l15.989.009v3.532a.83.83,0,0,0,1.66,0v-13.37h6.382a4.478,4.478,0,0,1,2.637,1.184,4.04,4.04,0,0,1,.817,1.036h0l2.653,5.51a.837.837,0,0,0,.287.329l2.444,1.629a3.174,3.174,0,0,1,1.141,1.854h-1.149a.826.826,0,1,0,0,1.652h1.246v3.415a1.4,1.4,0,0,1-1.405,1.4h-3.355a5.24,5.24,0,0,0-10.339,0H738.642a5.24,5.24,0,0,0-10.339,0h-3.578a1.4,1.4,0,0,1-1.4-1.4v-4.241a.831.831,0,0,0-1.661,0v4.241a3.06,3.06,0,0,0,3.061,3.049H728.3a5.24,5.24,0,0,0,10.339,0h16.814a5.24,5.24,0,0,0,10.339,0h3.358a3.061,3.061,0,0,0,3.062-3.049v-4.176A4.988,4.988,0,0,0,770.242,3491.465Zm-36.769,14.071a3.569,3.569,0,0,1-3.575-3.555h0a3.575,3.575,0,1,1,3.575,3.556Zm27.152,0a3.555,3.555,0,1,1,3.575-3.555A3.569,3.569,0,0,1,760.625,3505.536Z" fill="#591f12"/>
    <path id="Path_881" data-name="Path 881" d="M760.693,3486.578a.877.877,0,0,0,0-1.751,3.155,3.155,0,0,0-3.062,3.232v2.285a3.155,3.155,0,0,0,3.062,3.233h3.887a.877.877,0,0,0,0-1.752h-3.887a1.445,1.445,0,0,1-1.4-1.481v-2.285A1.445,1.445,0,0,1,760.693,3486.578Z" fill="#591f12"/>
    <path id="Path_882" data-name="Path 882" d="M714.8,3481.91h2.049a.974.974,0,0,0,0-1.945H714.8a.974.974,0,0,0,0,1.945Z" fill="#591f12"/>
    <path id="Path_883" data-name="Path 883" d="M718.69,3477.049h2.049a.974.974,0,0,0,0-1.945H718.69a.974.974,0,0,0,0,1.945Z" fill="#591f12"/>
    <path id="Path_884" data-name="Path 884" d="M733.326,3480.938a.915.915,0,0,0-.841-.973H721.528a.983.983,0,0,0,0,1.945h10.957A.914.914,0,0,0,733.326,3480.938Z" fill="#591f12"/>
    <path id="Path_885" data-name="Path 885" d="M717.77,3487.257c0-.268-.351-.486-.785-.486h-1.346c-.434,0-.785.218-.785.486s.351.486.785.486h1.346C717.419,3487.743,717.77,3487.526,717.77,3487.257Z" fill="#591f12"/>
    <path id="Path_886" data-name="Path 886" d="M711.186,3486.771h-1.415c-.415,0-.751.218-.751.486s.336.486.751.486h1.415c.415,0,.751-.217.751-.486S711.6,3486.771,711.186,3486.771Z" fill="#591f12"/>
    <path id="Path_887" data-name="Path 887" d="M720.592,3486.771c-.484,0-.877.218-.877.486s.393.486.877.486h6.995c.485,0,.878-.217.878-.486s-.393-.486-.878-.486Z" fill="#591f12"/>
    <path id="Path_888" data-name="Path 888" d="M726.52,3492.6a.9.9,0,0,0-.8-.972H717.6a.99.99,0,0,0,0,1.945h8.117A.9.9,0,0,0,726.52,3492.6Z" fill="#591f12"/>
    <path id="Path_889" data-name="Path 889" d="M731.442,3491.632h-1.093a.974.974,0,0,0,0,1.945h1.093a.974.974,0,0,0,0-1.945Z" fill="#591f12"/>
    <path id="Path_890" data-name="Path 890" d="M733.812,3500.382a1.458,1.458,0,1,0,1.458,1.459A1.46,1.46,0,0,0,733.812,3500.382Z" fill="#591f12"/>
    <path id="Path_891" data-name="Path 891" d="M761.034,3500.382a1.458,1.458,0,1,0,1.458,1.459A1.46,1.46,0,0,0,761.034,3500.382Z" fill="#591f12"/>
  </g>
</svg>
