<svg xmlns="http://www.w3.org/2000/svg" width="18.94" height="15.392" viewBox="0 0 18.94 15.392">
  <path id="Path_236" data-name="Path 236" d="M6703.476,992.959a7.739,7.739,0,0,1-2.232.611,3.9,3.9,0,0,0,1.709-2.149,7.786,7.786,0,0,1-2.468.943,3.887,3.887,0,0,0-6.722,2.658,3.924,3.924,0,0,0,.1.886,11.032,11.032,0,0,1-8.009-4.06,3.893,3.893,0,0,0,1.2,5.188,3.881,3.881,0,0,1-1.76-.486v.049a3.888,3.888,0,0,0,3.116,3.81,3.872,3.872,0,0,1-1.754.067,3.891,3.891,0,0,0,3.629,2.7,7.792,7.792,0,0,1-4.824,1.664,7.883,7.883,0,0,1-.928-.055,11.051,11.051,0,0,0,17.012-9.311c0-.168,0-.336-.012-.5A7.879,7.879,0,0,0,6703.476,992.959Z" transform="translate(-6684.536 -991.137)" fill="#591f12"/>
</svg>
