<svg xmlns="http://www.w3.org/2000/svg" width="31.488" height="25.59" viewBox="0 0 31.488 25.59">
  <path id="Path_990" data-name="Path 990" d="M1356.75,4341.876a12.842,12.842,0,0,1-3.711,1.017,6.49,6.49,0,0,0,2.842-3.573,12.95,12.95,0,0,1-4.1,1.567,6.468,6.468,0,0,0-11.009,5.892,18.339,18.339,0,0,1-13.316-6.75,6.471,6.471,0,0,0,2,8.626,6.435,6.435,0,0,1-2.925-.808c0,.027,0,.055,0,.081a6.464,6.464,0,0,0,5.182,6.335,6.454,6.454,0,0,1-2.916.111,6.467,6.467,0,0,0,6.033,4.486,13.048,13.048,0,0,1-9.563,2.677,18.306,18.306,0,0,0,9.9,2.9c11.881,0,18.38-9.843,18.38-18.38,0-.28-.008-.559-.02-.837A13.1,13.1,0,0,0,1356.75,4341.876Z" transform="translate(-1325.262 -4338.847)" fill="#fff"/>
</svg>
