<?xml version="1.0" encoding="utf-8"?>
<!-- Generator: Adobe Illustrator 26.3.1, SVG Export Plug-In . SVG Version: 6.00 Build 0)  -->
<svg version="1.1" id="Layer_1" xmlns="http://www.w3.org/2000/svg" xmlns:xlink="http://www.w3.org/1999/xlink" x="0px" y="0px"
	 viewBox="0 0 56 56" style="enable-background:new 0 0 56 56;" xml:space="preserve">
<style type="text/css">
	.st0{fill:#FFFFFF;}
</style>
<g id="Layer_1-2">
	<path class="st0" d="M52.8,38.7h-3V26.3c0-11.2-8.2-20.8-19.3-22.4c0-0.1,0-0.2,0-0.4c0.1-1.9-1.4-3.4-3.3-3.5
		c-1.9-0.1-3.4,1.4-3.5,3.3c0,0.1,0,0.2,0,0.3c0,0.1,0,0.2,0,0.4C12.6,5.6,4.4,15.1,4.4,26.3v12.4H3.2c-1.5,0-2.8,1.3-2.8,2.8
		s1.3,2.8,2.8,2.8h17.6c-0.5,2.8-2.9,4.9-5.8,4.9h-1.3c-1.9,0-3.4,1.5-3.4,3.4c0,1.9,1.5,3.4,3.4,3.4c0,0,0,0,0,0h28.1
		c1.9,0,3.4-1.5,3.4-3.4c0-1.9-1.5-3.4-3.4-3.4h-1.3c-2.9,0-5.3-2.1-5.8-4.9h18.2c1.5,0,2.8-1.3,2.8-2.8S54.4,38.7,52.8,38.7z
		 M32.5,44.3c0.5,4,3.9,7,7.9,7h1.3c0.7,0,1.3,0.6,1.3,1.3c0,0.7-0.6,1.3-1.3,1.3h-28c-0.7,0-1.3-0.6-1.3-1.3c0-0.7,0.6-1.3,1.3-1.3
		H15c4,0,7.4-3,7.9-7H32.5z M26.1,5.2c0.2-0.3,0.1-0.7-0.1-1c-0.1-0.2-0.2-0.4-0.2-0.7c0-0.7,0.6-1.3,1.3-1.3c0.7,0,1.3,0.6,1.3,1.3
		c0,0.2-0.1,0.5-0.2,0.7c-0.3,0.5-0.2,1.1,0.3,1.5c0.1,0.1,0.3,0.1,0.5,0.2c10.6,0.9,18.7,9.8,18.7,20.5v12.4H44v-9.4
		c0-2.5-2.3-4.6-5.2-4.6h-0.7v-3c0-2.8-2.3-5.1-5.1-5.1h-0.8c0.1-0.2,0.1-0.5,0.1-0.7c0-1.5-1.3-2.8-2.8-2.8c-0.3,0-0.7,0.1-1,0.2
		c-0.8-2-3.1-3-5.2-2.2c-1.5,0.6-2.5,2.1-2.5,3.7c0,0.7,0.2,1.3,0.5,1.9h-0.6c-2.8,0-5.1,2.3-5.1,5.1v3h-0.1c-2.8,0-5.2,2.1-5.2,4.6
		v9.4H6.6V26.3C6.5,15.7,14.6,6.7,25.3,5.8C25.6,5.8,25.9,5.6,26.1,5.2z M22.9,14.6c0-1,0.8-1.9,1.9-1.9c1,0,1.9,0.8,1.9,1.9
		c0,1-0.8,1.9-1.9,1.9c0,0,0,0,0,0C23.8,16.5,22.9,15.6,22.9,14.6z M29.5,16.7v-0.2c-0.4,0-0.7-0.3-0.7-0.7s0.3-0.7,0.7-0.7
		c0.4,0,0.7,0.3,0.7,0.7c0,0.4-0.3,0.7-0.7,0.7c0,0,0,0,0,0L29.5,16.7z M17.7,21.6c0-1.7,1.3-3,3-3.1H33c1.7,0,3,1.4,3,3v3H17.7
		V21.6z M12.4,34.8c1.2-0.8,3.9-2.1,6.7,0.3c1.5,1.2,3,1.8,4.6,1.6c1.3-0.2,2.5-0.8,3.4-1.7c0.9,0.9,2.1,1.5,3.4,1.7
		c0.2,0,0.4,0,0.6,0c1.5,0,2.9-0.6,4-1.6c2.8-2.3,5.5-1,6.7-0.3v3.9H12.4L12.4,34.8z M33.8,33.5c-1,0.8-2,1.2-3,1.1
		c-1.7-0.2-2.8-1.8-2.8-1.8c-0.3-0.4-0.9-0.6-1.3-0.3l-0.1,0.1l0,0c0,0-0.1,0-0.1,0.1l-0.1,0.1l-0.1,0.1c0,0-1.2,1.6-2.8,1.8
		c-1,0.1-2-0.3-3-1.1c-1.8-1.6-4.4-2.2-6.7-1.5c-0.4,0.1-0.9,0.3-1.3,0.5v-3.2c0-1.4,1.4-2.5,3.1-2.5h23.3c1.7,0,3.1,1.1,3.1,2.5
		v3.2c-0.4-0.2-0.8-0.3-1.3-0.5C38.2,31.3,35.7,31.9,33.8,33.5z M53.5,41.5c0,0.4-0.3,0.7-0.7,0.7l0,0H3.2c-0.4,0-0.7-0.3-0.7-0.7
		c0-0.4,0.3-0.7,0.7-0.7h49.7C53.2,40.8,53.5,41.1,53.5,41.5C53.5,41.5,53.5,41.5,53.5,41.5z"/>
	<path class="st0" d="M31.2,51.3c0.6,0,1-0.5,1.1-1v-2.4c-0.1-0.6-0.6-1-1.2-0.9c-0.5,0.1-0.9,0.4-0.9,0.9v2.4
		C30.2,50.9,30.6,51.3,31.2,51.3z"/>
	<path class="st0" d="M27.7,51.3c0.6,0,1-0.5,1-1v-2.4c0-0.6-0.4-1.1-1-1.1s-1.1,0.4-1.1,1c0,0,0,0.1,0,0.1v2.4
		C26.7,50.9,27.1,51.3,27.7,51.3z"/>
	<path class="st0" d="M24.2,51.3c0.6,0,1-0.5,1.1-1v-2.4c0-0.6-0.4-1.1-1-1.1c-0.6,0-1.1,0.4-1.1,1c0,0,0,0.1,0,0.1v2.4
		C23.2,50.9,23.6,51.3,24.2,51.3z"/>
	<path class="st0" d="M15.7,14.1c-0.6-0.5-1.5-0.4-2,0.1c-0.5,0.6-0.4,1.5,0.1,2c0.3,0.2,0.6,0.4,1,0.3H15c0.4,0,0.7-0.2,0.9-0.5
		c0.2-0.3,0.3-0.7,0.3-1C16.2,14.7,16,14.4,15.7,14.1z"/>
	<path class="st0" d="M39.4,17.8h0.1c0.8,0,1.4-0.7,1.3-1.5c0-0.8-0.7-1.4-1.5-1.3c-0.8,0-1.4,0.7-1.3,1.5
		C38.1,17.2,38.7,17.7,39.4,17.8z"/>
	<path class="st0" d="M42,23.3c0.2,0.2,0.6,0.3,0.9,0.3H43c0.8-0.1,1.4-0.8,1.3-1.5c-0.1-0.8-0.8-1.4-1.5-1.3
		c-0.8,0.1-1.4,0.8-1.3,1.5c0,0,0,0,0,0C41.5,22.7,41.7,23.1,42,23.3z"/>
	<path class="st0" d="M10,20.8c-0.8,0.2-1.3,0.9-1.1,1.7c0.1,0.6,0.6,1.1,1.2,1.1h0.1c0.8,0,1.4-0.6,1.5-1.4c0-0.8-0.6-1.4-1.4-1.5
		C10.3,20.8,10.2,20.8,10,20.8L10,20.8z"/>
	<path class="st0" d="M4.9,12.8c1.5,0,2.8-1.3,2.8-2.8c0-1.5-1.3-2.8-2.8-2.8c-1.5,0-2.8,1.3-2.8,2.8C2.1,11.5,3.4,12.8,4.9,12.8z
		 M4.9,9.2c0.4,0,0.7,0.3,0.7,0.7c0,0.4-0.3,0.7-0.7,0.7c-0.4,0-0.7-0.3-0.7-0.7l0,0C4.2,9.6,4.5,9.2,4.9,9.2z"/>
	<path class="st0" d="M49.9,10.4c1.9,0,3.4-1.5,3.4-3.4s-1.5-3.4-3.4-3.4c-1.9,0-3.4,1.5-3.4,3.4c0,0,0,0,0,0
		C46.5,8.9,48,10.4,49.9,10.4z M48.6,7c0-0.7,0.6-1.3,1.3-1.3c0.7,0,1.3,0.6,1.3,1.3c0,0.7-0.6,1.3-1.3,1.3c0,0,0,0,0,0
		C49.2,8.3,48.6,7.7,48.6,7C48.6,7,48.6,7,48.6,7z"/>
</g>
</svg>
