<svg xmlns="http://www.w3.org/2000/svg" width="49.979" height="50" viewBox="0 0 49.979 50">
  <g id="Group_446" data-name="Group 446" transform="translate(-1284.834 -4461.75)">
    <path id="Path_966" data-name="Path 966" d="M1309.813,4466.829a1.172,1.172,0,1,0-1.172-1.172A1.172,1.172,0,0,0,1309.813,4466.829Zm0-1.563a.39.39,0,1,1-.39.391A.391.391,0,0,1,1309.813,4465.266Z" fill="#fff"/>
    <circle id="Ellipse_48" data-name="Ellipse 48" cx="0.781" cy="0.781" r="0.781" transform="translate(1312.157 4464.875)" fill="#fff"/>
    <circle id="Ellipse_49" data-name="Ellipse 49" cx="0.781" cy="0.781" r="0.781" transform="translate(1305.907 4464.875)" fill="#fff"/>
    <g id="Group_445" data-name="Group 445">
      <g id="Group_444" data-name="Group 444">
        <path id="Path_967" data-name="Path 967" d="M1301.187,4478.885h6.635a.663.663,0,0,0,.664-.663v-5.309a.664.664,0,0,0-.664-.664h-6.635a.664.664,0,0,0-.664.664v5.309A.663.663,0,0,0,1301.187,4478.885Zm.663-5.308h5.309v3.981h-5.309Z" fill="#fff"/>
        <path id="Path_968" data-name="Path 968" d="M1318.44,4480.876H1311.8a.664.664,0,0,0-.664.664v5.308a.664.664,0,0,0,.664.664h6.636a.665.665,0,0,0,.664-.664v-5.308A.664.664,0,0,0,1318.44,4480.876Zm-.664,5.309h-5.308V4482.2h5.308Z" fill="#fff"/>
        <rect id="Rectangle_223" data-name="Rectangle 223" width="9.29" height="1.327" transform="translate(1309.813 4472.25)" fill="#fff"/>
        <rect id="Rectangle_224" data-name="Rectangle 224" width="9.29" height="1.327" transform="translate(1309.813 4474.904)" fill="#fff"/>
        <rect id="Rectangle_225" data-name="Rectangle 225" width="6.636" height="1.327" transform="translate(1309.813 4477.558)" fill="#fff"/>
        <path id="Path_969" data-name="Path 969" d="M1307.822,4489.5h-6.635a.663.663,0,0,0-.664.663v5.309a.664.664,0,0,0,.664.664h6.635a.664.664,0,0,0,.664-.664v-5.309A.663.663,0,0,0,1307.822,4489.5Zm-.663,5.308h-5.309v-3.981h5.309Z" fill="#fff"/>
        <rect id="Rectangle_226" data-name="Rectangle 226" width="9.29" height="1.327" transform="translate(1309.813 4489.503)" fill="#fff"/>
        <rect id="Rectangle_227" data-name="Rectangle 227" width="9.29" height="1.327" transform="translate(1309.813 4492.157)" fill="#fff"/>
        <rect id="Rectangle_228" data-name="Rectangle 228" width="1.327" height="1.327" transform="translate(1309.813 4494.812)" fill="#fff"/>
        <rect id="Rectangle_229" data-name="Rectangle 229" width="9.29" height="1.327" transform="translate(1300.523 4480.876)" fill="#fff"/>
        <rect id="Rectangle_230" data-name="Rectangle 230" width="9.29" height="1.327" transform="translate(1300.523 4483.53)" fill="#fff"/>
        <rect id="Rectangle_231" data-name="Rectangle 231" width="9.29" height="1.327" transform="translate(1300.523 4486.185)" fill="#fff"/>
        <rect id="Rectangle_232" data-name="Rectangle 232" width="1.327" height="1.327" transform="translate(1317.776 4477.558)" fill="#fff"/>
        <rect id="Rectangle_233" data-name="Rectangle 233" width="1.327" height="1.327" transform="translate(1312.468 4494.812)" fill="#fff"/>
        <rect id="Rectangle_234" data-name="Rectangle 234" width="1.327" height="1.327" transform="translate(1315.122 4494.812)" fill="#fff"/>
        <rect id="Rectangle_235" data-name="Rectangle 235" width="1.327" height="1.327" transform="translate(1317.776 4494.812)" fill="#fff"/>
      </g>
      <path id="Path_970" data-name="Path 970" d="M1323.095,4465.657a3.907,3.907,0,0,0-3.907-3.907h-18.75a3.907,3.907,0,0,0-3.906,3.907v42.187a3.906,3.906,0,0,0,3.906,3.906h18.75a3.906,3.906,0,0,0,3.907-3.906Zm-22.657-2.344h18.75a2.344,2.344,0,0,1,2.344,1.953h-2.344a3.389,3.389,0,0,0-2.617,1.289,2.7,2.7,0,0,1-2.07,1.055h-9.375a2.7,2.7,0,0,1-2.071-1.055,3.388,3.388,0,0,0-2.617-1.289h-2.3A2.343,2.343,0,0,1,1300.438,4463.313Zm18.75,46.875h-18.75a2.343,2.343,0,0,1-2.343-2.344v-41.8h2.343a2.7,2.7,0,0,1,2.071,1.055,3.391,3.391,0,0,0,2.617,1.289h9.375a3.393,3.393,0,0,0,2.617-1.289,2.7,2.7,0,0,1,2.07-1.055h2.344v41.8A2.343,2.343,0,0,1,1319.188,4510.188Z" fill="#fff"/>
    </g>
    <path id="Path_971" data-name="Path 971" d="M1327,4499.766a.781.781,0,0,0,.64-.328,21.874,21.874,0,0,0,.571-24.523.782.782,0,0,0-1.317.844l0,.007a20.313,20.313,0,0,1-.531,22.758.781.781,0,0,0,.176,1.091l0,0A.785.785,0,0,0,1327,4499.766Z" fill="#fff"/>
    <path id="Path_972" data-name="Path 972" d="M1329.079,4472.063a.782.782,0,0,0-.18,1.086,23.437,23.437,0,0,1-.57,27.961.782.782,0,1,0,1.234.961,24.962,24.962,0,0,0,.6-29.821A.782.782,0,0,0,1329.079,4472.063Z" fill="#fff"/>
    <path id="Path_973" data-name="Path 973" d="M1324.595,4496.993a.733.733,0,0,0,.414.125.784.784,0,0,0,.664-.368,18.75,18.75,0,0,0,.547-19.093.788.788,0,1,0-1.368.781,17.187,17.187,0,0,1-.492,17.5A.782.782,0,0,0,1324.595,4496.993Z" fill="#fff"/>
    <path id="Path_974" data-name="Path 974" d="M1292.735,4475.766a.782.782,0,1,0-1.312-.851,21.872,21.872,0,0,0,.57,24.523.784.784,0,0,0,1.276-.91l0,0A20.315,20.315,0,0,1,1292.735,4475.766Z" fill="#fff"/>
    <path id="Path_975" data-name="Path 975" d="M1290.68,4502.375a.781.781,0,0,0,.618-1.257,23.437,23.437,0,0,1-.571-27.961.781.781,0,0,0-1.226-.914,24.961,24.961,0,0,0,.562,29.82A.779.779,0,0,0,1290.68,4502.375Z" fill="#fff"/>
    <path id="Path_976" data-name="Path 976" d="M1294.618,4497.118a.735.735,0,0,0,.414-.125.781.781,0,0,0,.242-1.078h0a17.187,17.187,0,0,1-.492-17.5.787.787,0,1,0-1.367-.782h0a18.751,18.751,0,0,0,.539,19.117A.783.783,0,0,0,1294.618,4497.118Z" fill="#fff"/>
  </g>
</svg>
