<svg xmlns="http://www.w3.org/2000/svg" width="67.812" height="22" viewBox="0 0 67.812 22">
  <g id="Group_421" data-name="Group 421" transform="translate(-467.913 -3653.17)">
    <g id="Group_420" data-name="Group 420">
      <path id="Path_892" data-name="Path 892" d="M497.309,3674.8h-5.533l3.458-21.254h5.534Z" fill="#0066b2"/>
      <path id="Path_893" data-name="Path 893" d="M487.121,3653.551l-5.275,14.618-.624-3.148h0l-1.862-9.557a2.369,2.369,0,0,0-2.625-1.914h-8.72l-.1.359a20.7,20.7,0,0,1,5.788,2.43l4.807,18.464h5.765l8.8-21.253Z" fill="#0066b2"/>
      <path id="Path_894" data-name="Path 894" d="M530.644,3674.8h5.081l-4.43-21.253h-4.449a2.542,2.542,0,0,0-2.554,1.584L516.04,3674.8h5.767l1.154-3.156h7.034Zm-6.089-7.518,2.908-7.954,1.636,7.954Z" fill="#0066b2"/>
      <path id="Path_895" data-name="Path 895" d="M516.472,3658.662l.79-4.565a15.97,15.97,0,0,0-4.977-.927c-2.746,0-9.266,1.2-9.266,7.036,0,5.492,7.653,5.56,7.653,8.443s-6.865,2.368-9.13.549l-.823,4.771a15.494,15.494,0,0,0,6.246,1.2c3.776,0,9.473-1.956,9.473-7.276,0-5.526-7.722-6.041-7.722-8.443S514.1,3657.357,516.472,3658.662Z" fill="#0066b2"/>
    </g>
    <path id="Path_896" data-name="Path 896" d="M481.222,3665.022l-1.862-9.557a2.369,2.369,0,0,0-2.625-1.914h-8.72l-.1.359a21.454,21.454,0,0,1,8.213,4.124A16.573,16.573,0,0,1,481.222,3665.022Z" fill="#f9a533"/>
  </g>
</svg>
