<svg xmlns="http://www.w3.org/2000/svg" width="15.564" height="15.639" viewBox="0 0 15.564 15.639">
  <g id="Group_98" data-name="Group 98" transform="translate(-6619.88 -990.713)">
    <path id="Path_239" data-name="Path 239" d="M6633.177,992.986a7.751,7.751,0,0,0-12.2,9.35l-1.1,4.016,4.108-1.078a7.735,7.735,0,0,0,3.7.943h0a7.753,7.753,0,0,0,5.482-13.231Zm-5.482,11.923h0a6.435,6.435,0,0,1-3.278-.9l-.235-.14-2.438.64.651-2.377-.153-.244a6.441,6.441,0,1,1,5.456,3.019Z" fill="#591f12" fill-rule="evenodd"/>
    <path id="Path_240" data-name="Path 240" d="M6631.228,1000.085c-.194-.1-1.146-.566-1.323-.63s-.307-.1-.436.1-.5.63-.613.759-.226.145-.42.048a5.3,5.3,0,0,1-1.557-.961,5.86,5.86,0,0,1-1.077-1.341c-.113-.194-.012-.3.085-.4s.194-.226.291-.339a1.356,1.356,0,0,0,.193-.323.358.358,0,0,0-.016-.34c-.048-.1-.436-1.05-.6-1.437s-.317-.327-.436-.333-.242-.007-.371-.007a.71.71,0,0,0-.516.243,2.166,2.166,0,0,0-.678,1.615,3.767,3.767,0,0,0,.791,2,8.637,8.637,0,0,0,3.308,2.924,11.5,11.5,0,0,0,1.1.408,2.657,2.657,0,0,0,1.22.076,1.991,1.991,0,0,0,1.307-.92,1.629,1.629,0,0,0,.113-.921C6631.551,1000.23,6631.421,1000.182,6631.228,1000.085Z" fill="#591f12" fill-rule="evenodd"/>
  </g>
</svg>
