<svg xmlns="http://www.w3.org/2000/svg" width="25.876" height="26" viewBox="0 0 25.876 26">
  <g id="Group_459" data-name="Group 459" transform="translate(-1217.769 -4338.143)">
    <path id="Path_993" data-name="Path 993" d="M1239.875,4341.921a12.887,12.887,0,0,0-20.278,15.546l-1.828,6.676,6.83-1.792a12.858,12.858,0,0,0,6.157,1.568h.005a12.889,12.889,0,0,0,9.114-22Zm-9.114,19.823h-.005a10.69,10.69,0,0,1-5.45-1.493l-.391-.232-4.053,1.063,1.082-3.952-.255-.4a10.708,10.708,0,1,1,9.072,5.019Z" fill="#fff" fill-rule="evenodd"/>
    <path id="Path_994" data-name="Path 994" d="M1236.635,4353.723c-.322-.161-1.905-.939-2.2-1.047s-.51-.161-.724.161-.832,1.048-1.02,1.263-.375.241-.7.08a8.79,8.79,0,0,1-2.589-1.6,9.708,9.708,0,0,1-1.791-2.23c-.188-.322-.02-.5.141-.657.145-.144.322-.376.483-.564a2.184,2.184,0,0,0,.322-.537.593.593,0,0,0-.027-.564c-.08-.161-.724-1.746-.992-2.39-.262-.628-.527-.543-.725-.553s-.4-.011-.617-.011a1.185,1.185,0,0,0-.858.4,3.609,3.609,0,0,0-1.127,2.685,6.257,6.257,0,0,0,1.315,3.33,14.347,14.347,0,0,0,5.5,4.861,18.485,18.485,0,0,0,1.835.678,4.419,4.419,0,0,0,2.028.128,3.314,3.314,0,0,0,2.173-1.531,2.7,2.7,0,0,0,.188-1.531C1237.171,4353.965,1236.957,4353.885,1236.635,4353.723Z" fill="#fff" fill-rule="evenodd"/>
  </g>
</svg>
