<svg xmlns="http://www.w3.org/2000/svg" width="101.218" height="16" viewBox="0 0 101.218 16">
  <g id="Group_441" data-name="Group 441" transform="translate(-986.141 -3656.464)">
    <path id="Path_947" data-name="Path 947" d="M987.265,3657.183h6.087a.943.943,0,0,1,.876.561l1.775,7.3.9-7.031c.068-.405.337-.944.741-.966l4.74-.135c.337,0,.607.427.674.764l1.28,6.918,1.371-6.963c.045-.292.292-.674.584-.674h5.323c.292,0,.494.494.427.786l-3.055,12.624c-.112.427-.337,1.033-.786,1.056l-5.324.314c-.382.023-1.011.09-1.1-.269l-1.73-6.829-1.213,6.6c-.067.337-.292.786-.651.809l-5.953.359a1.117,1.117,0,0,1-1.1-.674l-4.29-13.41C986.725,3657.946,986.86,3657.183,987.265,3657.183Z" fill="#6850a0" fill-rule="evenodd"/>
    <g id="Group_437" data-name="Group 437">
      <path id="Path_948" data-name="Path 948" d="M1016.062,3657.205l1.056-.315.225-.067.247-.045.27-.045.247-.045.27-.022h.2l.18-.022h.2l.225-.022h.427l.225-.022h.921l.247-.022h1.707l.247.022h.943l.247.022h.427l.225.022h.4l.2.022h.18l.27.022.27.045.247.045.27.045.225.067.247.09.225.067.225.112.225.112.2.112.2.112.18.135.2.157.157.157.18.157.157.157.157.18.135.2.135.18.135.2.112.2.09.225.112.225.09.225.067.225.067.247.067.225.045.247.022.27.022.247.022.27v3.122l-.022.27-.022.247-.045.27-.045.247-.067.247-.067.247-.09.225-.112.247-.359.809.09-.247.09-.247.09-.247.067-.27.045-.27.045-.27.045-.27.022-.27v-3.3l-.022-.27-.022-.27-.045-.27-.045-.27-.067-.247-.067-.247-.09-.247-.09-.247-.09-.225-.112-.225-.135-.225-.135-.2-.135-.2-.157-.2-.157-.18-.157-.18-.18-.18-.18-.157-.2-.157-.2-.135-.2-.135-.225-.112-.225-.112-.225-.112-.247-.09-.247-.09-.27-.067-.27-.045-.27-.045-.27-.045-.292-.022-.2-.023h-.4l-.225-.022h-.225l-.225-.022h-.719l-.247-.022h-3.325l-.247.022h-.472l-.225.022h-.449l-.2.022h-.225l-.18.023-.292.022-.27.045-.27.045-.27.067Z" fill="#60368b" fill-rule="evenodd"/>
      <path id="Path_949" data-name="Path 949" d="M1023.946,3665.943l.651-.719-.135.135-.135.112-.157.135-.157.09-.157.09-.18.067-.2.045-.18.022h-2.381l-.2-.022-.18-.045-.18-.067-.18-.09-.157-.09-.135-.135-.135-.112-.135-.135-.112-.157-.09-.157-.09-.18-.067-.18-.045-.157-.022-.2-.022-.2V3662.3l.022-.18.022-.2.045-.18.067-.18.09-.18.09-.157.112-.157.135-.135.135-.135.135-.112.157-.09-.876.494-.157.09-.18.135-.135.135-.135.135-.112.157-.112.18-.09.18-.067.18-.045.2-.022.2-.022.2v1.752l.022.225.022.2.045.18.067.2.09.18.112.157.112.157.135.157.135.135.18.112.157.112.18.09.18.067.2.045.2.022.2.022h2.089l.225-.022.2-.022.18-.045.2-.067.18-.09.157-.112.157-.112.157-.135Z" fill="#60368b" fill-rule="evenodd"/>
    </g>
    <path id="Path_950" data-name="Path 950" d="M1021.318,3656.868c1.348,0,2.673.022,3.662.09a5.2,5.2,0,0,1,5.031,5.5v2.718a5.334,5.334,0,0,1-5.323,5.5h-3.37v-3.976h1.034a2.057,2.057,0,0,0,2.044-2.067v-1.752a2.052,2.052,0,0,0-2.044-2.044h-1.034Zm-3.908.09c1.055-.068,2.493-.09,3.908-.09v3.976h-1.056a2.051,2.051,0,0,0-2.044,2.044v1.752a2.057,2.057,0,0,0,2.044,2.067h1.056v3.976h-3.1a5.561,5.561,0,0,1-5.593-5.5v-2.718C1012.625,3659.429,1014.332,3657.16,1017.41,3656.958Z" fill="#6850a0" fill-rule="evenodd"/>
    <path id="Path_951" data-name="Path 951" d="M1041.041,3656.733h2.695c2,.113,4.088.068,4.942,2.988a8.822,8.822,0,0,1,0,3.167,4.6,4.6,0,0,1-3.257,3.437,31.693,31.693,0,0,1,4.2,3.976c.225.247-.022.966-.381.966h-5.459a1.566,1.566,0,0,1-1.033-.36l-1.707-1.662v-5.324h1.594a1.2,1.2,0,0,0,1.191-1.19v-.854a1.2,1.2,0,0,0-1.191-1.19h-1.594Zm-7.975.831c0-.629.18-.831.742-.831h7.233v3.954h-2.763v3.234h2.763v5.324l-2.718-2.651v4.021a.673.673,0,0,1-.517.854h-3.954c-.449.022-.718-.068-.786-.292Z" fill="#6850a0" fill-rule="evenodd"/>
    <g id="Group_438" data-name="Group 438">
      <path id="Path_952" data-name="Path 952" d="M1051.171,3656.778l.786-.225.112-.022,4.785.045h.09l.09.045.067.045.067.067.045.09.022.09.022.113v7.929l-.449.764v-8.424l-.022-.112-.022-.112-.045-.09-.067-.068-.067-.045-.09-.045-.112-.022-5.1-.022Z" fill="#60368b" fill-rule="evenodd"/>
      <path id="Path_953" data-name="Path 953" d="M1056.809,3665.719l.449-.764h7.57l.112.022.09.045.067.067.067.067.045.09.022.112v.112l.067.809v-.112l-.022-.112-.067-.09-.045-.09-.09-.067-.09-.045-.112-.022-.135-.022Z" fill="#60368b" fill-rule="evenodd"/>
    </g>
    <path id="Path_954" data-name="Path 954" d="M1050.655,3657.542c0-.337.292-.764.629-.764l5.1.023c.314.022.426.292.426.606v8.311h7.93a.519.519,0,0,1,.561.562v4.133a.694.694,0,0,1-.629.629l-13.342-.427a.748.748,0,0,1-.674-.719Z" fill="#6850a0" fill-rule="evenodd"/>
    <path id="Path_955" data-name="Path 955" d="M1067.457,3657.272l3.145-.27h.112l-3.145.27Z" fill="#60368b" fill-rule="evenodd"/>
    <path id="Path_956" data-name="Path 956" d="M1075.566,3657.048c.382.022.786.022,1.19.045,4.426.112,7.3.876,8.222,4.627.494,3.369.494,6.851-1.078,8.94-1.708,1.954-3.684,1.842-5.728,1.775-.876-.023-1.752-.045-2.606-.09v-4.83c.359.023.719.045,1.056.068a1.905,1.905,0,0,0,2.111-1.707v-2.157a2.137,2.137,0,0,0-2.134-1.662h-1.033Zm-8.626.988c.045-.561.27-.809.629-.764,2.673-.179,5.324-.269,8-.224v5.009h-3.1c-.022,1.73-.067,3.459-.09,5.211,1.056.068,2.134.158,3.19.247v4.83a84.038,84.038,0,0,1-8.424-.988.654.654,0,0,1-.471-.427Z" fill="#6850a0" fill-rule="evenodd"/>
    <path id="Path_957" data-name="Path 957" d="M1086.056,3669.582l-.135.18-.157.157-.157.135-.157.134-.158.135-.157.113-.157.089-.157.113-.158.09-2.246,1.123a5.1,5.1,0,0,0,1.483-1.191c1.572-2.089,1.572-5.571,1.078-8.94a6,6,0,0,0-1.056-2.291h0c-.112-.135-.247-.292-.359-.427h0c-.068-.067-.135-.112-.2-.18h-.023a1.461,1.461,0,0,0-.2-.179h0a.789.789,0,0,0-.225-.158v-.022h0c-.067-.045-.157-.09-.224-.135h0l-.023-.022a.713.713,0,0,0-.224-.113v-.022h-.023c-.067-.045-.157-.09-.225-.135h-.022c-.067-.045-.157-.067-.225-.112h-.022l-.023-.023a.663.663,0,0,1-.224-.09h-.045l-.023-.022c-.067-.022-.157-.045-.224-.067l-.023-.023h-.045c-.067-.022-.157-.045-.224-.067l-.023-.023h-.045c-.067-.022-.157-.045-.247-.067h-.022l-.045-.023a.82.82,0,0,0-.247-.044l-.023-.023h-.045a.819.819,0,0,0-.247-.045l-.045-.022h-.044c-.09-.023-.18-.023-.27-.045h-.045a1.1,1.1,0,0,0-.27-.045l-.044-.023h-.068c-.067,0-.135-.022-.224-.022l-.068-.023H1079c-.068,0-.135-.022-.225-.022h-.067l-.068-.022a.9.9,0,0,1-.247-.023h-.135a.637.637,0,0,1-.2-.022h-.224c-.068,0-.113-.023-.18-.023h-.18a.776.776,0,0,1-.224-.022h-.495l-.292-.023h-.584l-.269-.022h-3.167l-.27.022h-.584l-.292.023h-.27l-.292.022h-.292l-.292.023h-.292l-.269.022-.292.023h-.292l-.292.022-.27.022-.292.023-.292.022h-.292l3.145-.269h.27l.269-.023.27-.022.269-.023h.27l.269-.022.27-.023h.269l.27-.022h.27l.269-.022h.27l.269-.023h.539l.27-.022h.809l.269-.023h1.617l.27.023h.809l.269.022h.27l.382.023h.381l.382.022.36.022.337.045.359.023.315.045.336.045.315.067.314.068.292.067.292.067.27.09.27.09.247.112.269.113.225.134.224.135.225.135.225.157.179.18.2.18.179.179.158.2.179.225.135.247.135.247.135.247.112.27.112.292.09.314.09.337.045.292.045.292.045.292.022.315.023.292.045.292.022.292.022.292v.292l.023.292V3665l-.023.269v.292l-.022.27-.045.269-.022.27-.045.269-.045.247-.045.27-.068.247-.067.247-.067.247-.068.225-.09.225-.089.224-.113.225-.112.2-.112.2-.135.2Z" fill="#60368b" fill-rule="evenodd"/>
    <path id="Path_958" data-name="Path 958" d="M1076.622,3667.583h-.09a.132.132,0,0,1-.09-.023h-.022c-1.348-.09-2.7-.2-4.044-.292.023-1.752.068-3.481.09-5.211h2.83c-.022,1.438-.045,2.9-.067,4.335,1.1.09,2.179.158,3.257.247a1.8,1.8,0,0,1-1.437.921h0Z" fill="#60368b" fill-rule="evenodd"/>
    <path id="Path_959" data-name="Path 959" d="M1042.905,3671.02l-1.932-1.258-.045-.045-.067-.023-.045-.045-2.493-2.426v-.629l4.425,4.313a.049.049,0,0,1,.045.045h0c.022,0,.045.023.067.045h0c.023,0,.023.023.045.023Z" fill="#60368b" fill-rule="evenodd"/>
    <path id="Path_960" data-name="Path 960" d="M1042.995,3660.754h-.023l-.045-.022a1.278,1.278,0,0,0-.292-.045h-.965l.022.045.045.089.022.113.045.112v.112l.023.113v.763l-.023.113v.112l-.045.112-.022.09-.045.113-.067.089-.068.09-.067.068-.068.067-.089.067-.09.068-.113.045-.089.022-.113.045h-.112l-.112.023h-2.426v.763h4.47l.112-.022h0l.135-.045h0l.09-.022h0l.112-.068.09-.045h0l.112-.067h0l.068-.09h0l.089-.09h0l.068-.09h0l.045-.09h0l.067-.112.045-.112.023-.113.022-.112v-1.078l-.022-.112-.023-.113-.045-.112-.067-.112-.045-.09-.068-.09-.089-.09-.068-.067-.112-.09-.09-.045h0l-.112-.045h0l-.09-.045Z" fill="#60368b" fill-rule="evenodd"/>
    <g id="Group_439" data-name="Group 439">
      <path id="Path_961" data-name="Path 961" d="M1042.725,3656.531h.068l.157.023h.18l.157.022,1.977.27-1.146-.09-.2-.023h-.18l-1.011-.135v-.067Zm0,.2h1.011l-1.011-.135Zm-.988-.269h.18l.157.022h.18l.179.023h.18l.112.022v.067l-.988-.134Zm.988.134-.988-.134h-9.412l-.157.045-.113.045-.089.067-.068.112-.045.135-.022.18-.023.2V3669.9l1.258,1.281v-13.613a2.135,2.135,0,0,1,.023-.4h0a.534.534,0,0,1,.224-.337h.023a.172.172,0,0,1,.112-.045h0a.426.426,0,0,1,.157-.045h9.12Z" fill="#60368b" fill-rule="evenodd"/>
    </g>
    <g id="Group_440" data-name="Group 440">
      <path id="Path_962" data-name="Path 962" d="M991.285,3672.008l-.921-1.033-.044-.068-.045-.067-.045-.067-.023-.068-4.021-12.6-.022-.067v-.09l-.023-.09v-.157l.023-.09v-.09l.022-.089.045-.09.023-.068.045-.067.045-.067.045-.045.044-.023.068-.045h5.818l.112.023,1.056.157h0a.292.292,0,0,0-.135-.022h-6.087c-.045,0-.068,0-.09.022h0a.085.085,0,0,0-.068.022h0c-.022,0-.022.023-.045.023h0l-.067.067h0c0,.023-.022.023-.045.045h0v.023c0,.022-.022.045-.022.067h-.023c0,.023-.022.045-.022.067h0a.167.167,0,0,0-.023.09h0a.14.14,0,0,0-.022.09h0a.168.168,0,0,0-.023.09h0v.112h0c-.022.023-.022.045-.022.09h0v.09h0a.136.136,0,0,1,.022.09h0v.067h0a.167.167,0,0,1,.023.09l4.29,13.41A.667.667,0,0,0,991.285,3672.008Z" fill="#60368b" fill-rule="evenodd"/>
      <path id="Path_963" data-name="Path 963" d="M995.149,3661.585l.494-3.8.023-.135.067-.157.045-.135.09-.157.09-.112.112-.09.135-.068.135-.045,4.447-.112,1.6.135-4.74.135c-.045,0-.089.022-.157.022h0a.477.477,0,0,0-.112.068h0c-.045.045-.09.067-.135.112h0c-.022.045-.067.09-.09.135h0a1.662,1.662,0,0,0-.247.629l-.9,7.031Z" fill="#60368b" fill-rule="evenodd"/>
      <path id="Path_964" data-name="Path 964" d="M1003.46,3659.811l.45-2.359.022-.112.045-.113.067-.089.068-.113.067-.09.09-.067.09-.045h5.121l2.134.135h-5.323a.209.209,0,0,0-.113.022h0a.178.178,0,0,0-.09.045h0a.315.315,0,0,0-.089.068h-.023c-.022.022-.045.067-.067.09h0c-.023.044-.045.067-.068.112h0c-.022.045-.045.067-.067.112h0a1.237,1.237,0,0,0-.067.225l-1.371,6.963Z" fill="#60368b" fill-rule="evenodd"/>
      <path id="Path_965" data-name="Path 965" d="M1001.888,3671.626l-1.505-.988-.067-.045-.023-.045-.045-.045-.022-.045-.719-2.875.539-2.943,1.73,6.829A.283.283,0,0,0,1001.888,3671.626Z" fill="#60368b" fill-rule="evenodd"/>
    </g>
  </g>
</svg>
