<svg xmlns="http://www.w3.org/2000/svg" width="21.159" height="15.392" viewBox="0 0 21.159 15.392">
  <g id="Group_96" data-name="Group 96" transform="translate(-6709.673 -991.074)">
    <g id="Group_94" data-name="Group 94">
      <path id="Path_237" data-name="Path 237" d="M6720.253,1006.466c-.633,0-6.226-.012-7.809-.435a3.358,3.358,0,0,1-2.331-2.3,27.935,27.935,0,0,1-.019-9.761,3.358,3.358,0,0,1,2.338-2.455c1.595-.427,7.188-.439,7.821-.439a59.969,59.969,0,0,1,7.79.4,3.351,3.351,0,0,1,2.357,2.405.554.554,0,0,1,.012.058,27.871,27.871,0,0,1,0,9.64,3.359,3.359,0,0,1-2.338,2.454C6726.48,1006.454,6720.886,1006.466,6720.253,1006.466Zm0-13.628a51.617,51.617,0,0,0-7.354.375,1.568,1.568,0,0,0-1.082,1.126,26.374,26.374,0,0,0,.012,8.991,1.564,1.564,0,0,0,1.075,1,72.332,72.332,0,0,0,14.7,0,1.571,1.571,0,0,0,1.084-1.126,26.228,26.228,0,0,0-.007-8.924,1.572,1.572,0,0,0-1.088-1.1A60.142,60.142,0,0,0,6720.253,992.838Z" fill="#591f12"/>
    </g>
    <g id="Group_95" data-name="Group 95">
      <path id="Path_238" data-name="Path 238" d="M6718.861,1001.674a.677.677,0,0,1-.676-.676v-4.42a.676.676,0,0,1,1.01-.588l3.886,2.211a.675.675,0,0,1,0,1.174l-3.886,2.21A.676.676,0,0,1,6718.861,1001.674Z" fill="#591f12"/>
    </g>
  </g>
</svg>
