<svg xmlns="http://www.w3.org/2000/svg" width="35.177" height="25.59" viewBox="0 0 35.177 25.59">
  <g id="Group_457" data-name="Group 457" transform="translate(-1367.054 -4338.743)">
    <g id="Group_455" data-name="Group 455">
      <path id="Path_991" data-name="Path 991" d="M1384.643,4364.333c-1.052,0-10.352-.02-12.983-.724a5.578,5.578,0,0,1-3.875-3.827,46.468,46.468,0,0,1-.032-16.228,5.584,5.584,0,0,1,3.887-4.081c2.651-.709,11.951-.73,13-.73s10.335.019,12.951.657a5.572,5.572,0,0,1,3.918,4c.008.032.016.064.021.1a46.415,46.415,0,0,1,0,16.028,5.585,5.585,0,0,1-3.887,4.08C1394.995,4364.313,1385.695,4364.333,1384.643,4364.333Zm0-22.658c-3.976,0-10.514.166-12.226.624a2.608,2.608,0,0,0-1.8,1.871,43.978,43.978,0,0,0,.02,14.949,2.6,2.6,0,0,0,1.789,1.66c1.7.457,8.241.623,12.217.623s10.513-.166,12.224-.624a2.61,2.61,0,0,0,1.8-1.872,43.616,43.616,0,0,0-.011-14.837,2.617,2.617,0,0,0-1.809-1.834C1394.972,4341.778,1387.4,4341.675,1384.643,4341.675Z" fill="#fff"/>
    </g>
    <g id="Group_456" data-name="Group 456">
      <path id="Path_992" data-name="Path 992" d="M1382.328,4356.365a1.124,1.124,0,0,1-1.124-1.123v-7.349a1.124,1.124,0,0,1,1.679-.977l6.462,3.675a1.124,1.124,0,0,1,0,1.953l-6.462,3.674A1.118,1.118,0,0,1,1382.328,4356.365Z" fill="#fff"/>
    </g>
  </g>
</svg>
